<?xml version="1.0" encoding="utf-8" standalone="no"?>
<!DOCTYPE svg PUBLIC "-//W3C//DTD SVG 1.1//EN"
  "http://www.w3.org/Graphics/SVG/1.1/DTD/svg11.dtd">
<svg xmlns:xlink="http://www.w3.org/1999/xlink" width="445.635356pt" height="333.722812pt" viewBox="0 0 445.635356 333.722812" xmlns="http://www.w3.org/2000/svg" version="1.1">
 <metadata>
  <rdf:RDF xmlns:dc="http://purl.org/dc/elements/1.1/" xmlns:cc="http://creativecommons.org/ns#" xmlns:rdf="http://www.w3.org/1999/02/22-rdf-syntax-ns#">
   <cc:Work>
    <dc:type rdf:resource="http://purl.org/dc/dcmitype/StillImage"/>
    <dc:date>2022-02-23T03:33:16.604920</dc:date>
    <dc:format>image/svg+xml</dc:format>
    <dc:creator>
     <cc:Agent>
      <dc:title>Matplotlib v3.5.1, https://matplotlib.org/</dc:title>
     </cc:Agent>
    </dc:creator>
   </cc:Work>
  </rdf:RDF>
 </metadata>
 <defs>
  <style type="text/css">*{stroke-linejoin: round; stroke-linecap: butt}</style>
 </defs>
 <g id="figure_1">
  <g id="patch_1">
   <path d="M 0 333.722812 
L 445.635356 333.722812 
L 445.635356 0 
L 0 0 
z
" style="fill: #ffffff"/>
  </g>
  <g id="axes_1">
   <g id="patch_2">
    <path d="M 45.841406 289.74 
L 335.365406 289.74 
L 335.365406 7.2 
L 45.841406 7.2 
z
" style="fill: #ffffff"/>
   </g>
   <g id="matplotlib.axis_1">
    <g id="xtick_1">
     <g id="line2d_1">
      <defs>
       <path id="mb35368aaeb" d="M 0 3 
L 0 -3 
" style="stroke: #262626; stroke-width: 1.5"/>
      </defs>
      <g>
       <use xlink:href="#mb35368aaeb" x="59.001588" y="289.74" style="fill: #262626; stroke: #262626; stroke-width: 1.5"/>
      </g>
     </g>
     <g id="text_1">
      <!-- 1 -->
      <g style="fill: #262626" transform="translate(55.251588 306.172812)scale(0.15 -0.15)">
       <defs>
        <path id="TimesNewRomanPS-BoldMT-31" d="M 2084 4325 
L 2084 859 
Q 2084 469 2118 361 
Q 2153 253 2262 184 
Q 2372 116 2613 116 
L 2709 116 
L 2709 0 
L 478 0 
L 478 116 
L 591 116 
Q 863 116 978 178 
Q 1094 241 1134 350 
Q 1175 459 1175 859 
L 1175 3056 
Q 1175 3350 1147 3423 
Q 1119 3497 1042 3548 
Q 966 3600 866 3600 
Q 706 3600 478 3500 
L 422 3613 
L 1981 4325 
L 2084 4325 
z
" transform="scale(0.015625)"/>
       </defs>
       <use xlink:href="#TimesNewRomanPS-BoldMT-31"/>
      </g>
     </g>
    </g>
    <g id="xtick_2">
     <g id="line2d_2">
      <g>
       <use xlink:href="#mb35368aaeb" x="69.968406" y="289.74" style="fill: #262626; stroke: #262626; stroke-width: 1.5"/>
      </g>
     </g>
     <g id="text_2">
      <!-- 2 -->
      <g style="fill: #262626" transform="translate(66.218406 306.172812)scale(0.15 -0.15)">
       <defs>
        <path id="TimesNewRomanPS-BoldMT-32" d="M 2650 0 
L 156 0 
L 156 69 
Q 1303 1434 1548 1906 
Q 1794 2378 1794 2828 
Q 1794 3156 1591 3373 
Q 1388 3591 1094 3591 
Q 613 3591 347 3109 
L 231 3150 
Q 400 3750 744 4037 
Q 1088 4325 1538 4325 
Q 1859 4325 2125 4175 
Q 2391 4025 2541 3764 
Q 2691 3503 2691 3275 
Q 2691 2859 2459 2431 
Q 2144 1853 1081 819 
L 1997 819 
Q 2334 819 2436 847 
Q 2538 875 2603 942 
Q 2669 1009 2775 1225 
L 2888 1225 
L 2650 0 
z
" transform="scale(0.015625)"/>
       </defs>
       <use xlink:href="#TimesNewRomanPS-BoldMT-32"/>
      </g>
     </g>
    </g>
    <g id="xtick_3">
     <g id="line2d_3">
      <g>
       <use xlink:href="#mb35368aaeb" x="80.935224" y="289.74" style="fill: #262626; stroke: #262626; stroke-width: 1.5"/>
      </g>
     </g>
     <g id="text_3">
      <!-- 3 -->
      <g style="fill: #262626" transform="translate(77.185224 306.172812)scale(0.15 -0.15)">
       <defs>
        <path id="TimesNewRomanPS-BoldMT-33" d="M 947 2125 
L 947 2234 
Q 1303 2338 1440 2427 
Q 1578 2516 1678 2698 
Q 1778 2881 1778 3069 
Q 1778 3328 1589 3514 
Q 1400 3700 1119 3700 
Q 681 3700 375 3238 
L 259 3278 
Q 484 3800 836 4062 
Q 1188 4325 1619 4325 
Q 2059 4325 2345 4056 
Q 2631 3788 2631 3428 
Q 2631 3194 2498 2976 
Q 2366 2759 2081 2594 
Q 2447 2416 2639 2155 
Q 2831 1894 2831 1500 
Q 2831 838 2351 373 
Q 1872 -91 1066 -91 
Q 528 -91 281 88 
Q 103 213 103 409 
Q 103 553 206 654 
Q 309 756 444 756 
Q 547 756 638 713 
Q 688 688 992 439 
Q 1297 191 1563 191 
Q 1794 191 1959 373 
Q 2125 556 2125 838 
Q 2125 1266 1825 1627 
Q 1525 1988 947 2125 
z
" transform="scale(0.015625)"/>
       </defs>
       <use xlink:href="#TimesNewRomanPS-BoldMT-33"/>
      </g>
     </g>
    </g>
    <g id="xtick_4">
     <g id="line2d_4">
      <g>
       <use xlink:href="#mb35368aaeb" x="91.902043" y="289.74" style="fill: #262626; stroke: #262626; stroke-width: 1.5"/>
      </g>
     </g>
     <g id="text_4">
      <!-- 4 -->
      <g style="fill: #262626" transform="translate(88.152043 306.172812)scale(0.15 -0.15)">
       <defs>
        <path id="TimesNewRomanPS-BoldMT-34" d="M 159 1597 
L 2172 4325 
L 2553 4325 
L 2553 1597 
L 2941 1597 
L 2941 950 
L 2553 950 
L 2553 0 
L 1694 0 
L 1694 950 
L 159 950 
L 159 1597 
z
M 463 1597 
L 1694 1597 
L 1694 3269 
L 463 1597 
z
" transform="scale(0.015625)"/>
       </defs>
       <use xlink:href="#TimesNewRomanPS-BoldMT-34"/>
      </g>
     </g>
    </g>
    <g id="xtick_5">
     <g id="line2d_5">
      <g>
       <use xlink:href="#mb35368aaeb" x="102.868861" y="289.74" style="fill: #262626; stroke: #262626; stroke-width: 1.5"/>
      </g>
     </g>
     <g id="text_5">
      <!-- 5 -->
      <g style="fill: #262626" transform="translate(99.118861 306.172812)scale(0.15 -0.15)">
       <defs>
        <path id="TimesNewRomanPS-BoldMT-35" d="M 975 4238 
L 2959 4238 
L 2644 3431 
L 975 3431 
L 816 3009 
Q 1894 2969 2475 2472 
Q 2953 2063 2953 1453 
Q 2953 1063 2731 689 
Q 2509 316 2106 114 
Q 1703 -88 1222 -88 
Q 703 -88 425 106 
Q 231 244 231 419 
Q 231 553 332 656 
Q 434 759 569 759 
Q 691 759 816 709 
Q 941 659 1244 447 
Q 1434 316 1572 266 
Q 1669 228 1791 228 
Q 2047 228 2226 415 
Q 2406 603 2406 866 
Q 2406 1416 1856 1759 
Q 1306 2103 469 2103 
Q 384 2103 216 2100 
L 975 4238 
z
" transform="scale(0.015625)"/>
       </defs>
       <use xlink:href="#TimesNewRomanPS-BoldMT-35"/>
      </g>
     </g>
    </g>
    <g id="xtick_6">
     <g id="line2d_6">
      <g>
       <use xlink:href="#mb35368aaeb" x="113.835679" y="289.74" style="fill: #262626; stroke: #262626; stroke-width: 1.5"/>
      </g>
     </g>
     <g id="text_6">
      <!-- 6 -->
      <g style="fill: #262626" transform="translate(110.085679 306.172812)scale(0.15 -0.15)">
       <defs>
        <path id="TimesNewRomanPS-BoldMT-36" d="M 3006 4325 
L 3006 4238 
Q 2441 4094 2098 3867 
Q 1756 3641 1557 3317 
Q 1359 2994 1250 2516 
Q 1388 2609 1478 2638 
Q 1681 2700 1888 2700 
Q 2363 2700 2680 2354 
Q 2997 2009 2997 1413 
Q 2997 994 2825 644 
Q 2653 294 2337 103 
Q 2022 -88 1663 -88 
Q 1272 -88 940 126 
Q 609 341 423 753 
Q 238 1166 238 1650 
Q 238 2363 580 2977 
Q 922 3591 1551 3955 
Q 2181 4319 3006 4325 
z
M 1209 2263 
Q 1184 1831 1184 1631 
Q 1184 1200 1267 797 
Q 1350 394 1494 231 
Q 1597 116 1738 116 
Q 1881 116 1993 283 
Q 2106 450 2106 963 
Q 2106 1825 1897 2153 
Q 1763 2366 1534 2366 
Q 1409 2366 1209 2263 
z
" transform="scale(0.015625)"/>
       </defs>
       <use xlink:href="#TimesNewRomanPS-BoldMT-36"/>
      </g>
     </g>
    </g>
    <g id="xtick_7">
     <g id="line2d_7">
      <g>
       <use xlink:href="#mb35368aaeb" x="124.802497" y="289.74" style="fill: #262626; stroke: #262626; stroke-width: 1.5"/>
      </g>
     </g>
     <g id="text_7">
      <!-- 7 -->
      <g style="fill: #262626" transform="translate(121.052497 306.172812)scale(0.15 -0.15)">
       <defs>
        <path id="TimesNewRomanPS-BoldMT-37" d="M 1134 -88 
L 2288 3409 
L 1409 3409 
Q 894 3409 634 3275 
Q 453 3181 334 2922 
L 216 2922 
L 522 4238 
L 3047 4238 
L 1625 -88 
L 1134 -88 
z
" transform="scale(0.015625)"/>
       </defs>
       <use xlink:href="#TimesNewRomanPS-BoldMT-37"/>
      </g>
     </g>
    </g>
    <g id="xtick_8">
     <g id="line2d_8">
      <g>
       <use xlink:href="#mb35368aaeb" x="135.769315" y="289.74" style="fill: #262626; stroke: #262626; stroke-width: 1.5"/>
      </g>
     </g>
     <g id="text_8">
      <!-- 8 -->
      <g style="fill: #262626" transform="translate(132.019315 306.172812)scale(0.15 -0.15)">
       <defs>
        <path id="TimesNewRomanPS-BoldMT-38" d="M 2181 2394 
Q 2628 2066 2801 1783 
Q 2975 1500 2975 1134 
Q 2975 622 2589 267 
Q 2203 -88 1541 -88 
Q 913 -88 569 221 
Q 225 531 225 978 
Q 225 1319 423 1575 
Q 622 1831 1084 2044 
Q 581 2428 439 2672 
Q 297 2916 297 3238 
Q 297 3663 658 3986 
Q 1019 4309 1647 4309 
Q 2253 4309 2579 4023 
Q 2906 3738 2906 3338 
Q 2906 3038 2729 2808 
Q 2553 2578 2181 2394 
z
M 1944 2553 
Q 2059 2709 2115 2903 
Q 2172 3097 2172 3328 
Q 2172 3734 1997 3950 
Q 1866 4116 1634 4116 
Q 1425 4116 1278 3964 
Q 1131 3813 1131 3588 
Q 1131 3359 1295 3114 
Q 1459 2869 1944 2553 
z
M 1319 1894 
Q 1222 1806 1181 1734 
Q 1119 1625 1069 1415 
Q 1019 1206 1019 978 
Q 1019 684 1094 486 
Q 1169 288 1308 200 
Q 1447 113 1594 113 
Q 1822 113 1978 280 
Q 2134 447 2134 738 
Q 2134 1344 1319 1894 
z
" transform="scale(0.015625)"/>
       </defs>
       <use xlink:href="#TimesNewRomanPS-BoldMT-38"/>
      </g>
     </g>
    </g>
    <g id="xtick_9">
     <g id="line2d_9">
      <g>
       <use xlink:href="#mb35368aaeb" x="146.736134" y="289.74" style="fill: #262626; stroke: #262626; stroke-width: 1.5"/>
      </g>
     </g>
     <g id="text_9">
      <!-- 9 -->
      <g style="fill: #262626" transform="translate(142.986134 306.172812)scale(0.15 -0.15)">
       <defs>
        <path id="TimesNewRomanPS-BoldMT-39" d="M 197 -88 
L 197 0 
Q 716 119 1077 350 
Q 1438 581 1648 922 
Q 1859 1263 1944 1706 
Q 1750 1606 1614 1567 
Q 1478 1528 1328 1528 
Q 847 1528 526 1875 
Q 206 2222 206 2825 
Q 206 3244 379 3592 
Q 553 3941 875 4133 
Q 1197 4325 1544 4325 
Q 1916 4325 2247 4112 
Q 2578 3900 2775 3497 
Q 2972 3094 2972 2578 
Q 2972 1909 2651 1296 
Q 2331 684 1697 314 
Q 1063 -56 197 -88 
z
M 1991 1969 
Q 2022 2319 2022 2584 
Q 2022 3153 1891 3644 
Q 1816 3916 1669 4044 
Q 1591 4113 1466 4113 
Q 1309 4113 1222 3978 
Q 1100 3794 1100 3275 
Q 1100 2409 1306 2081 
Q 1441 1869 1669 1869 
Q 1791 1869 1991 1969 
z
" transform="scale(0.015625)"/>
       </defs>
       <use xlink:href="#TimesNewRomanPS-BoldMT-39"/>
      </g>
     </g>
    </g>
    <g id="xtick_10">
     <g id="line2d_10">
      <g>
       <use xlink:href="#mb35368aaeb" x="157.702952" y="289.74" style="fill: #262626; stroke: #262626; stroke-width: 1.5"/>
      </g>
     </g>
     <g id="text_10">
      <!-- 10 -->
      <g style="fill: #262626" transform="translate(150.202952 306.172812)scale(0.15 -0.15)">
       <defs>
        <path id="TimesNewRomanPS-BoldMT-30" d="M 2966 2119 
Q 2966 1484 2788 934 
Q 2681 597 2501 381 
Q 2322 166 2094 39 
Q 1866 -88 1597 -88 
Q 1291 -88 1044 68 
Q 797 225 606 516 
Q 469 728 366 1081 
Q 231 1559 231 2069 
Q 231 2759 425 3338 
Q 584 3816 909 4070 
Q 1234 4325 1597 4325 
Q 1966 4325 2286 4073 
Q 2606 3822 2756 3397 
Q 2966 2813 2966 2119 
z
M 2003 2125 
Q 2003 3238 1991 3422 
Q 1959 3856 1841 4009 
Q 1763 4109 1588 4109 
Q 1453 4109 1375 4034 
Q 1259 3925 1218 3648 
Q 1178 3372 1178 1719 
Q 1178 819 1241 513 
Q 1288 291 1375 216 
Q 1463 141 1606 141 
Q 1763 141 1841 241 
Q 1972 416 1991 781 
L 2003 2125 
z
" transform="scale(0.015625)"/>
       </defs>
       <use xlink:href="#TimesNewRomanPS-BoldMT-31"/>
       <use xlink:href="#TimesNewRomanPS-BoldMT-30" x="50"/>
      </g>
     </g>
    </g>
    <g id="xtick_11">
     <g id="line2d_11">
      <g>
       <use xlink:href="#mb35368aaeb" x="168.66977" y="289.74" style="fill: #262626; stroke: #262626; stroke-width: 1.5"/>
      </g>
     </g>
     <g id="text_11">
      <!-- 11 -->
      <g style="fill: #262626" transform="translate(161.58227 306.172812)scale(0.15 -0.15)">
       <use xlink:href="#TimesNewRomanPS-BoldMT-31"/>
       <use xlink:href="#TimesNewRomanPS-BoldMT-31" x="44.5"/>
      </g>
     </g>
    </g>
    <g id="xtick_12">
     <g id="line2d_12">
      <g>
       <use xlink:href="#mb35368aaeb" x="179.636588" y="289.74" style="fill: #262626; stroke: #262626; stroke-width: 1.5"/>
      </g>
     </g>
     <g id="text_12">
      <!-- 12 -->
      <g style="fill: #262626" transform="translate(172.136588 306.172812)scale(0.15 -0.15)">
       <use xlink:href="#TimesNewRomanPS-BoldMT-31"/>
       <use xlink:href="#TimesNewRomanPS-BoldMT-32" x="50"/>
      </g>
     </g>
    </g>
    <g id="xtick_13">
     <g id="line2d_13">
      <g>
       <use xlink:href="#mb35368aaeb" x="190.603406" y="289.74" style="fill: #262626; stroke: #262626; stroke-width: 1.5"/>
      </g>
     </g>
     <g id="text_13">
      <!-- 13 -->
      <g style="fill: #262626" transform="translate(183.103406 306.172812)scale(0.15 -0.15)">
       <use xlink:href="#TimesNewRomanPS-BoldMT-31"/>
       <use xlink:href="#TimesNewRomanPS-BoldMT-33" x="50"/>
      </g>
     </g>
    </g>
    <g id="xtick_14">
     <g id="line2d_14">
      <g>
       <use xlink:href="#mb35368aaeb" x="201.570224" y="289.74" style="fill: #262626; stroke: #262626; stroke-width: 1.5"/>
      </g>
     </g>
     <g id="text_14">
      <!-- 14 -->
      <g style="fill: #262626" transform="translate(194.070224 306.172812)scale(0.15 -0.15)">
       <use xlink:href="#TimesNewRomanPS-BoldMT-31"/>
       <use xlink:href="#TimesNewRomanPS-BoldMT-34" x="50"/>
      </g>
     </g>
    </g>
    <g id="xtick_15">
     <g id="line2d_15">
      <g>
       <use xlink:href="#mb35368aaeb" x="212.537043" y="289.74" style="fill: #262626; stroke: #262626; stroke-width: 1.5"/>
      </g>
     </g>
     <g id="text_15">
      <!-- 15 -->
      <g style="fill: #262626" transform="translate(205.037043 306.172812)scale(0.15 -0.15)">
       <use xlink:href="#TimesNewRomanPS-BoldMT-31"/>
       <use xlink:href="#TimesNewRomanPS-BoldMT-35" x="50"/>
      </g>
     </g>
    </g>
    <g id="xtick_16">
     <g id="line2d_16">
      <g>
       <use xlink:href="#mb35368aaeb" x="223.503861" y="289.74" style="fill: #262626; stroke: #262626; stroke-width: 1.5"/>
      </g>
     </g>
     <g id="text_16">
      <!-- 16 -->
      <g style="fill: #262626" transform="translate(216.003861 306.172812)scale(0.15 -0.15)">
       <use xlink:href="#TimesNewRomanPS-BoldMT-31"/>
       <use xlink:href="#TimesNewRomanPS-BoldMT-36" x="50"/>
      </g>
     </g>
    </g>
    <g id="xtick_17">
     <g id="line2d_17">
      <g>
       <use xlink:href="#mb35368aaeb" x="234.470679" y="289.74" style="fill: #262626; stroke: #262626; stroke-width: 1.5"/>
      </g>
     </g>
     <g id="text_17">
      <!-- 17 -->
      <g style="fill: #262626" transform="translate(226.970679 306.172812)scale(0.15 -0.15)">
       <use xlink:href="#TimesNewRomanPS-BoldMT-31"/>
       <use xlink:href="#TimesNewRomanPS-BoldMT-37" x="50"/>
      </g>
     </g>
    </g>
    <g id="xtick_18">
     <g id="line2d_18">
      <g>
       <use xlink:href="#mb35368aaeb" x="245.437497" y="289.74" style="fill: #262626; stroke: #262626; stroke-width: 1.5"/>
      </g>
     </g>
     <g id="text_18">
      <!-- 18 -->
      <g style="fill: #262626" transform="translate(237.937497 306.172812)scale(0.15 -0.15)">
       <use xlink:href="#TimesNewRomanPS-BoldMT-31"/>
       <use xlink:href="#TimesNewRomanPS-BoldMT-38" x="50"/>
      </g>
     </g>
    </g>
    <g id="xtick_19">
     <g id="line2d_19">
      <g>
       <use xlink:href="#mb35368aaeb" x="256.404315" y="289.74" style="fill: #262626; stroke: #262626; stroke-width: 1.5"/>
      </g>
     </g>
     <g id="text_19">
      <!-- 19 -->
      <g style="fill: #262626" transform="translate(248.904315 306.172812)scale(0.15 -0.15)">
       <use xlink:href="#TimesNewRomanPS-BoldMT-31"/>
       <use xlink:href="#TimesNewRomanPS-BoldMT-39" x="50"/>
      </g>
     </g>
    </g>
    <g id="xtick_20">
     <g id="line2d_20">
      <g>
       <use xlink:href="#mb35368aaeb" x="267.371134" y="289.74" style="fill: #262626; stroke: #262626; stroke-width: 1.5"/>
      </g>
     </g>
     <g id="text_20">
      <!-- 20 -->
      <g style="fill: #262626" transform="translate(259.871134 306.172812)scale(0.15 -0.15)">
       <use xlink:href="#TimesNewRomanPS-BoldMT-32"/>
       <use xlink:href="#TimesNewRomanPS-BoldMT-30" x="50"/>
      </g>
     </g>
    </g>
    <g id="xtick_21">
     <g id="line2d_21">
      <g>
       <use xlink:href="#mb35368aaeb" x="278.337952" y="289.74" style="fill: #262626; stroke: #262626; stroke-width: 1.5"/>
      </g>
     </g>
     <g id="text_21">
      <!-- 21 -->
      <g style="fill: #262626" transform="translate(270.837952 306.172812)scale(0.15 -0.15)">
       <use xlink:href="#TimesNewRomanPS-BoldMT-32"/>
       <use xlink:href="#TimesNewRomanPS-BoldMT-31" x="50"/>
      </g>
     </g>
    </g>
    <g id="xtick_22">
     <g id="line2d_22">
      <g>
       <use xlink:href="#mb35368aaeb" x="289.30477" y="289.74" style="fill: #262626; stroke: #262626; stroke-width: 1.5"/>
      </g>
     </g>
     <g id="text_22">
      <!-- 22 -->
      <g style="fill: #262626" transform="translate(281.80477 306.172812)scale(0.15 -0.15)">
       <use xlink:href="#TimesNewRomanPS-BoldMT-32"/>
       <use xlink:href="#TimesNewRomanPS-BoldMT-32" x="50"/>
      </g>
     </g>
    </g>
    <g id="xtick_23">
     <g id="line2d_23">
      <g>
       <use xlink:href="#mb35368aaeb" x="300.271588" y="289.74" style="fill: #262626; stroke: #262626; stroke-width: 1.5"/>
      </g>
     </g>
     <g id="text_23">
      <!-- 23 -->
      <g style="fill: #262626" transform="translate(292.771588 306.172812)scale(0.15 -0.15)">
       <use xlink:href="#TimesNewRomanPS-BoldMT-32"/>
       <use xlink:href="#TimesNewRomanPS-BoldMT-33" x="50"/>
      </g>
     </g>
    </g>
    <g id="xtick_24">
     <g id="line2d_24">
      <g>
       <use xlink:href="#mb35368aaeb" x="311.238406" y="289.74" style="fill: #262626; stroke: #262626; stroke-width: 1.5"/>
      </g>
     </g>
     <g id="text_24">
      <!-- 24 -->
      <g style="fill: #262626" transform="translate(303.738406 306.172812)scale(0.15 -0.15)">
       <use xlink:href="#TimesNewRomanPS-BoldMT-32"/>
       <use xlink:href="#TimesNewRomanPS-BoldMT-34" x="50"/>
      </g>
     </g>
    </g>
    <g id="xtick_25">
     <g id="line2d_25">
      <g>
       <use xlink:href="#mb35368aaeb" x="322.205224" y="289.74" style="fill: #262626; stroke: #262626; stroke-width: 1.5"/>
      </g>
     </g>
     <g id="text_25">
      <!-- 25 -->
      <g style="fill: #262626" transform="translate(314.705224 306.172812)scale(0.15 -0.15)">
       <use xlink:href="#TimesNewRomanPS-BoldMT-32"/>
       <use xlink:href="#TimesNewRomanPS-BoldMT-35" x="50"/>
      </g>
     </g>
    </g>
    <g id="text_26">
     <!-- Bus Stations -->
     <g style="fill: #262626" transform="translate(150.797156 323.314219)scale(0.15 -0.15)">
      <defs>
       <path id="TimesNewRomanPS-BoldMT-42" d="M 2847 2247 
Q 3450 2106 3694 1906 
Q 4044 1622 4044 1169 
Q 4044 691 3659 378 
Q 3188 0 2288 0 
L 134 0 
L 134 116 
Q 428 116 533 170 
Q 638 225 680 312 
Q 722 400 722 744 
L 722 3494 
Q 722 3838 680 3927 
Q 638 4016 531 4069 
Q 425 4122 134 4122 
L 134 4238 
L 2166 4238 
Q 2894 4238 3197 4108 
Q 3500 3978 3675 3720 
Q 3850 3463 3850 3172 
Q 3850 2866 3628 2627 
Q 3406 2388 2847 2247 
z
M 1709 2331 
Q 2153 2331 2364 2431 
Q 2575 2531 2687 2712 
Q 2800 2894 2800 3175 
Q 2800 3456 2689 3636 
Q 2578 3816 2372 3909 
Q 2166 4003 1709 4000 
L 1709 2331 
z
M 1709 2088 
L 1709 728 
L 1706 572 
Q 1706 403 1792 317 
Q 1878 231 2047 231 
Q 2297 231 2508 342 
Q 2719 453 2831 664 
Q 2944 875 2944 1134 
Q 2944 1431 2806 1667 
Q 2669 1903 2428 1997 
Q 2188 2091 1709 2088 
z
" transform="scale(0.015625)"/>
       <path id="TimesNewRomanPS-BoldMT-75" d="M 3038 2922 
L 3038 634 
Q 3038 300 3100 217 
Q 3163 134 3353 113 
L 3353 0 
L 2163 0 
L 2163 391 
Q 1953 141 1743 26 
Q 1534 -88 1275 -88 
Q 1028 -88 836 64 
Q 644 216 578 419 
Q 513 622 513 1128 
L 513 2288 
Q 513 2619 452 2700 
Q 391 2781 197 2806 
L 197 2922 
L 1388 2922 
L 1388 925 
Q 1388 613 1417 522 
Q 1447 431 1511 384 
Q 1575 338 1659 338 
Q 1772 338 1863 397 
Q 1988 478 2163 725 
L 2163 2288 
Q 2163 2619 2102 2700 
Q 2041 2781 1847 2806 
L 1847 2922 
L 3038 2922 
z
" transform="scale(0.015625)"/>
       <path id="TimesNewRomanPS-BoldMT-73" d="M 2063 3003 
L 2109 2006 
L 2003 2006 
Q 1813 2450 1608 2612 
Q 1403 2775 1200 2775 
Q 1072 2775 981 2689 
Q 891 2603 891 2491 
Q 891 2406 953 2328 
Q 1053 2200 1512 1889 
Q 1972 1578 2117 1361 
Q 2263 1144 2263 875 
Q 2263 631 2141 397 
Q 2019 163 1797 37 
Q 1575 -88 1306 -88 
Q 1097 -88 747 44 
Q 653 78 619 78 
Q 516 78 447 -78 
L 344 -78 
L 294 972 
L 400 972 
Q 541 559 786 353 
Q 1031 147 1250 147 
Q 1400 147 1495 239 
Q 1591 331 1591 463 
Q 1591 613 1497 722 
Q 1403 831 1078 1053 
Q 600 1384 459 1559 
Q 253 1816 253 2125 
Q 253 2463 486 2736 
Q 719 3009 1159 3009 
Q 1397 3009 1619 2894 
Q 1703 2847 1756 2847 
Q 1813 2847 1847 2870 
Q 1881 2894 1956 3003 
L 2063 3003 
z
" transform="scale(0.015625)"/>
       <path id="TimesNewRomanPS-BoldMT-20" transform="scale(0.015625)"/>
       <path id="TimesNewRomanPS-BoldMT-53" d="M 3006 4334 
L 3041 2922 
L 2913 2922 
Q 2822 3453 2467 3776 
Q 2113 4100 1700 4100 
Q 1381 4100 1195 3929 
Q 1009 3759 1009 3538 
Q 1009 3397 1075 3288 
Q 1166 3141 1366 2997 
Q 1513 2894 2044 2631 
Q 2788 2266 3047 1941 
Q 3303 1616 3303 1197 
Q 3303 666 2889 283 
Q 2475 -100 1838 -100 
Q 1638 -100 1459 -59 
Q 1281 -19 1013 94 
Q 863 156 766 156 
Q 684 156 593 93 
Q 503 31 447 -97 
L 331 -97 
L 331 1503 
L 447 1503 
Q 584 828 976 473 
Q 1369 119 1822 119 
Q 2172 119 2380 309 
Q 2588 500 2588 753 
Q 2588 903 2508 1043 
Q 2428 1184 2265 1311 
Q 2103 1438 1691 1641 
Q 1113 1925 859 2125 
Q 606 2325 470 2572 
Q 334 2819 334 3116 
Q 334 3622 706 3978 
Q 1078 4334 1644 4334 
Q 1850 4334 2044 4284 
Q 2191 4247 2402 4145 
Q 2613 4044 2697 4044 
Q 2778 4044 2825 4094 
Q 2872 4144 2913 4334 
L 3006 4334 
z
" transform="scale(0.015625)"/>
       <path id="TimesNewRomanPS-BoldMT-74" d="M 1375 3991 
L 1375 2922 
L 2069 2922 
L 2069 2613 
L 1375 2613 
L 1375 809 
Q 1375 556 1398 482 
Q 1422 409 1481 364 
Q 1541 319 1591 319 
Q 1794 319 1975 628 
L 2069 559 
Q 1816 -41 1247 -41 
Q 969 -41 776 114 
Q 584 269 531 459 
Q 500 566 500 1034 
L 500 2613 
L 119 2613 
L 119 2722 
Q 513 3000 789 3306 
Q 1066 3613 1272 3991 
L 1375 3991 
z
" transform="scale(0.015625)"/>
       <path id="TimesNewRomanPS-BoldMT-61" d="M 1828 431 
Q 1294 -41 869 -41 
Q 619 -41 453 123 
Q 288 288 288 534 
Q 288 869 575 1136 
Q 863 1403 1828 1847 
L 1828 2141 
Q 1828 2472 1792 2558 
Q 1756 2644 1656 2708 
Q 1556 2772 1431 2772 
Q 1228 2772 1097 2681 
Q 1016 2625 1016 2550 
Q 1016 2484 1103 2388 
Q 1222 2253 1222 2128 
Q 1222 1975 1108 1867 
Q 994 1759 809 1759 
Q 613 1759 480 1878 
Q 347 1997 347 2156 
Q 347 2381 525 2586 
Q 703 2791 1022 2900 
Q 1341 3009 1684 3009 
Q 2100 3009 2342 2832 
Q 2584 2656 2656 2450 
Q 2700 2319 2700 1847 
L 2700 713 
Q 2700 513 2715 461 
Q 2731 409 2762 384 
Q 2794 359 2834 359 
Q 2916 359 3000 475 
L 3094 400 
Q 2938 169 2770 64 
Q 2603 -41 2391 -41 
Q 2141 -41 2000 76 
Q 1859 194 1828 431 
z
M 1828 659 
L 1828 1638 
Q 1450 1416 1266 1163 
Q 1144 994 1144 822 
Q 1144 678 1247 569 
Q 1325 484 1466 484 
Q 1622 484 1828 659 
z
" transform="scale(0.015625)"/>
       <path id="TimesNewRomanPS-BoldMT-69" d="M 919 4338 
Q 1122 4338 1262 4195 
Q 1403 4053 1403 3853 
Q 1403 3653 1261 3512 
Q 1119 3372 919 3372 
Q 719 3372 578 3512 
Q 438 3653 438 3853 
Q 438 4053 578 4195 
Q 719 4338 919 4338 
z
M 1356 2922 
L 1356 606 
Q 1356 297 1428 211 
Q 1500 125 1709 113 
L 1709 0 
L 131 0 
L 131 113 
Q 325 119 419 225 
Q 481 297 481 606 
L 481 2313 
Q 481 2622 409 2708 
Q 338 2794 131 2806 
L 131 2922 
L 1356 2922 
z
" transform="scale(0.015625)"/>
       <path id="TimesNewRomanPS-BoldMT-6f" d="M 1594 3009 
Q 1975 3009 2303 2812 
Q 2631 2616 2801 2253 
Q 2972 1891 2972 1459 
Q 2972 838 2656 419 
Q 2275 -88 1603 -88 
Q 944 -88 587 375 
Q 231 838 231 1447 
Q 231 2075 595 2542 
Q 959 3009 1594 3009 
z
M 1606 2788 
Q 1447 2788 1333 2667 
Q 1219 2547 1183 2192 
Q 1147 1838 1147 1206 
Q 1147 872 1191 581 
Q 1225 359 1337 243 
Q 1450 128 1594 128 
Q 1734 128 1828 206 
Q 1950 313 1991 503 
Q 2053 800 2053 1703 
Q 2053 2234 1993 2432 
Q 1934 2631 1819 2722 
Q 1738 2788 1606 2788 
z
" transform="scale(0.015625)"/>
       <path id="TimesNewRomanPS-BoldMT-6e" d="M 1409 2922 
L 1409 2544 
Q 1634 2788 1840 2898 
Q 2047 3009 2284 3009 
Q 2569 3009 2756 2851 
Q 2944 2694 3006 2459 
Q 3056 2281 3056 1775 
L 3056 638 
Q 3056 300 3117 217 
Q 3178 134 3372 113 
L 3372 0 
L 1894 0 
L 1894 113 
Q 2059 134 2131 250 
Q 2181 328 2181 638 
L 2181 1938 
Q 2181 2297 2153 2390 
Q 2125 2484 2058 2536 
Q 1991 2588 1909 2588 
Q 1641 2588 1409 2203 
L 1409 638 
Q 1409 309 1470 221 
Q 1531 134 1697 113 
L 1697 0 
L 219 0 
L 219 113 
Q 403 131 481 231 
Q 534 300 534 638 
L 534 2288 
Q 534 2619 473 2700 
Q 413 2781 219 2806 
L 219 2922 
L 1409 2922 
z
" transform="scale(0.015625)"/>
      </defs>
      <use xlink:href="#TimesNewRomanPS-BoldMT-42"/>
      <use xlink:href="#TimesNewRomanPS-BoldMT-75" x="66.699219"/>
      <use xlink:href="#TimesNewRomanPS-BoldMT-73" x="122.314453"/>
      <use xlink:href="#TimesNewRomanPS-BoldMT-20" x="161.230469"/>
      <use xlink:href="#TimesNewRomanPS-BoldMT-53" x="186.230469"/>
      <use xlink:href="#TimesNewRomanPS-BoldMT-74" x="241.845703"/>
      <use xlink:href="#TimesNewRomanPS-BoldMT-61" x="275.146484"/>
      <use xlink:href="#TimesNewRomanPS-BoldMT-74" x="325.146484"/>
      <use xlink:href="#TimesNewRomanPS-BoldMT-69" x="358.447266"/>
      <use xlink:href="#TimesNewRomanPS-BoldMT-6f" x="386.230469"/>
      <use xlink:href="#TimesNewRomanPS-BoldMT-6e" x="436.230469"/>
      <use xlink:href="#TimesNewRomanPS-BoldMT-73" x="491.845703"/>
     </g>
    </g>
   </g>
   <g id="matplotlib.axis_2">
    <g id="ytick_1">
     <g id="line2d_26">
      <defs>
       <path id="m4ea53c3ed1" d="M 3 0 
L -3 -0 
" style="stroke: #262626; stroke-width: 1.5"/>
      </defs>
      <g>
       <use xlink:href="#m4ea53c3ed1" x="45.841406" y="276.897273" style="fill: #262626; stroke: #262626; stroke-width: 1.5"/>
      </g>
     </g>
     <g id="text_27">
      <!-- 0 -->
      <g style="fill: #262626" transform="translate(31.841406 281.863679)scale(0.15 -0.15)">
       <use xlink:href="#TimesNewRomanPS-BoldMT-30"/>
      </g>
     </g>
    </g>
    <g id="ytick_2">
     <g id="line2d_27">
      <g>
       <use xlink:href="#m4ea53c3ed1" x="45.841406" y="240.203766" style="fill: #262626; stroke: #262626; stroke-width: 1.5"/>
      </g>
     </g>
     <g id="text_28">
      <!-- 10 -->
      <g style="fill: #262626" transform="translate(24.341406 245.170172)scale(0.15 -0.15)">
       <use xlink:href="#TimesNewRomanPS-BoldMT-31"/>
       <use xlink:href="#TimesNewRomanPS-BoldMT-30" x="50"/>
      </g>
     </g>
    </g>
    <g id="ytick_3">
     <g id="line2d_28">
      <g>
       <use xlink:href="#m4ea53c3ed1" x="45.841406" y="203.51026" style="fill: #262626; stroke: #262626; stroke-width: 1.5"/>
      </g>
     </g>
     <g id="text_29">
      <!-- 20 -->
      <g style="fill: #262626" transform="translate(24.341406 208.476666)scale(0.15 -0.15)">
       <use xlink:href="#TimesNewRomanPS-BoldMT-32"/>
       <use xlink:href="#TimesNewRomanPS-BoldMT-30" x="50"/>
      </g>
     </g>
    </g>
    <g id="ytick_4">
     <g id="line2d_29">
      <g>
       <use xlink:href="#m4ea53c3ed1" x="45.841406" y="166.816753" style="fill: #262626; stroke: #262626; stroke-width: 1.5"/>
      </g>
     </g>
     <g id="text_30">
      <!-- 30 -->
      <g style="fill: #262626" transform="translate(24.341406 171.783159)scale(0.15 -0.15)">
       <use xlink:href="#TimesNewRomanPS-BoldMT-33"/>
       <use xlink:href="#TimesNewRomanPS-BoldMT-30" x="50"/>
      </g>
     </g>
    </g>
    <g id="ytick_5">
     <g id="line2d_30">
      <g>
       <use xlink:href="#m4ea53c3ed1" x="45.841406" y="130.123247" style="fill: #262626; stroke: #262626; stroke-width: 1.5"/>
      </g>
     </g>
     <g id="text_31">
      <!-- 40 -->
      <g style="fill: #262626" transform="translate(24.341406 135.089653)scale(0.15 -0.15)">
       <use xlink:href="#TimesNewRomanPS-BoldMT-34"/>
       <use xlink:href="#TimesNewRomanPS-BoldMT-30" x="50"/>
      </g>
     </g>
    </g>
    <g id="ytick_6">
     <g id="line2d_31">
      <g>
       <use xlink:href="#m4ea53c3ed1" x="45.841406" y="93.42974" style="fill: #262626; stroke: #262626; stroke-width: 1.5"/>
      </g>
     </g>
     <g id="text_32">
      <!-- 50 -->
      <g style="fill: #262626" transform="translate(24.341406 98.396147)scale(0.15 -0.15)">
       <use xlink:href="#TimesNewRomanPS-BoldMT-35"/>
       <use xlink:href="#TimesNewRomanPS-BoldMT-30" x="50"/>
      </g>
     </g>
    </g>
    <g id="ytick_7">
     <g id="line2d_32">
      <g>
       <use xlink:href="#m4ea53c3ed1" x="45.841406" y="56.736234" style="fill: #262626; stroke: #262626; stroke-width: 1.5"/>
      </g>
     </g>
     <g id="text_33">
      <!-- 60 -->
      <g style="fill: #262626" transform="translate(24.341406 61.70264)scale(0.15 -0.15)">
       <use xlink:href="#TimesNewRomanPS-BoldMT-36"/>
       <use xlink:href="#TimesNewRomanPS-BoldMT-30" x="50"/>
      </g>
     </g>
    </g>
    <g id="ytick_8">
     <g id="line2d_33">
      <g>
       <use xlink:href="#m4ea53c3ed1" x="45.841406" y="20.042727" style="fill: #262626; stroke: #262626; stroke-width: 1.5"/>
      </g>
     </g>
     <g id="text_34">
      <!-- 70 -->
      <g style="fill: #262626" transform="translate(24.341406 25.009134)scale(0.15 -0.15)">
       <use xlink:href="#TimesNewRomanPS-BoldMT-37"/>
       <use xlink:href="#TimesNewRomanPS-BoldMT-30" x="50"/>
      </g>
     </g>
    </g>
    <g id="text_35">
     <!-- Load -->
     <g style="fill: #262626" transform="translate(17.132813 165.143437)rotate(-90)scale(0.15 -0.15)">
      <defs>
       <path id="TimesNewRomanPS-BoldMT-4c" d="M 4041 1488 
L 3881 0 
L 119 0 
L 119 116 
L 259 116 
Q 444 116 556 181 
Q 638 225 681 331 
Q 716 406 716 725 
L 716 3513 
Q 716 3838 681 3919 
Q 647 4000 542 4061 
Q 438 4122 259 4122 
L 119 4122 
L 119 4238 
L 2378 4238 
L 2378 4122 
L 2194 4122 
Q 2009 4122 1897 4056 
Q 1816 4013 1769 3906 
Q 1734 3831 1734 3513 
L 1734 813 
Q 1734 488 1771 398 
Q 1809 309 1919 266 
Q 1997 238 2297 238 
L 2650 238 
Q 2988 238 3213 356 
Q 3438 475 3602 731 
Q 3766 988 3913 1488 
L 4041 1488 
z
" transform="scale(0.015625)"/>
       <path id="TimesNewRomanPS-BoldMT-64" d="M 3056 4238 
L 3056 875 
Q 3056 534 3075 472 
Q 3100 369 3170 319 
Q 3241 269 3416 256 
L 3416 153 
L 2181 -88 
L 2181 375 
Q 1959 106 1786 9 
Q 1613 -88 1394 -88 
Q 834 -88 509 413 
Q 247 819 247 1409 
Q 247 1881 409 2254 
Q 572 2628 855 2818 
Q 1138 3009 1463 3009 
Q 1672 3009 1834 2928 
Q 1997 2847 2181 2644 
L 2181 3525 
Q 2181 3859 2153 3928 
Q 2116 4019 2041 4062 
Q 1966 4106 1759 4106 
L 1759 4238 
L 3056 4238 
z
M 2181 2256 
Q 1950 2700 1616 2700 
Q 1500 2700 1425 2638 
Q 1309 2541 1236 2297 
Q 1163 2053 1163 1550 
Q 1163 997 1244 731 
Q 1325 466 1466 347 
Q 1538 288 1663 288 
Q 1938 288 2181 719 
L 2181 2256 
z
" transform="scale(0.015625)"/>
      </defs>
      <use xlink:href="#TimesNewRomanPS-BoldMT-4c"/>
      <use xlink:href="#TimesNewRomanPS-BoldMT-6f" x="66.699219"/>
      <use xlink:href="#TimesNewRomanPS-BoldMT-61" x="116.699219"/>
      <use xlink:href="#TimesNewRomanPS-BoldMT-64" x="166.699219"/>
     </g>
    </g>
   </g>
   <g id="line2d_34">
    <path d="M 59.001588 276.897273 
L 69.968406 270.292442 
L 80.935224 263.039163 
L 91.902043 255.851364 
L 102.868861 246.598086 
L 113.835679 240.426086 
L 124.802497 238.287156 
L 135.769315 228.869244 
L 146.736134 217.062577 
L 157.702952 208.695436 
L 168.66977 198.145176 
L 179.636588 184.539839 
L 190.603406 172.676953 
L 201.570224 151.620437 
L 212.537043 153.226874 
L 223.503861 144.984706 
L 234.470679 140.895981 
L 245.437497 147.499269 
L 256.404315 159.434667 
L 267.371134 169.393984 
L 278.337952 182.044582 
L 289.30477 196.175988 
L 300.271588 211.875006 
L 311.238406 229.387031 
L 322.205224 248.206513 
" clip-path="url(#pf1a92e930a)" style="fill: none; stroke: #7b113a; stroke-width: 2.5; stroke-linecap: round"/>
    <defs>
     <path id="mf489784268" d="M 0 1.5 
C 0.397805 1.5 0.77937 1.341951 1.06066 1.06066 
C 1.341951 0.77937 1.5 0.397805 1.5 0 
C 1.5 -0.397805 1.341951 -0.77937 1.06066 -1.06066 
C 0.77937 -1.341951 0.397805 -1.5 0 -1.5 
C -0.397805 -1.5 -0.77937 -1.341951 -1.06066 -1.06066 
C -1.341951 -0.77937 -1.5 -0.397805 -1.5 0 
C -1.5 0.397805 -1.341951 0.77937 -1.06066 1.06066 
C -0.77937 1.341951 -0.397805 1.5 0 1.5 
z
" style="stroke: #7b113a"/>
    </defs>
    <g clip-path="url(#pf1a92e930a)">
     <use xlink:href="#mf489784268" x="59.001588" y="276.897273" style="fill: #7b113a; stroke: #7b113a"/>
     <use xlink:href="#mf489784268" x="69.968406" y="270.292442" style="fill: #7b113a; stroke: #7b113a"/>
     <use xlink:href="#mf489784268" x="80.935224" y="263.039163" style="fill: #7b113a; stroke: #7b113a"/>
     <use xlink:href="#mf489784268" x="91.902043" y="255.851364" style="fill: #7b113a; stroke: #7b113a"/>
     <use xlink:href="#mf489784268" x="102.868861" y="246.598086" style="fill: #7b113a; stroke: #7b113a"/>
     <use xlink:href="#mf489784268" x="113.835679" y="240.426086" style="fill: #7b113a; stroke: #7b113a"/>
     <use xlink:href="#mf489784268" x="124.802497" y="238.287156" style="fill: #7b113a; stroke: #7b113a"/>
     <use xlink:href="#mf489784268" x="135.769315" y="228.869244" style="fill: #7b113a; stroke: #7b113a"/>
     <use xlink:href="#mf489784268" x="146.736134" y="217.062577" style="fill: #7b113a; stroke: #7b113a"/>
     <use xlink:href="#mf489784268" x="157.702952" y="208.695436" style="fill: #7b113a; stroke: #7b113a"/>
     <use xlink:href="#mf489784268" x="168.66977" y="198.145176" style="fill: #7b113a; stroke: #7b113a"/>
     <use xlink:href="#mf489784268" x="179.636588" y="184.539839" style="fill: #7b113a; stroke: #7b113a"/>
     <use xlink:href="#mf489784268" x="190.603406" y="172.676953" style="fill: #7b113a; stroke: #7b113a"/>
     <use xlink:href="#mf489784268" x="201.570224" y="151.620437" style="fill: #7b113a; stroke: #7b113a"/>
     <use xlink:href="#mf489784268" x="212.537043" y="153.226874" style="fill: #7b113a; stroke: #7b113a"/>
     <use xlink:href="#mf489784268" x="223.503861" y="144.984706" style="fill: #7b113a; stroke: #7b113a"/>
     <use xlink:href="#mf489784268" x="234.470679" y="140.895981" style="fill: #7b113a; stroke: #7b113a"/>
     <use xlink:href="#mf489784268" x="245.437497" y="147.499269" style="fill: #7b113a; stroke: #7b113a"/>
     <use xlink:href="#mf489784268" x="256.404315" y="159.434667" style="fill: #7b113a; stroke: #7b113a"/>
     <use xlink:href="#mf489784268" x="267.371134" y="169.393984" style="fill: #7b113a; stroke: #7b113a"/>
     <use xlink:href="#mf489784268" x="278.337952" y="182.044582" style="fill: #7b113a; stroke: #7b113a"/>
     <use xlink:href="#mf489784268" x="289.30477" y="196.175988" style="fill: #7b113a; stroke: #7b113a"/>
     <use xlink:href="#mf489784268" x="300.271588" y="211.875006" style="fill: #7b113a; stroke: #7b113a"/>
     <use xlink:href="#mf489784268" x="311.238406" y="229.387031" style="fill: #7b113a; stroke: #7b113a"/>
     <use xlink:href="#mf489784268" x="322.205224" y="248.206513" style="fill: #7b113a; stroke: #7b113a"/>
    </g>
   </g>
   <g id="line2d_35">
    <path d="M 59.001588 276.897273 
L 69.968406 263.68761 
L 80.935224 248.99696 
L 91.902043 234.220143 
L 102.868861 214.807192 
L 113.835679 201.558312 
L 124.802497 196.741525 
L 135.769315 175.768912 
L 146.736134 148.576315 
L 157.702952 128.329105 
L 168.66977 101.816197 
L 179.636588 65.964738 
L 190.603406 32.221342 
L 201.570224 20.042727 
L 212.537043 20.042727 
L 223.503861 20.042727 
L 234.470679 20.042727 
L 245.437497 21.092028 
L 256.404315 36.811328 
L 267.371134 47.202617 
L 278.337952 66.323014 
L 289.30477 90.978021 
L 300.271588 121.623405 
L 311.238406 159.125774 
L 322.205224 201.929318 
" clip-path="url(#pf1a92e930a)" style="fill: none; stroke-dasharray: 9.25,4; stroke-dashoffset: 0; stroke: #150e56; stroke-width: 2.5"/>
    <defs>
     <path id="m048d7dc441" d="M 0 -3 
L -3 3 
L 3 3 
z
" style="stroke: #150e56; stroke-linejoin: miter"/>
    </defs>
    <g clip-path="url(#pf1a92e930a)">
     <use xlink:href="#m048d7dc441" x="59.001588" y="276.897273" style="fill: #150e56; stroke: #150e56; stroke-linejoin: miter"/>
     <use xlink:href="#m048d7dc441" x="69.968406" y="263.68761" style="fill: #150e56; stroke: #150e56; stroke-linejoin: miter"/>
     <use xlink:href="#m048d7dc441" x="80.935224" y="248.99696" style="fill: #150e56; stroke: #150e56; stroke-linejoin: miter"/>
     <use xlink:href="#m048d7dc441" x="91.902043" y="234.220143" style="fill: #150e56; stroke: #150e56; stroke-linejoin: miter"/>
     <use xlink:href="#m048d7dc441" x="102.868861" y="214.807192" style="fill: #150e56; stroke: #150e56; stroke-linejoin: miter"/>
     <use xlink:href="#m048d7dc441" x="113.835679" y="201.558312" style="fill: #150e56; stroke: #150e56; stroke-linejoin: miter"/>
     <use xlink:href="#m048d7dc441" x="124.802497" y="196.741525" style="fill: #150e56; stroke: #150e56; stroke-linejoin: miter"/>
     <use xlink:href="#m048d7dc441" x="135.769315" y="175.768912" style="fill: #150e56; stroke: #150e56; stroke-linejoin: miter"/>
     <use xlink:href="#m048d7dc441" x="146.736134" y="148.576315" style="fill: #150e56; stroke: #150e56; stroke-linejoin: miter"/>
     <use xlink:href="#m048d7dc441" x="157.702952" y="128.329105" style="fill: #150e56; stroke: #150e56; stroke-linejoin: miter"/>
     <use xlink:href="#m048d7dc441" x="168.66977" y="101.816197" style="fill: #150e56; stroke: #150e56; stroke-linejoin: miter"/>
     <use xlink:href="#m048d7dc441" x="179.636588" y="65.964738" style="fill: #150e56; stroke: #150e56; stroke-linejoin: miter"/>
     <use xlink:href="#m048d7dc441" x="190.603406" y="32.221342" style="fill: #150e56; stroke: #150e56; stroke-linejoin: miter"/>
     <use xlink:href="#m048d7dc441" x="201.570224" y="20.042727" style="fill: #150e56; stroke: #150e56; stroke-linejoin: miter"/>
     <use xlink:href="#m048d7dc441" x="212.537043" y="20.042727" style="fill: #150e56; stroke: #150e56; stroke-linejoin: miter"/>
     <use xlink:href="#m048d7dc441" x="223.503861" y="20.042727" style="fill: #150e56; stroke: #150e56; stroke-linejoin: miter"/>
     <use xlink:href="#m048d7dc441" x="234.470679" y="20.042727" style="fill: #150e56; stroke: #150e56; stroke-linejoin: miter"/>
     <use xlink:href="#m048d7dc441" x="245.437497" y="21.092028" style="fill: #150e56; stroke: #150e56; stroke-linejoin: miter"/>
     <use xlink:href="#m048d7dc441" x="256.404315" y="36.811328" style="fill: #150e56; stroke: #150e56; stroke-linejoin: miter"/>
     <use xlink:href="#m048d7dc441" x="267.371134" y="47.202617" style="fill: #150e56; stroke: #150e56; stroke-linejoin: miter"/>
     <use xlink:href="#m048d7dc441" x="278.337952" y="66.323014" style="fill: #150e56; stroke: #150e56; stroke-linejoin: miter"/>
     <use xlink:href="#m048d7dc441" x="289.30477" y="90.978021" style="fill: #150e56; stroke: #150e56; stroke-linejoin: miter"/>
     <use xlink:href="#m048d7dc441" x="300.271588" y="121.623405" style="fill: #150e56; stroke: #150e56; stroke-linejoin: miter"/>
     <use xlink:href="#m048d7dc441" x="311.238406" y="159.125774" style="fill: #150e56; stroke: #150e56; stroke-linejoin: miter"/>
     <use xlink:href="#m048d7dc441" x="322.205224" y="201.929318" style="fill: #150e56; stroke: #150e56; stroke-linejoin: miter"/>
    </g>
   </g>
   <g id="line2d_36">
    <path d="M 59.001588 276.897273 
L 69.968406 263.68761 
L 80.935224 249.185452 
L 91.902043 234.824996 
L 102.868861 216.37108 
L 113.835679 204.094033 
L 124.802497 199.863337 
L 135.769315 181.257722 
L 146.736134 158.145821 
L 157.702952 142.012953 
L 168.66977 122.028668 
L 179.636588 96.992046 
L 190.603406 76.300553 
L 201.570224 20.042727 
L 212.537043 20.417456 
L 223.503861 20.042727 
L 234.470679 20.042727 
L 245.437497 32.57904 
L 256.404315 55.257651 
L 267.371134 74.44055 
L 278.337952 98.79194 
L 289.30477 125.96196 
L 300.271588 155.988942 
L 311.238406 189.190621 
L 322.205224 224.618078 
" clip-path="url(#pf1a92e930a)" style="fill: none; stroke-dasharray: 16,4,2.5,4; stroke-dashoffset: 0; stroke: #1597bb; stroke-width: 2.5"/>
    <defs>
     <path id="m8a346592d8" d="M 0 0 
L 0 3 
M 0 0 
L 2.4 -1.5 
M 0 0 
L -2.4 -1.5 
" style="stroke: #1597bb"/>
    </defs>
    <g clip-path="url(#pf1a92e930a)">
     <use xlink:href="#m8a346592d8" x="59.001588" y="276.897273" style="fill: #1597bb; stroke: #1597bb"/>
     <use xlink:href="#m8a346592d8" x="69.968406" y="263.68761" style="fill: #1597bb; stroke: #1597bb"/>
     <use xlink:href="#m8a346592d8" x="80.935224" y="249.185452" style="fill: #1597bb; stroke: #1597bb"/>
     <use xlink:href="#m8a346592d8" x="91.902043" y="234.824996" style="fill: #1597bb; stroke: #1597bb"/>
     <use xlink:href="#m8a346592d8" x="102.868861" y="216.37108" style="fill: #1597bb; stroke: #1597bb"/>
     <use xlink:href="#m8a346592d8" x="113.835679" y="204.094033" style="fill: #1597bb; stroke: #1597bb"/>
     <use xlink:href="#m8a346592d8" x="124.802497" y="199.863337" style="fill: #1597bb; stroke: #1597bb"/>
     <use xlink:href="#m8a346592d8" x="135.769315" y="181.257722" style="fill: #1597bb; stroke: #1597bb"/>
     <use xlink:href="#m8a346592d8" x="146.736134" y="158.145821" style="fill: #1597bb; stroke: #1597bb"/>
     <use xlink:href="#m8a346592d8" x="157.702952" y="142.012953" style="fill: #1597bb; stroke: #1597bb"/>
     <use xlink:href="#m8a346592d8" x="168.66977" y="122.028668" style="fill: #1597bb; stroke: #1597bb"/>
     <use xlink:href="#m8a346592d8" x="179.636588" y="96.992046" style="fill: #1597bb; stroke: #1597bb"/>
     <use xlink:href="#m8a346592d8" x="190.603406" y="76.300553" style="fill: #1597bb; stroke: #1597bb"/>
     <use xlink:href="#m8a346592d8" x="201.570224" y="20.042727" style="fill: #1597bb; stroke: #1597bb"/>
     <use xlink:href="#m8a346592d8" x="212.537043" y="20.417456" style="fill: #1597bb; stroke: #1597bb"/>
     <use xlink:href="#m8a346592d8" x="223.503861" y="20.042727" style="fill: #1597bb; stroke: #1597bb"/>
     <use xlink:href="#m8a346592d8" x="234.470679" y="20.042727" style="fill: #1597bb; stroke: #1597bb"/>
     <use xlink:href="#m8a346592d8" x="245.437497" y="32.57904" style="fill: #1597bb; stroke: #1597bb"/>
     <use xlink:href="#m8a346592d8" x="256.404315" y="55.257651" style="fill: #1597bb; stroke: #1597bb"/>
     <use xlink:href="#m8a346592d8" x="267.371134" y="74.44055" style="fill: #1597bb; stroke: #1597bb"/>
     <use xlink:href="#m8a346592d8" x="278.337952" y="98.79194" style="fill: #1597bb; stroke: #1597bb"/>
     <use xlink:href="#m8a346592d8" x="289.30477" y="125.96196" style="fill: #1597bb; stroke: #1597bb"/>
     <use xlink:href="#m8a346592d8" x="300.271588" y="155.988942" style="fill: #1597bb; stroke: #1597bb"/>
     <use xlink:href="#m8a346592d8" x="311.238406" y="189.190621" style="fill: #1597bb; stroke: #1597bb"/>
     <use xlink:href="#m8a346592d8" x="322.205224" y="224.618078" style="fill: #1597bb; stroke: #1597bb"/>
    </g>
   </g>
   <g id="line2d_37">
    <path d="M 59.001588 276.897273 
L 69.968406 263.68761 
L 80.935224 249.180948 
L 91.902043 234.804845 
L 102.868861 216.295763 
L 113.835679 203.9479 
L 124.802497 199.667008 
L 135.769315 180.812783 
L 146.736134 157.14817 
L 157.702952 140.341167 
L 168.66977 119.080255 
L 179.636588 91.492072 
L 190.603406 67.145991 
L 201.570224 20.042727 
L 212.537043 23.918823 
L 223.503861 20.042727 
L 234.470679 20.042727 
L 245.437497 31.356864 
L 256.404315 53.119078 
L 267.371134 70.850837 
L 278.337952 94.091407 
L 289.30477 120.460846 
L 300.271588 150.169609 
L 311.238406 183.73704 
L 322.205224 220.134556 
" clip-path="url(#pf1a92e930a)" style="fill: none; stroke-dasharray: 2.5,4.125; stroke-dashoffset: 0; stroke: #8fd6e1; stroke-width: 2.5"/>
    <defs>
     <path id="m5bb45f7ffd" d="M -3 3 
L 3 3 
L 3 -3 
L -3 -3 
z
" style="stroke: #8fd6e1; stroke-linejoin: miter"/>
    </defs>
    <g clip-path="url(#pf1a92e930a)">
     <use xlink:href="#m5bb45f7ffd" x="59.001588" y="276.897273" style="fill: #8fd6e1; stroke: #8fd6e1; stroke-linejoin: miter"/>
     <use xlink:href="#m5bb45f7ffd" x="69.968406" y="263.68761" style="fill: #8fd6e1; stroke: #8fd6e1; stroke-linejoin: miter"/>
     <use xlink:href="#m5bb45f7ffd" x="80.935224" y="249.180948" style="fill: #8fd6e1; stroke: #8fd6e1; stroke-linejoin: miter"/>
     <use xlink:href="#m5bb45f7ffd" x="91.902043" y="234.804845" style="fill: #8fd6e1; stroke: #8fd6e1; stroke-linejoin: miter"/>
     <use xlink:href="#m5bb45f7ffd" x="102.868861" y="216.295763" style="fill: #8fd6e1; stroke: #8fd6e1; stroke-linejoin: miter"/>
     <use xlink:href="#m5bb45f7ffd" x="113.835679" y="203.9479" style="fill: #8fd6e1; stroke: #8fd6e1; stroke-linejoin: miter"/>
     <use xlink:href="#m5bb45f7ffd" x="124.802497" y="199.667008" style="fill: #8fd6e1; stroke: #8fd6e1; stroke-linejoin: miter"/>
     <use xlink:href="#m5bb45f7ffd" x="135.769315" y="180.812783" style="fill: #8fd6e1; stroke: #8fd6e1; stroke-linejoin: miter"/>
     <use xlink:href="#m5bb45f7ffd" x="146.736134" y="157.14817" style="fill: #8fd6e1; stroke: #8fd6e1; stroke-linejoin: miter"/>
     <use xlink:href="#m5bb45f7ffd" x="157.702952" y="140.341167" style="fill: #8fd6e1; stroke: #8fd6e1; stroke-linejoin: miter"/>
     <use xlink:href="#m5bb45f7ffd" x="168.66977" y="119.080255" style="fill: #8fd6e1; stroke: #8fd6e1; stroke-linejoin: miter"/>
     <use xlink:href="#m5bb45f7ffd" x="179.636588" y="91.492072" style="fill: #8fd6e1; stroke: #8fd6e1; stroke-linejoin: miter"/>
     <use xlink:href="#m5bb45f7ffd" x="190.603406" y="67.145991" style="fill: #8fd6e1; stroke: #8fd6e1; stroke-linejoin: miter"/>
     <use xlink:href="#m5bb45f7ffd" x="201.570224" y="20.042727" style="fill: #8fd6e1; stroke: #8fd6e1; stroke-linejoin: miter"/>
     <use xlink:href="#m5bb45f7ffd" x="212.537043" y="23.918823" style="fill: #8fd6e1; stroke: #8fd6e1; stroke-linejoin: miter"/>
     <use xlink:href="#m5bb45f7ffd" x="223.503861" y="20.042727" style="fill: #8fd6e1; stroke: #8fd6e1; stroke-linejoin: miter"/>
     <use xlink:href="#m5bb45f7ffd" x="234.470679" y="20.042727" style="fill: #8fd6e1; stroke: #8fd6e1; stroke-linejoin: miter"/>
     <use xlink:href="#m5bb45f7ffd" x="245.437497" y="31.356864" style="fill: #8fd6e1; stroke: #8fd6e1; stroke-linejoin: miter"/>
     <use xlink:href="#m5bb45f7ffd" x="256.404315" y="53.119078" style="fill: #8fd6e1; stroke: #8fd6e1; stroke-linejoin: miter"/>
     <use xlink:href="#m5bb45f7ffd" x="267.371134" y="70.850837" style="fill: #8fd6e1; stroke: #8fd6e1; stroke-linejoin: miter"/>
     <use xlink:href="#m5bb45f7ffd" x="278.337952" y="94.091407" style="fill: #8fd6e1; stroke: #8fd6e1; stroke-linejoin: miter"/>
     <use xlink:href="#m5bb45f7ffd" x="289.30477" y="120.460846" style="fill: #8fd6e1; stroke: #8fd6e1; stroke-linejoin: miter"/>
     <use xlink:href="#m5bb45f7ffd" x="300.271588" y="150.169609" style="fill: #8fd6e1; stroke: #8fd6e1; stroke-linejoin: miter"/>
     <use xlink:href="#m5bb45f7ffd" x="311.238406" y="183.73704" style="fill: #8fd6e1; stroke: #8fd6e1; stroke-linejoin: miter"/>
     <use xlink:href="#m5bb45f7ffd" x="322.205224" y="220.134556" style="fill: #8fd6e1; stroke: #8fd6e1; stroke-linejoin: miter"/>
    </g>
   </g>
   <g id="line2d_38">
    <path d="M 59.001588 276.897273 
L 69.968406 263.68761 
L 80.935224 249.181056 
L 91.902043 234.805473 
L 102.868861 216.299026 
L 113.835679 203.95522 
L 124.802497 199.677524 
L 135.769315 180.842937 
L 146.736134 157.23397 
L 157.702952 140.506864 
L 168.66977 119.42497 
L 179.636588 92.266962 
L 190.603406 68.641852 
L 201.570224 20.042727 
L 212.537043 23.844078 
L 223.503861 20.042727 
L 234.470679 20.042727 
L 245.437497 31.505255 
L 256.404315 53.380886 
L 267.371134 71.305212 
L 278.337952 94.70581 
L 289.30477 121.204555 
L 300.271588 150.983331 
L 311.238406 184.525621 
L 322.205224 220.812202 
" clip-path="url(#pf1a92e930a)" style="fill: none; stroke: #e02401; stroke-width: 2.5; stroke-linecap: round"/>
    <defs>
     <path id="mb11073a379" d="M 0 -3 
L -0.673542 -0.927051 
L -2.85317 -0.927051 
L -1.089814 0.354102 
L -1.763356 2.427051 
L -0 1.145898 
L 1.763356 2.427051 
L 1.089814 0.354102 
L 2.85317 -0.927051 
L 0.673542 -0.927051 
z
" style="stroke: #e02401; stroke-linejoin: bevel"/>
    </defs>
    <g clip-path="url(#pf1a92e930a)">
     <use xlink:href="#mb11073a379" x="59.001588" y="276.897273" style="fill: #e02401; stroke: #e02401; stroke-linejoin: bevel"/>
     <use xlink:href="#mb11073a379" x="69.968406" y="263.68761" style="fill: #e02401; stroke: #e02401; stroke-linejoin: bevel"/>
     <use xlink:href="#mb11073a379" x="80.935224" y="249.181056" style="fill: #e02401; stroke: #e02401; stroke-linejoin: bevel"/>
     <use xlink:href="#mb11073a379" x="91.902043" y="234.805473" style="fill: #e02401; stroke: #e02401; stroke-linejoin: bevel"/>
     <use xlink:href="#mb11073a379" x="102.868861" y="216.299026" style="fill: #e02401; stroke: #e02401; stroke-linejoin: bevel"/>
     <use xlink:href="#mb11073a379" x="113.835679" y="203.95522" style="fill: #e02401; stroke: #e02401; stroke-linejoin: bevel"/>
     <use xlink:href="#mb11073a379" x="124.802497" y="199.677524" style="fill: #e02401; stroke: #e02401; stroke-linejoin: bevel"/>
     <use xlink:href="#mb11073a379" x="135.769315" y="180.842937" style="fill: #e02401; stroke: #e02401; stroke-linejoin: bevel"/>
     <use xlink:href="#mb11073a379" x="146.736134" y="157.23397" style="fill: #e02401; stroke: #e02401; stroke-linejoin: bevel"/>
     <use xlink:href="#mb11073a379" x="157.702952" y="140.506864" style="fill: #e02401; stroke: #e02401; stroke-linejoin: bevel"/>
     <use xlink:href="#mb11073a379" x="168.66977" y="119.42497" style="fill: #e02401; stroke: #e02401; stroke-linejoin: bevel"/>
     <use xlink:href="#mb11073a379" x="179.636588" y="92.266962" style="fill: #e02401; stroke: #e02401; stroke-linejoin: bevel"/>
     <use xlink:href="#mb11073a379" x="190.603406" y="68.641852" style="fill: #e02401; stroke: #e02401; stroke-linejoin: bevel"/>
     <use xlink:href="#mb11073a379" x="201.570224" y="20.042727" style="fill: #e02401; stroke: #e02401; stroke-linejoin: bevel"/>
     <use xlink:href="#mb11073a379" x="212.537043" y="23.844078" style="fill: #e02401; stroke: #e02401; stroke-linejoin: bevel"/>
     <use xlink:href="#mb11073a379" x="223.503861" y="20.042727" style="fill: #e02401; stroke: #e02401; stroke-linejoin: bevel"/>
     <use xlink:href="#mb11073a379" x="234.470679" y="20.042727" style="fill: #e02401; stroke: #e02401; stroke-linejoin: bevel"/>
     <use xlink:href="#mb11073a379" x="245.437497" y="31.505255" style="fill: #e02401; stroke: #e02401; stroke-linejoin: bevel"/>
     <use xlink:href="#mb11073a379" x="256.404315" y="53.380886" style="fill: #e02401; stroke: #e02401; stroke-linejoin: bevel"/>
     <use xlink:href="#mb11073a379" x="267.371134" y="71.305212" style="fill: #e02401; stroke: #e02401; stroke-linejoin: bevel"/>
     <use xlink:href="#mb11073a379" x="278.337952" y="94.70581" style="fill: #e02401; stroke: #e02401; stroke-linejoin: bevel"/>
     <use xlink:href="#mb11073a379" x="289.30477" y="121.204555" style="fill: #e02401; stroke: #e02401; stroke-linejoin: bevel"/>
     <use xlink:href="#mb11073a379" x="300.271588" y="150.983331" style="fill: #e02401; stroke: #e02401; stroke-linejoin: bevel"/>
     <use xlink:href="#mb11073a379" x="311.238406" y="184.525621" style="fill: #e02401; stroke: #e02401; stroke-linejoin: bevel"/>
     <use xlink:href="#mb11073a379" x="322.205224" y="220.812202" style="fill: #e02401; stroke: #e02401; stroke-linejoin: bevel"/>
    </g>
   </g>
   <g id="line2d_39">
    <path d="M 59.001588 276.897273 
L 69.968406 263.68761 
L 80.935224 249.181053 
L 91.902043 234.805454 
L 102.868861 216.298894 
L 113.835679 203.954885 
L 124.802497 199.677017 
L 135.769315 180.841119 
L 146.736134 157.227457 
L 157.702952 140.492554 
L 168.66977 119.390161 
L 179.636588 92.173148 
L 190.603406 68.433395 
L 201.570224 20.042727 
L 212.537043 23.837443 
L 223.503861 20.042727 
L 234.470679 20.042727 
L 245.437497 31.483581 
L 256.404315 53.343228 
L 267.371134 71.240952 
L 278.337952 94.619537 
L 289.30477 121.100298 
L 300.271588 150.868994 
L 311.238406 184.414244 
L 322.205224 220.715501 
" clip-path="url(#pf1a92e930a)" style="fill: none; stroke-dasharray: 9.25,4; stroke-dashoffset: 0; stroke: #f78812; stroke-width: 2.5"/>
    <defs>
     <path id="m23d94714cd" d="M -3 0 
L 3 0 
M 0 3 
L 0 -3 
" style="stroke: #f78812"/>
    </defs>
    <g clip-path="url(#pf1a92e930a)">
     <use xlink:href="#m23d94714cd" x="59.001588" y="276.897273" style="fill: #f78812; stroke: #f78812"/>
     <use xlink:href="#m23d94714cd" x="69.968406" y="263.68761" style="fill: #f78812; stroke: #f78812"/>
     <use xlink:href="#m23d94714cd" x="80.935224" y="249.181053" style="fill: #f78812; stroke: #f78812"/>
     <use xlink:href="#m23d94714cd" x="91.902043" y="234.805454" style="fill: #f78812; stroke: #f78812"/>
     <use xlink:href="#m23d94714cd" x="102.868861" y="216.298894" style="fill: #f78812; stroke: #f78812"/>
     <use xlink:href="#m23d94714cd" x="113.835679" y="203.954885" style="fill: #f78812; stroke: #f78812"/>
     <use xlink:href="#m23d94714cd" x="124.802497" y="199.677017" style="fill: #f78812; stroke: #f78812"/>
     <use xlink:href="#m23d94714cd" x="135.769315" y="180.841119" style="fill: #f78812; stroke: #f78812"/>
     <use xlink:href="#m23d94714cd" x="146.736134" y="157.227457" style="fill: #f78812; stroke: #f78812"/>
     <use xlink:href="#m23d94714cd" x="157.702952" y="140.492554" style="fill: #f78812; stroke: #f78812"/>
     <use xlink:href="#m23d94714cd" x="168.66977" y="119.390161" style="fill: #f78812; stroke: #f78812"/>
     <use xlink:href="#m23d94714cd" x="179.636588" y="92.173148" style="fill: #f78812; stroke: #f78812"/>
     <use xlink:href="#m23d94714cd" x="190.603406" y="68.433395" style="fill: #f78812; stroke: #f78812"/>
     <use xlink:href="#m23d94714cd" x="201.570224" y="20.042727" style="fill: #f78812; stroke: #f78812"/>
     <use xlink:href="#m23d94714cd" x="212.537043" y="23.837443" style="fill: #f78812; stroke: #f78812"/>
     <use xlink:href="#m23d94714cd" x="223.503861" y="20.042727" style="fill: #f78812; stroke: #f78812"/>
     <use xlink:href="#m23d94714cd" x="234.470679" y="20.042727" style="fill: #f78812; stroke: #f78812"/>
     <use xlink:href="#m23d94714cd" x="245.437497" y="31.483581" style="fill: #f78812; stroke: #f78812"/>
     <use xlink:href="#m23d94714cd" x="256.404315" y="53.343228" style="fill: #f78812; stroke: #f78812"/>
     <use xlink:href="#m23d94714cd" x="267.371134" y="71.240952" style="fill: #f78812; stroke: #f78812"/>
     <use xlink:href="#m23d94714cd" x="278.337952" y="94.619537" style="fill: #f78812; stroke: #f78812"/>
     <use xlink:href="#m23d94714cd" x="289.30477" y="121.100298" style="fill: #f78812; stroke: #f78812"/>
     <use xlink:href="#m23d94714cd" x="300.271588" y="150.868994" style="fill: #f78812; stroke: #f78812"/>
     <use xlink:href="#m23d94714cd" x="311.238406" y="184.414244" style="fill: #f78812; stroke: #f78812"/>
     <use xlink:href="#m23d94714cd" x="322.205224" y="220.715501" style="fill: #f78812; stroke: #f78812"/>
    </g>
   </g>
   <g id="line2d_40">
    <path d="M 59.001588 276.897273 
L 69.968406 263.68761 
L 80.935224 249.181053 
L 91.902043 234.805454 
L 102.868861 216.298899 
L 113.835679 203.954899 
L 124.802497 199.67704 
L 135.769315 180.84122 
L 146.736134 157.22791 
L 157.702952 140.493675 
L 168.66977 119.393325 
L 179.636588 92.183339 
L 190.603406 68.459299 
L 201.570224 20.042727 
L 212.537043 23.83892 
L 223.503861 20.042727 
L 234.470679 20.042727 
L 245.437497 31.486475 
L 256.404315 53.348286 
L 267.371134 71.249644 
L 278.337952 94.631256 
L 289.30477 121.114513 
L 300.271588 150.88464 
L 311.238406 184.429544 
L 322.205224 220.728861 
" clip-path="url(#pf1a92e930a)" style="fill: none; stroke-dasharray: 16,4,2.5,4; stroke-dashoffset: 0; stroke: #ab6d23; stroke-width: 2.5"/>
    <defs>
     <path id="m7f3b26567d" d="M -3 3 
L 3 -3 
M -3 -3 
L 3 3 
" style="stroke: #ab6d23"/>
    </defs>
    <g clip-path="url(#pf1a92e930a)">
     <use xlink:href="#m7f3b26567d" x="59.001588" y="276.897273" style="fill: #ab6d23; stroke: #ab6d23"/>
     <use xlink:href="#m7f3b26567d" x="69.968406" y="263.68761" style="fill: #ab6d23; stroke: #ab6d23"/>
     <use xlink:href="#m7f3b26567d" x="80.935224" y="249.181053" style="fill: #ab6d23; stroke: #ab6d23"/>
     <use xlink:href="#m7f3b26567d" x="91.902043" y="234.805454" style="fill: #ab6d23; stroke: #ab6d23"/>
     <use xlink:href="#m7f3b26567d" x="102.868861" y="216.298899" style="fill: #ab6d23; stroke: #ab6d23"/>
     <use xlink:href="#m7f3b26567d" x="113.835679" y="203.954899" style="fill: #ab6d23; stroke: #ab6d23"/>
     <use xlink:href="#m7f3b26567d" x="124.802497" y="199.67704" style="fill: #ab6d23; stroke: #ab6d23"/>
     <use xlink:href="#m7f3b26567d" x="135.769315" y="180.84122" style="fill: #ab6d23; stroke: #ab6d23"/>
     <use xlink:href="#m7f3b26567d" x="146.736134" y="157.22791" style="fill: #ab6d23; stroke: #ab6d23"/>
     <use xlink:href="#m7f3b26567d" x="157.702952" y="140.493675" style="fill: #ab6d23; stroke: #ab6d23"/>
     <use xlink:href="#m7f3b26567d" x="168.66977" y="119.393325" style="fill: #ab6d23; stroke: #ab6d23"/>
     <use xlink:href="#m7f3b26567d" x="179.636588" y="92.183339" style="fill: #ab6d23; stroke: #ab6d23"/>
     <use xlink:href="#m7f3b26567d" x="190.603406" y="68.459299" style="fill: #ab6d23; stroke: #ab6d23"/>
     <use xlink:href="#m7f3b26567d" x="201.570224" y="20.042727" style="fill: #ab6d23; stroke: #ab6d23"/>
     <use xlink:href="#m7f3b26567d" x="212.537043" y="23.83892" style="fill: #ab6d23; stroke: #ab6d23"/>
     <use xlink:href="#m7f3b26567d" x="223.503861" y="20.042727" style="fill: #ab6d23; stroke: #ab6d23"/>
     <use xlink:href="#m7f3b26567d" x="234.470679" y="20.042727" style="fill: #ab6d23; stroke: #ab6d23"/>
     <use xlink:href="#m7f3b26567d" x="245.437497" y="31.486475" style="fill: #ab6d23; stroke: #ab6d23"/>
     <use xlink:href="#m7f3b26567d" x="256.404315" y="53.348286" style="fill: #ab6d23; stroke: #ab6d23"/>
     <use xlink:href="#m7f3b26567d" x="267.371134" y="71.249644" style="fill: #ab6d23; stroke: #ab6d23"/>
     <use xlink:href="#m7f3b26567d" x="278.337952" y="94.631256" style="fill: #ab6d23; stroke: #ab6d23"/>
     <use xlink:href="#m7f3b26567d" x="289.30477" y="121.114513" style="fill: #ab6d23; stroke: #ab6d23"/>
     <use xlink:href="#m7f3b26567d" x="300.271588" y="150.88464" style="fill: #ab6d23; stroke: #ab6d23"/>
     <use xlink:href="#m7f3b26567d" x="311.238406" y="184.429544" style="fill: #ab6d23; stroke: #ab6d23"/>
     <use xlink:href="#m7f3b26567d" x="322.205224" y="220.728861" style="fill: #ab6d23; stroke: #ab6d23"/>
    </g>
   </g>
   <g id="line2d_41">
    <path d="M 59.001588 276.897273 
L 69.968406 263.68761 
L 80.935224 249.181053 
L 91.902043 234.805454 
L 102.868861 216.298899 
L 113.835679 203.954899 
L 124.802497 199.677039 
L 135.769315 180.841215 
L 146.736134 157.22788 
L 157.702952 140.493593 
L 168.66977 119.393059 
L 179.636588 92.182318 
L 190.603406 68.456347 
L 201.570224 20.042727 
L 212.537043 23.838722 
L 223.503861 20.042727 
L 234.470679 20.042727 
L 245.437497 31.486125 
L 256.404315 53.347667 
L 267.371134 71.24856 
L 278.337952 94.629776 
L 289.30477 121.112697 
L 300.271588 150.882622 
L 311.238406 184.427553 
L 322.205224 220.727105 
" clip-path="url(#pf1a92e930a)" style="fill: none; stroke-dasharray: 2.5,4.125; stroke-dashoffset: 0; stroke: #51050f; stroke-width: 2.5"/>
    <defs>
     <path id="m7f300d99d9" d="M -0 4.242641 
L 4.242641 0 
L 0 -4.242641 
L -4.242641 -0 
z
" style="stroke: #51050f; stroke-linejoin: miter"/>
    </defs>
    <g clip-path="url(#pf1a92e930a)">
     <use xlink:href="#m7f300d99d9" x="59.001588" y="276.897273" style="fill: #51050f; stroke: #51050f; stroke-linejoin: miter"/>
     <use xlink:href="#m7f300d99d9" x="69.968406" y="263.68761" style="fill: #51050f; stroke: #51050f; stroke-linejoin: miter"/>
     <use xlink:href="#m7f300d99d9" x="80.935224" y="249.181053" style="fill: #51050f; stroke: #51050f; stroke-linejoin: miter"/>
     <use xlink:href="#m7f300d99d9" x="91.902043" y="234.805454" style="fill: #51050f; stroke: #51050f; stroke-linejoin: miter"/>
     <use xlink:href="#m7f300d99d9" x="102.868861" y="216.298899" style="fill: #51050f; stroke: #51050f; stroke-linejoin: miter"/>
     <use xlink:href="#m7f300d99d9" x="113.835679" y="203.954899" style="fill: #51050f; stroke: #51050f; stroke-linejoin: miter"/>
     <use xlink:href="#m7f300d99d9" x="124.802497" y="199.677039" style="fill: #51050f; stroke: #51050f; stroke-linejoin: miter"/>
     <use xlink:href="#m7f300d99d9" x="135.769315" y="180.841215" style="fill: #51050f; stroke: #51050f; stroke-linejoin: miter"/>
     <use xlink:href="#m7f300d99d9" x="146.736134" y="157.22788" style="fill: #51050f; stroke: #51050f; stroke-linejoin: miter"/>
     <use xlink:href="#m7f300d99d9" x="157.702952" y="140.493593" style="fill: #51050f; stroke: #51050f; stroke-linejoin: miter"/>
     <use xlink:href="#m7f300d99d9" x="168.66977" y="119.393059" style="fill: #51050f; stroke: #51050f; stroke-linejoin: miter"/>
     <use xlink:href="#m7f300d99d9" x="179.636588" y="92.182318" style="fill: #51050f; stroke: #51050f; stroke-linejoin: miter"/>
     <use xlink:href="#m7f300d99d9" x="190.603406" y="68.456347" style="fill: #51050f; stroke: #51050f; stroke-linejoin: miter"/>
     <use xlink:href="#m7f300d99d9" x="201.570224" y="20.042727" style="fill: #51050f; stroke: #51050f; stroke-linejoin: miter"/>
     <use xlink:href="#m7f300d99d9" x="212.537043" y="23.838722" style="fill: #51050f; stroke: #51050f; stroke-linejoin: miter"/>
     <use xlink:href="#m7f300d99d9" x="223.503861" y="20.042727" style="fill: #51050f; stroke: #51050f; stroke-linejoin: miter"/>
     <use xlink:href="#m7f300d99d9" x="234.470679" y="20.042727" style="fill: #51050f; stroke: #51050f; stroke-linejoin: miter"/>
     <use xlink:href="#m7f300d99d9" x="245.437497" y="31.486125" style="fill: #51050f; stroke: #51050f; stroke-linejoin: miter"/>
     <use xlink:href="#m7f300d99d9" x="256.404315" y="53.347667" style="fill: #51050f; stroke: #51050f; stroke-linejoin: miter"/>
     <use xlink:href="#m7f300d99d9" x="267.371134" y="71.24856" style="fill: #51050f; stroke: #51050f; stroke-linejoin: miter"/>
     <use xlink:href="#m7f300d99d9" x="278.337952" y="94.629776" style="fill: #51050f; stroke: #51050f; stroke-linejoin: miter"/>
     <use xlink:href="#m7f300d99d9" x="289.30477" y="121.112697" style="fill: #51050f; stroke: #51050f; stroke-linejoin: miter"/>
     <use xlink:href="#m7f300d99d9" x="300.271588" y="150.882622" style="fill: #51050f; stroke: #51050f; stroke-linejoin: miter"/>
     <use xlink:href="#m7f300d99d9" x="311.238406" y="184.427553" style="fill: #51050f; stroke: #51050f; stroke-linejoin: miter"/>
     <use xlink:href="#m7f300d99d9" x="322.205224" y="220.727105" style="fill: #51050f; stroke: #51050f; stroke-linejoin: miter"/>
    </g>
   </g>
   <g id="line2d_42">
    <path d="M 45.841406 20.042727 
L 335.365406 20.042727 
" clip-path="url(#pf1a92e930a)" style="fill: none; stroke: #1a1a1a; stroke-width: 1.5; stroke-linecap: round"/>
   </g>
   <g id="patch_3">
    <path d="M 45.841406 289.74 
L 45.841406 7.2 
" style="fill: none; stroke: #1a1a1a; stroke-width: 0.5; stroke-linejoin: miter; stroke-linecap: square"/>
   </g>
   <g id="patch_4">
    <path d="M 335.365406 289.74 
L 335.365406 7.2 
" style="fill: none; stroke: #ffffff; stroke-width: 1.25; stroke-linejoin: miter; stroke-linecap: square"/>
   </g>
   <g id="patch_5">
    <path d="M 45.841406 289.74 
L 335.365406 289.74 
" style="fill: none; stroke: #1a1a1a; stroke-width: 0.5; stroke-linejoin: miter; stroke-linecap: square"/>
   </g>
   <g id="patch_6">
    <path d="M 45.841406 7.2 
L 335.365406 7.2 
" style="fill: none; stroke: #ffffff; stroke-width: 1.25; stroke-linejoin: miter; stroke-linecap: square"/>
   </g>
   <g id="legend_1">
    <g id="patch_7">
     <path d="M 352.841606 195.49575 
L 435.435356 195.49575 
Q 438.435356 195.49575 438.435356 192.49575 
L 438.435356 24.327 
Q 438.435356 21.327 435.435356 21.327 
L 352.841606 21.327 
Q 349.841606 21.327 349.841606 24.327 
L 349.841606 192.49575 
Q 349.841606 195.49575 352.841606 195.49575 
z
" style="fill: #ffffff; opacity: 0.5; stroke: #000000; stroke-linejoin: miter"/>
    </g>
    <g id="line2d_43">
     <path d="M 355.841606 32.577 
L 370.841606 32.577 
L 385.841606 32.577 
" style="fill: none; stroke: #7b113a; stroke-width: 2.5; stroke-linecap: round"/>
     <defs>
      <path id="md58d29d8c5" d="M 0 2.25 
C 0.596707 2.25 1.169055 2.012926 1.59099 1.59099 
C 2.012926 1.169055 2.25 0.596707 2.25 0 
C 2.25 -0.596707 2.012926 -1.169055 1.59099 -1.59099 
C 1.169055 -2.012926 0.596707 -2.25 0 -2.25 
C -0.596707 -2.25 -1.169055 -2.012926 -1.59099 -1.59099 
C -2.012926 -1.169055 -2.25 -0.596707 -2.25 0 
C -2.25 0.596707 -2.012926 1.169055 -1.59099 1.59099 
C -1.169055 2.012926 -0.596707 2.25 0 2.25 
z
" style="stroke: #7b113a"/>
     </defs>
     <g>
      <use xlink:href="#md58d29d8c5" x="370.841606" y="32.577" style="fill: #7b113a; stroke: #7b113a"/>
     </g>
    </g>
    <g id="text_36">
     <!-- Bus 1 -->
     <g style="fill: #262626" transform="translate(397.841606 37.827)scale(0.15 -0.15)">
      <defs>
       <path id="TimesNewRomanPSMT-42" d="M 2956 2163 
Q 3397 2069 3616 1863 
Q 3919 1575 3919 1159 
Q 3919 844 3719 555 
Q 3519 266 3170 133 
Q 2822 0 2106 0 
L 106 0 
L 106 116 
L 266 116 
Q 531 116 647 284 
Q 719 394 719 750 
L 719 3488 
Q 719 3881 628 3984 
Q 506 4122 266 4122 
L 106 4122 
L 106 4238 
L 1938 4238 
Q 2450 4238 2759 4163 
Q 3228 4050 3475 3764 
Q 3722 3478 3722 3106 
Q 3722 2788 3528 2536 
Q 3334 2284 2956 2163 
z
M 1319 2331 
Q 1434 2309 1582 2298 
Q 1731 2288 1909 2288 
Q 2366 2288 2595 2386 
Q 2825 2484 2947 2687 
Q 3069 2891 3069 3131 
Q 3069 3503 2766 3765 
Q 2463 4028 1881 4028 
Q 1569 4028 1319 3959 
L 1319 2331 
z
M 1319 306 
Q 1681 222 2034 222 
Q 2600 222 2897 476 
Q 3194 731 3194 1106 
Q 3194 1353 3059 1581 
Q 2925 1809 2622 1940 
Q 2319 2072 1872 2072 
Q 1678 2072 1540 2065 
Q 1403 2059 1319 2044 
L 1319 306 
z
" transform="scale(0.015625)"/>
       <path id="TimesNewRomanPSMT-75" d="M 2709 2863 
L 2709 1128 
Q 2709 631 2732 520 
Q 2756 409 2807 365 
Q 2859 322 2928 322 
Q 3025 322 3147 375 
L 3191 266 
L 2334 -88 
L 2194 -88 
L 2194 519 
Q 1825 119 1631 15 
Q 1438 -88 1222 -88 
Q 981 -88 804 51 
Q 628 191 559 409 
Q 491 628 491 1028 
L 491 2306 
Q 491 2509 447 2587 
Q 403 2666 317 2708 
Q 231 2750 6 2747 
L 6 2863 
L 1009 2863 
L 1009 947 
Q 1009 547 1148 422 
Q 1288 297 1484 297 
Q 1619 297 1789 381 
Q 1959 466 2194 703 
L 2194 2325 
Q 2194 2569 2105 2655 
Q 2016 2741 1734 2747 
L 1734 2863 
L 2709 2863 
z
" transform="scale(0.015625)"/>
       <path id="TimesNewRomanPSMT-73" d="M 2050 2947 
L 2050 1972 
L 1947 1972 
Q 1828 2431 1642 2597 
Q 1456 2763 1169 2763 
Q 950 2763 815 2647 
Q 681 2531 681 2391 
Q 681 2216 781 2091 
Q 878 1963 1175 1819 
L 1631 1597 
Q 2266 1288 2266 781 
Q 2266 391 1970 151 
Q 1675 -88 1309 -88 
Q 1047 -88 709 6 
Q 606 38 541 38 
Q 469 38 428 -44 
L 325 -44 
L 325 978 
L 428 978 
Q 516 541 762 319 
Q 1009 97 1316 97 
Q 1531 97 1667 223 
Q 1803 350 1803 528 
Q 1803 744 1651 891 
Q 1500 1038 1047 1263 
Q 594 1488 453 1669 
Q 313 1847 313 2119 
Q 313 2472 555 2709 
Q 797 2947 1181 2947 
Q 1350 2947 1591 2875 
Q 1750 2828 1803 2828 
Q 1853 2828 1881 2850 
Q 1909 2872 1947 2947 
L 2050 2947 
z
" transform="scale(0.015625)"/>
       <path id="TimesNewRomanPSMT-20" transform="scale(0.015625)"/>
       <path id="TimesNewRomanPSMT-31" d="M 750 3822 
L 1781 4325 
L 1884 4325 
L 1884 747 
Q 1884 391 1914 303 
Q 1944 216 2037 169 
Q 2131 122 2419 116 
L 2419 0 
L 825 0 
L 825 116 
Q 1125 122 1212 167 
Q 1300 213 1334 289 
Q 1369 366 1369 747 
L 1369 3034 
Q 1369 3497 1338 3628 
Q 1316 3728 1258 3775 
Q 1200 3822 1119 3822 
Q 1003 3822 797 3725 
L 750 3822 
z
" transform="scale(0.015625)"/>
      </defs>
      <use xlink:href="#TimesNewRomanPSMT-42"/>
      <use xlink:href="#TimesNewRomanPSMT-75" x="66.699219"/>
      <use xlink:href="#TimesNewRomanPSMT-73" x="116.699219"/>
      <use xlink:href="#TimesNewRomanPSMT-20" x="155.615234"/>
      <use xlink:href="#TimesNewRomanPSMT-31" x="180.615234"/>
     </g>
    </g>
    <g id="line2d_44">
     <path d="M 355.841606 53.785594 
L 370.841606 53.785594 
L 385.841606 53.785594 
" style="fill: none; stroke-dasharray: 9.25,4; stroke-dashoffset: 0; stroke: #150e56; stroke-width: 2.5"/>
     <defs>
      <path id="m7f4f8f039e" d="M 0 -4.5 
L -4.5 4.5 
L 4.5 4.5 
z
" style="stroke: #150e56; stroke-linejoin: miter"/>
     </defs>
     <g>
      <use xlink:href="#m7f4f8f039e" x="370.841606" y="53.785594" style="fill: #150e56; stroke: #150e56; stroke-linejoin: miter"/>
     </g>
    </g>
    <g id="text_37">
     <!-- Bus 2 -->
     <g style="fill: #262626" transform="translate(397.841606 59.035594)scale(0.15 -0.15)">
      <defs>
       <path id="TimesNewRomanPSMT-32" d="M 2934 816 
L 2638 0 
L 138 0 
L 138 116 
Q 1241 1122 1691 1759 
Q 2141 2397 2141 2925 
Q 2141 3328 1894 3587 
Q 1647 3847 1303 3847 
Q 991 3847 742 3664 
Q 494 3481 375 3128 
L 259 3128 
Q 338 3706 661 4015 
Q 984 4325 1469 4325 
Q 1984 4325 2329 3994 
Q 2675 3663 2675 3213 
Q 2675 2891 2525 2569 
Q 2294 2063 1775 1497 
Q 997 647 803 472 
L 1909 472 
Q 2247 472 2383 497 
Q 2519 522 2628 598 
Q 2738 675 2819 816 
L 2934 816 
z
" transform="scale(0.015625)"/>
      </defs>
      <use xlink:href="#TimesNewRomanPSMT-42"/>
      <use xlink:href="#TimesNewRomanPSMT-75" x="66.699219"/>
      <use xlink:href="#TimesNewRomanPSMT-73" x="116.699219"/>
      <use xlink:href="#TimesNewRomanPSMT-20" x="155.615234"/>
      <use xlink:href="#TimesNewRomanPSMT-32" x="180.615234"/>
     </g>
    </g>
    <g id="line2d_45">
     <path d="M 355.841606 74.994187 
L 370.841606 74.994187 
L 385.841606 74.994187 
" style="fill: none; stroke-dasharray: 16,4,2.5,4; stroke-dashoffset: 0; stroke: #1597bb; stroke-width: 2.5"/>
     <defs>
      <path id="m306951ad2e" d="M 0 0 
L 0 4.5 
M 0 0 
L 3.6 -2.25 
M 0 0 
L -3.6 -2.25 
" style="stroke: #1597bb"/>
     </defs>
     <g>
      <use xlink:href="#m306951ad2e" x="370.841606" y="74.994187" style="fill: #1597bb; stroke: #1597bb"/>
     </g>
    </g>
    <g id="text_38">
     <!-- Bus 3 -->
     <g style="fill: #262626" transform="translate(397.841606 80.244187)scale(0.15 -0.15)">
      <defs>
       <path id="TimesNewRomanPSMT-33" d="M 325 3431 
Q 506 3859 782 4092 
Q 1059 4325 1472 4325 
Q 1981 4325 2253 3994 
Q 2459 3747 2459 3466 
Q 2459 3003 1878 2509 
Q 2269 2356 2469 2072 
Q 2669 1788 2669 1403 
Q 2669 853 2319 450 
Q 1863 -75 997 -75 
Q 569 -75 414 31 
Q 259 138 259 259 
Q 259 350 332 419 
Q 406 488 509 488 
Q 588 488 669 463 
Q 722 447 909 348 
Q 1097 250 1169 231 
Q 1284 197 1416 197 
Q 1734 197 1970 444 
Q 2206 691 2206 1028 
Q 2206 1275 2097 1509 
Q 2016 1684 1919 1775 
Q 1784 1900 1550 2001 
Q 1316 2103 1072 2103 
L 972 2103 
L 972 2197 
Q 1219 2228 1467 2375 
Q 1716 2522 1828 2728 
Q 1941 2934 1941 3181 
Q 1941 3503 1739 3701 
Q 1538 3900 1238 3900 
Q 753 3900 428 3381 
L 325 3431 
z
" transform="scale(0.015625)"/>
      </defs>
      <use xlink:href="#TimesNewRomanPSMT-42"/>
      <use xlink:href="#TimesNewRomanPSMT-75" x="66.699219"/>
      <use xlink:href="#TimesNewRomanPSMT-73" x="116.699219"/>
      <use xlink:href="#TimesNewRomanPSMT-20" x="155.615234"/>
      <use xlink:href="#TimesNewRomanPSMT-33" x="180.615234"/>
     </g>
    </g>
    <g id="line2d_46">
     <path d="M 355.841606 96.202781 
L 370.841606 96.202781 
L 385.841606 96.202781 
" style="fill: none; stroke-dasharray: 2.5,4.125; stroke-dashoffset: 0; stroke: #8fd6e1; stroke-width: 2.5"/>
     <defs>
      <path id="m5de9fa5879" d="M -4.5 4.5 
L 4.5 4.5 
L 4.5 -4.5 
L -4.5 -4.5 
z
" style="stroke: #8fd6e1; stroke-linejoin: miter"/>
     </defs>
     <g>
      <use xlink:href="#m5de9fa5879" x="370.841606" y="96.202781" style="fill: #8fd6e1; stroke: #8fd6e1; stroke-linejoin: miter"/>
     </g>
    </g>
    <g id="text_39">
     <!-- Bus 4 -->
     <g style="fill: #262626" transform="translate(397.841606 101.452781)scale(0.15 -0.15)">
      <defs>
       <path id="TimesNewRomanPSMT-34" d="M 2978 1563 
L 2978 1119 
L 2409 1119 
L 2409 0 
L 1894 0 
L 1894 1119 
L 100 1119 
L 100 1519 
L 2066 4325 
L 2409 4325 
L 2409 1563 
L 2978 1563 
z
M 1894 1563 
L 1894 3666 
L 406 1563 
L 1894 1563 
z
" transform="scale(0.015625)"/>
      </defs>
      <use xlink:href="#TimesNewRomanPSMT-42"/>
      <use xlink:href="#TimesNewRomanPSMT-75" x="66.699219"/>
      <use xlink:href="#TimesNewRomanPSMT-73" x="116.699219"/>
      <use xlink:href="#TimesNewRomanPSMT-20" x="155.615234"/>
      <use xlink:href="#TimesNewRomanPSMT-34" x="180.615234"/>
     </g>
    </g>
    <g id="line2d_47">
     <path d="M 355.841606 117.411375 
L 370.841606 117.411375 
L 385.841606 117.411375 
" style="fill: none; stroke: #e02401; stroke-width: 2.5; stroke-linecap: round"/>
     <defs>
      <path id="m5fa745f0a7" d="M 0 -4.5 
L -1.010313 -1.390576 
L -4.279754 -1.390576 
L -1.634721 0.531153 
L -2.645034 3.640576 
L -0 1.718847 
L 2.645034 3.640576 
L 1.634721 0.531153 
L 4.279754 -1.390576 
L 1.010313 -1.390576 
z
" style="stroke: #e02401; stroke-linejoin: bevel"/>
     </defs>
     <g>
      <use xlink:href="#m5fa745f0a7" x="370.841606" y="117.411375" style="fill: #e02401; stroke: #e02401; stroke-linejoin: bevel"/>
     </g>
    </g>
    <g id="text_40">
     <!-- Bus 5 -->
     <g style="fill: #262626" transform="translate(397.841606 122.661375)scale(0.15 -0.15)">
      <defs>
       <path id="TimesNewRomanPSMT-35" d="M 2778 4238 
L 2534 3706 
L 1259 3706 
L 981 3138 
Q 1809 3016 2294 2522 
Q 2709 2097 2709 1522 
Q 2709 1188 2573 903 
Q 2438 619 2231 419 
Q 2025 219 1772 97 
Q 1413 -75 1034 -75 
Q 653 -75 479 54 
Q 306 184 306 341 
Q 306 428 378 495 
Q 450 563 559 563 
Q 641 563 702 538 
Q 763 513 909 409 
Q 1144 247 1384 247 
Q 1750 247 2026 523 
Q 2303 800 2303 1197 
Q 2303 1581 2056 1914 
Q 1809 2247 1375 2428 
Q 1034 2569 447 2591 
L 1259 4238 
L 2778 4238 
z
" transform="scale(0.015625)"/>
      </defs>
      <use xlink:href="#TimesNewRomanPSMT-42"/>
      <use xlink:href="#TimesNewRomanPSMT-75" x="66.699219"/>
      <use xlink:href="#TimesNewRomanPSMT-73" x="116.699219"/>
      <use xlink:href="#TimesNewRomanPSMT-20" x="155.615234"/>
      <use xlink:href="#TimesNewRomanPSMT-35" x="180.615234"/>
     </g>
    </g>
    <g id="line2d_48">
     <path d="M 355.841606 138.619969 
L 370.841606 138.619969 
L 385.841606 138.619969 
" style="fill: none; stroke-dasharray: 9.25,4; stroke-dashoffset: 0; stroke: #f78812; stroke-width: 2.5"/>
     <defs>
      <path id="m4cbb42ffda" d="M -4.5 0 
L 4.5 0 
M 0 4.5 
L 0 -4.5 
" style="stroke: #f78812"/>
     </defs>
     <g>
      <use xlink:href="#m4cbb42ffda" x="370.841606" y="138.619969" style="fill: #f78812; stroke: #f78812"/>
     </g>
    </g>
    <g id="text_41">
     <!-- Bus 6 -->
     <g style="fill: #262626" transform="translate(397.841606 143.869969)scale(0.15 -0.15)">
      <defs>
       <path id="TimesNewRomanPSMT-36" d="M 2869 4325 
L 2869 4209 
Q 2456 4169 2195 4045 
Q 1934 3922 1679 3669 
Q 1425 3416 1258 3105 
Q 1091 2794 978 2366 
Q 1428 2675 1881 2675 
Q 2316 2675 2634 2325 
Q 2953 1975 2953 1425 
Q 2953 894 2631 456 
Q 2244 -75 1606 -75 
Q 1172 -75 869 213 
Q 275 772 275 1663 
Q 275 2231 503 2743 
Q 731 3256 1154 3653 
Q 1578 4050 1965 4187 
Q 2353 4325 2688 4325 
L 2869 4325 
z
M 925 2138 
Q 869 1716 869 1456 
Q 869 1156 980 804 
Q 1091 453 1309 247 
Q 1469 100 1697 100 
Q 1969 100 2183 356 
Q 2397 613 2397 1088 
Q 2397 1622 2184 2012 
Q 1972 2403 1581 2403 
Q 1463 2403 1327 2353 
Q 1191 2303 925 2138 
z
" transform="scale(0.015625)"/>
      </defs>
      <use xlink:href="#TimesNewRomanPSMT-42"/>
      <use xlink:href="#TimesNewRomanPSMT-75" x="66.699219"/>
      <use xlink:href="#TimesNewRomanPSMT-73" x="116.699219"/>
      <use xlink:href="#TimesNewRomanPSMT-20" x="155.615234"/>
      <use xlink:href="#TimesNewRomanPSMT-36" x="180.615234"/>
     </g>
    </g>
    <g id="line2d_49">
     <path d="M 355.841606 159.828562 
L 370.841606 159.828562 
L 385.841606 159.828562 
" style="fill: none; stroke-dasharray: 16,4,2.5,4; stroke-dashoffset: 0; stroke: #ab6d23; stroke-width: 2.5"/>
     <defs>
      <path id="m6a7572542c" d="M -4.5 4.5 
L 4.5 -4.5 
M -4.5 -4.5 
L 4.5 4.5 
" style="stroke: #ab6d23"/>
     </defs>
     <g>
      <use xlink:href="#m6a7572542c" x="370.841606" y="159.828562" style="fill: #ab6d23; stroke: #ab6d23"/>
     </g>
    </g>
    <g id="text_42">
     <!-- Bus 7 -->
     <g style="fill: #262626" transform="translate(397.841606 165.078562)scale(0.15 -0.15)">
      <defs>
       <path id="TimesNewRomanPSMT-37" d="M 644 4238 
L 2916 4238 
L 2916 4119 
L 1503 -88 
L 1153 -88 
L 2419 3728 
L 1253 3728 
Q 900 3728 750 3644 
Q 488 3500 328 3200 
L 238 3234 
L 644 4238 
z
" transform="scale(0.015625)"/>
      </defs>
      <use xlink:href="#TimesNewRomanPSMT-42"/>
      <use xlink:href="#TimesNewRomanPSMT-75" x="66.699219"/>
      <use xlink:href="#TimesNewRomanPSMT-73" x="116.699219"/>
      <use xlink:href="#TimesNewRomanPSMT-20" x="155.615234"/>
      <use xlink:href="#TimesNewRomanPSMT-37" x="180.615234"/>
     </g>
    </g>
    <g id="line2d_50">
     <path d="M 355.841606 181.037156 
L 370.841606 181.037156 
L 385.841606 181.037156 
" style="fill: none; stroke-dasharray: 2.5,4.125; stroke-dashoffset: 0; stroke: #51050f; stroke-width: 2.5"/>
     <defs>
      <path id="me279eb2855" d="M -0 6.363961 
L 6.363961 0 
L 0 -6.363961 
L -6.363961 -0 
z
" style="stroke: #51050f; stroke-linejoin: miter"/>
     </defs>
     <g>
      <use xlink:href="#me279eb2855" x="370.841606" y="181.037156" style="fill: #51050f; stroke: #51050f; stroke-linejoin: miter"/>
     </g>
    </g>
    <g id="text_43">
     <!-- Bus 8 -->
     <g style="fill: #262626" transform="translate(397.841606 186.287156)scale(0.15 -0.15)">
      <defs>
       <path id="TimesNewRomanPSMT-38" d="M 1228 2134 
Q 725 2547 579 2797 
Q 434 3047 434 3316 
Q 434 3728 753 4026 
Q 1072 4325 1600 4325 
Q 2113 4325 2425 4047 
Q 2738 3769 2738 3413 
Q 2738 3175 2569 2928 
Q 2400 2681 1866 2347 
Q 2416 1922 2594 1678 
Q 2831 1359 2831 1006 
Q 2831 559 2490 242 
Q 2150 -75 1597 -75 
Q 994 -75 656 303 
Q 388 606 388 966 
Q 388 1247 577 1523 
Q 766 1800 1228 2134 
z
M 1719 2469 
Q 2094 2806 2194 3001 
Q 2294 3197 2294 3444 
Q 2294 3772 2109 3958 
Q 1925 4144 1606 4144 
Q 1288 4144 1088 3959 
Q 888 3775 888 3528 
Q 888 3366 970 3203 
Q 1053 3041 1206 2894 
L 1719 2469 
z
M 1375 2016 
Q 1116 1797 991 1539 
Q 866 1281 866 981 
Q 866 578 1086 336 
Q 1306 94 1647 94 
Q 1984 94 2187 284 
Q 2391 475 2391 747 
Q 2391 972 2272 1150 
Q 2050 1481 1375 2016 
z
" transform="scale(0.015625)"/>
      </defs>
      <use xlink:href="#TimesNewRomanPSMT-42"/>
      <use xlink:href="#TimesNewRomanPSMT-75" x="66.699219"/>
      <use xlink:href="#TimesNewRomanPSMT-73" x="116.699219"/>
      <use xlink:href="#TimesNewRomanPSMT-20" x="155.615234"/>
      <use xlink:href="#TimesNewRomanPSMT-38" x="180.615234"/>
     </g>
    </g>
   </g>
  </g>
 </g>
 <defs>
  <clipPath id="pf1a92e930a">
   <rect x="45.841406" y="7.2" width="289.524" height="282.54"/>
  </clipPath>
 </defs>
</svg>
