<?xml version="1.0" encoding="utf-8" standalone="no"?>
<!DOCTYPE svg PUBLIC "-//W3C//DTD SVG 1.1//EN"
  "http://www.w3.org/Graphics/SVG/1.1/DTD/svg11.dtd">
<!-- Created with matplotlib (https://matplotlib.org/) -->
<svg height="334.070156pt" version="1.1" viewBox="0 0 447.184106 334.070156" width="447.184106pt" xmlns="http://www.w3.org/2000/svg" xmlns:xlink="http://www.w3.org/1999/xlink">
 <defs>
  <style type="text/css">
*{stroke-linecap:butt;stroke-linejoin:round;}
  </style>
 </defs>
 <g id="figure_1">
  <g id="patch_1">
   <path d="M 0 334.070156 
L 447.184106 334.070156 
L 447.184106 0 
L 0 0 
z
" style="fill:#ffffff;"/>
  </g>
  <g id="axes_1">
   <g id="patch_2">
    <path d="M 39.213125 296.22 
L 358.437125 296.22 
L 358.437125 7.2 
L 39.213125 7.2 
z
" style="fill:#ffffff;"/>
   </g>
   <g id="matplotlib.axis_1">
    <g id="xtick_1">
     <g id="line2d_1">
      <defs>
       <path d="M 0 3 
L 0 -3 
" id="mbbe45c4bd0" style="stroke:#262626;stroke-width:1.5;"/>
      </defs>
      <g>
       <use style="fill:#262626;stroke:#262626;stroke-width:1.5;" x="53.723307" xlink:href="#mbbe45c4bd0" y="296.22"/>
      </g>
     </g>
     <g id="text_1">
      <!-- 1 -->
      <defs>
       <path d="M 32.5625 67.578125 
L 32.5625 13.421875 
Q 32.5625 7.328125 33.09375 5.640625 
Q 33.640625 3.953125 35.34375 2.875 
Q 37.0625 1.8125 40.828125 1.8125 
L 42.328125 1.8125 
L 42.328125 0 
L 7.46875 0 
L 7.46875 1.8125 
L 9.234375 1.8125 
Q 13.484375 1.8125 15.28125 2.78125 
Q 17.09375 3.765625 17.71875 5.46875 
Q 18.359375 7.171875 18.359375 13.421875 
L 18.359375 47.75 
Q 18.359375 52.34375 17.921875 53.484375 
Q 17.484375 54.640625 16.28125 55.4375 
Q 15.09375 56.25 13.53125 56.25 
Q 11.03125 56.25 7.46875 54.6875 
L 6.59375 56.453125 
L 30.953125 67.578125 
z
" id="TimesNewRomanPS-BoldMT-49"/>
      </defs>
      <g style="fill:#262626;" transform="translate(50.973307 310.004062)scale(0.11 -0.11)">
       <use xlink:href="#TimesNewRomanPS-BoldMT-49"/>
      </g>
     </g>
    </g>
    <g id="xtick_2">
     <g id="line2d_2">
      <g>
       <use style="fill:#262626;stroke:#262626;stroke-width:1.5;" x="68.233489" xlink:href="#mbbe45c4bd0" y="296.22"/>
      </g>
     </g>
     <g id="text_2">
      <!-- 2 -->
      <defs>
       <path d="M 41.40625 0 
L 2.4375 0 
L 2.4375 1.078125 
Q 20.359375 22.40625 24.1875 29.78125 
Q 28.03125 37.15625 28.03125 44.1875 
Q 28.03125 49.3125 24.859375 52.703125 
Q 21.6875 56.109375 17.09375 56.109375 
Q 9.578125 56.109375 5.421875 48.578125 
L 3.609375 49.21875 
Q 6.25 58.59375 11.625 63.078125 
Q 17 67.578125 24.03125 67.578125 
Q 29.046875 67.578125 33.203125 65.234375 
Q 37.359375 62.890625 39.703125 58.8125 
Q 42.046875 54.734375 42.046875 51.171875 
Q 42.046875 44.671875 38.421875 37.984375 
Q 33.5 28.953125 16.890625 12.796875 
L 31.203125 12.796875 
Q 36.46875 12.796875 38.0625 13.234375 
Q 39.65625 13.671875 40.671875 14.71875 
Q 41.703125 15.765625 43.359375 19.140625 
L 45.125 19.140625 
z
" id="TimesNewRomanPS-BoldMT-50"/>
      </defs>
      <g style="fill:#262626;" transform="translate(65.483489 310.004062)scale(0.11 -0.11)">
       <use xlink:href="#TimesNewRomanPS-BoldMT-50"/>
      </g>
     </g>
    </g>
    <g id="xtick_3">
     <g id="line2d_3">
      <g>
       <use style="fill:#262626;stroke:#262626;stroke-width:1.5;" x="82.74367" xlink:href="#mbbe45c4bd0" y="296.22"/>
      </g>
     </g>
     <g id="text_3">
      <!-- 3 -->
      <defs>
       <path d="M 14.796875 33.203125 
L 14.796875 34.90625 
Q 20.359375 36.53125 22.5 37.921875 
Q 24.65625 39.3125 26.21875 42.15625 
Q 27.78125 45.015625 27.78125 47.953125 
Q 27.78125 52 24.828125 54.90625 
Q 21.875 57.8125 17.484375 57.8125 
Q 10.640625 57.8125 5.859375 50.59375 
L 4.046875 51.21875 
Q 7.5625 59.375 13.0625 63.46875 
Q 18.5625 67.578125 25.296875 67.578125 
Q 32.171875 67.578125 36.640625 63.375 
Q 41.109375 59.1875 41.109375 53.5625 
Q 41.109375 49.90625 39.03125 46.5 
Q 36.96875 43.109375 32.515625 40.53125 
Q 38.234375 37.75 41.234375 33.671875 
Q 44.234375 29.59375 44.234375 23.4375 
Q 44.234375 13.09375 36.734375 5.828125 
Q 29.25 -1.421875 16.65625 -1.421875 
Q 8.25 -1.421875 4.390625 1.375 
Q 1.609375 3.328125 1.609375 6.390625 
Q 1.609375 8.640625 3.21875 10.21875 
Q 4.828125 11.8125 6.9375 11.8125 
Q 8.546875 11.8125 9.96875 11.140625 
Q 10.75 10.75 15.5 6.859375 
Q 20.265625 2.984375 24.421875 2.984375 
Q 28.03125 2.984375 30.609375 5.828125 
Q 33.203125 8.6875 33.203125 13.09375 
Q 33.203125 19.78125 28.515625 25.421875 
Q 23.828125 31.0625 14.796875 33.203125 
z
" id="TimesNewRomanPS-BoldMT-51"/>
      </defs>
      <g style="fill:#262626;" transform="translate(79.99367 310.004062)scale(0.11 -0.11)">
       <use xlink:href="#TimesNewRomanPS-BoldMT-51"/>
      </g>
     </g>
    </g>
    <g id="xtick_4">
     <g id="line2d_4">
      <g>
       <use style="fill:#262626;stroke:#262626;stroke-width:1.5;" x="97.253852" xlink:href="#mbbe45c4bd0" y="296.22"/>
      </g>
     </g>
     <g id="text_4">
      <!-- 4 -->
      <defs>
       <path d="M 2.484375 24.953125 
L 33.9375 67.578125 
L 39.890625 67.578125 
L 39.890625 24.953125 
L 45.953125 24.953125 
L 45.953125 14.84375 
L 39.890625 14.84375 
L 39.890625 0 
L 26.46875 0 
L 26.46875 14.84375 
L 2.484375 14.84375 
z
M 7.234375 24.953125 
L 26.46875 24.953125 
L 26.46875 51.078125 
z
" id="TimesNewRomanPS-BoldMT-52"/>
      </defs>
      <g style="fill:#262626;" transform="translate(94.503852 310.004062)scale(0.11 -0.11)">
       <use xlink:href="#TimesNewRomanPS-BoldMT-52"/>
      </g>
     </g>
    </g>
    <g id="xtick_5">
     <g id="line2d_5">
      <g>
       <use style="fill:#262626;stroke:#262626;stroke-width:1.5;" x="111.764034" xlink:href="#mbbe45c4bd0" y="296.22"/>
      </g>
     </g>
     <g id="text_5">
      <!-- 5 -->
      <defs>
       <path d="M 15.234375 66.21875 
L 46.234375 66.21875 
L 41.3125 53.609375 
L 15.234375 53.609375 
L 12.75 47.015625 
Q 29.59375 46.390625 38.671875 38.625 
Q 46.140625 32.234375 46.140625 22.703125 
Q 46.140625 16.609375 42.671875 10.765625 
Q 39.203125 4.9375 32.90625 1.78125 
Q 26.609375 -1.375 19.09375 -1.375 
Q 10.984375 -1.375 6.640625 1.65625 
Q 3.609375 3.8125 3.609375 6.546875 
Q 3.609375 8.640625 5.1875 10.25 
Q 6.78125 11.859375 8.890625 11.859375 
Q 10.796875 11.859375 12.75 11.078125 
Q 14.703125 10.296875 19.4375 6.984375 
Q 22.40625 4.9375 24.5625 4.15625 
Q 26.078125 3.5625 27.984375 3.5625 
Q 31.984375 3.5625 34.78125 6.484375 
Q 37.59375 9.421875 37.59375 13.53125 
Q 37.59375 22.125 29 27.484375 
Q 20.40625 32.859375 7.328125 32.859375 
Q 6 32.859375 3.375 32.8125 
z
" id="TimesNewRomanPS-BoldMT-53"/>
      </defs>
      <g style="fill:#262626;" transform="translate(109.014034 310.004062)scale(0.11 -0.11)">
       <use xlink:href="#TimesNewRomanPS-BoldMT-53"/>
      </g>
     </g>
    </g>
    <g id="xtick_6">
     <g id="line2d_6">
      <g>
       <use style="fill:#262626;stroke:#262626;stroke-width:1.5;" x="126.274216" xlink:href="#mbbe45c4bd0" y="296.22"/>
      </g>
     </g>
     <g id="text_6">
      <!-- 6 -->
      <defs>
       <path d="M 46.96875 67.578125 
L 46.96875 66.21875 
Q 38.140625 63.96875 32.78125 60.421875 
Q 27.4375 56.890625 24.328125 51.828125 
Q 21.234375 46.78125 19.53125 39.3125 
Q 21.6875 40.765625 23.09375 41.21875 
Q 26.265625 42.1875 29.5 42.1875 
Q 36.921875 42.1875 41.875 36.78125 
Q 46.828125 31.390625 46.828125 22.078125 
Q 46.828125 15.53125 44.140625 10.0625 
Q 41.453125 4.59375 36.515625 1.609375 
Q 31.59375 -1.375 25.984375 -1.375 
Q 19.875 -1.375 14.6875 1.96875 
Q 9.515625 5.328125 6.609375 11.765625 
Q 3.71875 18.21875 3.71875 25.78125 
Q 3.71875 36.921875 9.0625 46.515625 
Q 14.40625 56.109375 24.234375 61.796875 
Q 34.078125 67.484375 46.96875 67.578125 
z
M 18.890625 35.359375 
Q 18.5 28.609375 18.5 25.484375 
Q 18.5 18.75 19.796875 12.453125 
Q 21.09375 6.15625 23.34375 3.609375 
Q 24.953125 1.8125 27.15625 1.8125 
Q 29.390625 1.8125 31.140625 4.421875 
Q 32.90625 7.03125 32.90625 15.046875 
Q 32.90625 28.515625 29.640625 33.640625 
Q 27.546875 36.96875 23.96875 36.96875 
Q 22.015625 36.96875 18.890625 35.359375 
z
" id="TimesNewRomanPS-BoldMT-54"/>
      </defs>
      <g style="fill:#262626;" transform="translate(123.524216 310.004062)scale(0.11 -0.11)">
       <use xlink:href="#TimesNewRomanPS-BoldMT-54"/>
      </g>
     </g>
    </g>
    <g id="xtick_7">
     <g id="line2d_7">
      <g>
       <use style="fill:#262626;stroke:#262626;stroke-width:1.5;" x="140.784398" xlink:href="#mbbe45c4bd0" y="296.22"/>
      </g>
     </g>
     <g id="text_7">
      <!-- 7 -->
      <defs>
       <path d="M 17.71875 -1.375 
L 35.75 53.265625 
L 22.015625 53.265625 
Q 13.96875 53.265625 9.90625 51.171875 
Q 7.078125 49.703125 5.21875 45.65625 
L 3.375 45.65625 
L 8.15625 66.21875 
L 47.609375 66.21875 
L 25.390625 -1.375 
z
" id="TimesNewRomanPS-BoldMT-55"/>
      </defs>
      <g style="fill:#262626;" transform="translate(138.034398 310.004062)scale(0.11 -0.11)">
       <use xlink:href="#TimesNewRomanPS-BoldMT-55"/>
      </g>
     </g>
    </g>
    <g id="xtick_8">
     <g id="line2d_8">
      <g>
       <use style="fill:#262626;stroke:#262626;stroke-width:1.5;" x="155.29458" xlink:href="#mbbe45c4bd0" y="296.22"/>
      </g>
     </g>
     <g id="text_8">
      <!-- 8 -->
      <defs>
       <path d="M 34.078125 37.40625 
Q 41.0625 32.28125 43.765625 27.859375 
Q 46.484375 23.4375 46.484375 17.71875 
Q 46.484375 9.71875 40.453125 4.171875 
Q 34.421875 -1.375 24.078125 -1.375 
Q 14.265625 -1.375 8.890625 3.453125 
Q 3.515625 8.296875 3.515625 15.28125 
Q 3.515625 20.609375 6.609375 24.609375 
Q 9.71875 28.609375 16.9375 31.9375 
Q 9.078125 37.9375 6.859375 41.75 
Q 4.640625 45.5625 4.640625 50.59375 
Q 4.640625 57.234375 10.28125 62.28125 
Q 15.921875 67.328125 25.734375 67.328125 
Q 35.203125 67.328125 40.296875 62.859375 
Q 45.40625 58.40625 45.40625 52.15625 
Q 45.40625 47.46875 42.640625 43.875 
Q 39.890625 40.28125 34.078125 37.40625 
z
M 30.375 39.890625 
Q 32.171875 42.328125 33.046875 45.359375 
Q 33.9375 48.390625 33.9375 52 
Q 33.9375 58.34375 31.203125 61.71875 
Q 29.15625 64.3125 25.53125 64.3125 
Q 22.265625 64.3125 19.96875 61.9375 
Q 17.671875 59.578125 17.671875 56.0625 
Q 17.671875 52.484375 20.234375 48.65625 
Q 22.796875 44.828125 30.375 39.890625 
z
M 20.609375 29.59375 
Q 19.09375 28.21875 18.453125 27.09375 
Q 17.484375 25.390625 16.703125 22.109375 
Q 15.921875 18.84375 15.921875 15.28125 
Q 15.921875 10.6875 17.09375 7.59375 
Q 18.265625 4.5 20.4375 3.125 
Q 22.609375 1.765625 24.90625 1.765625 
Q 28.46875 1.765625 30.90625 4.375 
Q 33.34375 6.984375 33.34375 11.53125 
Q 33.34375 21 20.609375 29.59375 
z
" id="TimesNewRomanPS-BoldMT-56"/>
      </defs>
      <g style="fill:#262626;" transform="translate(152.54458 310.004062)scale(0.11 -0.11)">
       <use xlink:href="#TimesNewRomanPS-BoldMT-56"/>
      </g>
     </g>
    </g>
    <g id="xtick_9">
     <g id="line2d_9">
      <g>
       <use style="fill:#262626;stroke:#262626;stroke-width:1.5;" x="169.804761" xlink:href="#mbbe45c4bd0" y="296.22"/>
      </g>
     </g>
     <g id="text_9">
      <!-- 9 -->
      <defs>
       <path d="M 3.078125 -1.375 
L 3.078125 0 
Q 11.1875 1.859375 16.828125 5.46875 
Q 22.46875 9.078125 25.75 14.40625 
Q 29.046875 19.734375 30.375 26.65625 
Q 27.34375 25.09375 25.21875 24.484375 
Q 23.09375 23.875 20.75 23.875 
Q 13.234375 23.875 8.21875 29.296875 
Q 3.21875 34.71875 3.21875 44.140625 
Q 3.21875 50.6875 5.921875 56.125 
Q 8.640625 61.578125 13.671875 64.578125 
Q 18.703125 67.578125 24.125 67.578125 
Q 29.9375 67.578125 35.109375 64.25 
Q 40.28125 60.9375 43.359375 54.640625 
Q 46.4375 48.34375 46.4375 40.28125 
Q 46.4375 29.828125 41.421875 20.25 
Q 36.421875 10.6875 26.515625 4.90625 
Q 16.609375 -0.875 3.078125 -1.375 
z
M 31.109375 30.765625 
Q 31.59375 36.234375 31.59375 40.375 
Q 31.59375 49.265625 29.546875 56.9375 
Q 28.375 61.1875 26.078125 63.1875 
Q 24.859375 64.265625 22.90625 64.265625 
Q 20.453125 64.265625 19.09375 62.15625 
Q 17.1875 59.28125 17.1875 51.171875 
Q 17.1875 37.640625 20.40625 32.515625 
Q 22.515625 29.203125 26.078125 29.203125 
Q 27.984375 29.203125 31.109375 30.765625 
z
" id="TimesNewRomanPS-BoldMT-57"/>
      </defs>
      <g style="fill:#262626;" transform="translate(167.054761 310.004062)scale(0.11 -0.11)">
       <use xlink:href="#TimesNewRomanPS-BoldMT-57"/>
      </g>
     </g>
    </g>
    <g id="xtick_10">
     <g id="line2d_10">
      <g>
       <use style="fill:#262626;stroke:#262626;stroke-width:1.5;" x="184.314943" xlink:href="#mbbe45c4bd0" y="296.22"/>
      </g>
     </g>
     <g id="text_10">
      <!-- 10 -->
      <defs>
       <path d="M 46.34375 33.109375 
Q 46.34375 23.1875 43.5625 14.59375 
Q 41.890625 9.328125 39.078125 5.953125 
Q 36.28125 2.59375 32.71875 0.609375 
Q 29.15625 -1.375 24.953125 -1.375 
Q 20.171875 -1.375 16.3125 1.0625 
Q 12.453125 3.515625 9.46875 8.0625 
Q 7.328125 11.375 5.71875 16.890625 
Q 3.609375 24.359375 3.609375 32.328125 
Q 3.609375 43.109375 6.640625 52.15625 
Q 9.125 59.625 14.203125 63.59375 
Q 19.28125 67.578125 24.953125 67.578125 
Q 30.71875 67.578125 35.71875 63.640625 
Q 40.71875 59.71875 43.0625 53.078125 
Q 46.34375 43.953125 46.34375 33.109375 
z
M 31.296875 33.203125 
Q 31.296875 50.59375 31.109375 53.46875 
Q 30.609375 60.25 28.765625 62.640625 
Q 27.546875 64.203125 24.8125 64.203125 
Q 22.703125 64.203125 21.484375 63.03125 
Q 19.671875 61.328125 19.03125 57 
Q 18.40625 52.6875 18.40625 26.859375 
Q 18.40625 12.796875 19.390625 8.015625 
Q 20.125 4.546875 21.484375 3.375 
Q 22.859375 2.203125 25.09375 2.203125 
Q 27.546875 2.203125 28.765625 3.765625 
Q 30.8125 6.5 31.109375 12.203125 
z
" id="TimesNewRomanPS-BoldMT-48"/>
      </defs>
      <g style="fill:#262626;" transform="translate(178.814943 310.004062)scale(0.11 -0.11)">
       <use xlink:href="#TimesNewRomanPS-BoldMT-49"/>
       <use x="50" xlink:href="#TimesNewRomanPS-BoldMT-48"/>
      </g>
     </g>
    </g>
    <g id="xtick_11">
     <g id="line2d_11">
      <g>
       <use style="fill:#262626;stroke:#262626;stroke-width:1.5;" x="198.825125" xlink:href="#mbbe45c4bd0" y="296.22"/>
      </g>
     </g>
     <g id="text_11">
      <!-- 11 -->
      <g style="fill:#262626;" transform="translate(193.627625 310.004062)scale(0.11 -0.11)">
       <use xlink:href="#TimesNewRomanPS-BoldMT-49"/>
       <use x="44.5" xlink:href="#TimesNewRomanPS-BoldMT-49"/>
      </g>
     </g>
    </g>
    <g id="xtick_12">
     <g id="line2d_12">
      <g>
       <use style="fill:#262626;stroke:#262626;stroke-width:1.5;" x="213.335307" xlink:href="#mbbe45c4bd0" y="296.22"/>
      </g>
     </g>
     <g id="text_12">
      <!-- 12 -->
      <g style="fill:#262626;" transform="translate(207.835307 310.004062)scale(0.11 -0.11)">
       <use xlink:href="#TimesNewRomanPS-BoldMT-49"/>
       <use x="50" xlink:href="#TimesNewRomanPS-BoldMT-50"/>
      </g>
     </g>
    </g>
    <g id="xtick_13">
     <g id="line2d_13">
      <g>
       <use style="fill:#262626;stroke:#262626;stroke-width:1.5;" x="227.845489" xlink:href="#mbbe45c4bd0" y="296.22"/>
      </g>
     </g>
     <g id="text_13">
      <!-- 13 -->
      <g style="fill:#262626;" transform="translate(222.345489 310.004062)scale(0.11 -0.11)">
       <use xlink:href="#TimesNewRomanPS-BoldMT-49"/>
       <use x="50" xlink:href="#TimesNewRomanPS-BoldMT-51"/>
      </g>
     </g>
    </g>
    <g id="xtick_14">
     <g id="line2d_14">
      <g>
       <use style="fill:#262626;stroke:#262626;stroke-width:1.5;" x="242.35567" xlink:href="#mbbe45c4bd0" y="296.22"/>
      </g>
     </g>
     <g id="text_14">
      <!-- 14 -->
      <g style="fill:#262626;" transform="translate(236.85567 310.004062)scale(0.11 -0.11)">
       <use xlink:href="#TimesNewRomanPS-BoldMT-49"/>
       <use x="50" xlink:href="#TimesNewRomanPS-BoldMT-52"/>
      </g>
     </g>
    </g>
    <g id="xtick_15">
     <g id="line2d_15">
      <g>
       <use style="fill:#262626;stroke:#262626;stroke-width:1.5;" x="256.865852" xlink:href="#mbbe45c4bd0" y="296.22"/>
      </g>
     </g>
     <g id="text_15">
      <!-- 15 -->
      <g style="fill:#262626;" transform="translate(251.365852 310.004062)scale(0.11 -0.11)">
       <use xlink:href="#TimesNewRomanPS-BoldMT-49"/>
       <use x="50" xlink:href="#TimesNewRomanPS-BoldMT-53"/>
      </g>
     </g>
    </g>
    <g id="xtick_16">
     <g id="line2d_16">
      <g>
       <use style="fill:#262626;stroke:#262626;stroke-width:1.5;" x="271.376034" xlink:href="#mbbe45c4bd0" y="296.22"/>
      </g>
     </g>
     <g id="text_16">
      <!-- 16 -->
      <g style="fill:#262626;" transform="translate(265.876034 310.004062)scale(0.11 -0.11)">
       <use xlink:href="#TimesNewRomanPS-BoldMT-49"/>
       <use x="50" xlink:href="#TimesNewRomanPS-BoldMT-54"/>
      </g>
     </g>
    </g>
    <g id="xtick_17">
     <g id="line2d_17">
      <g>
       <use style="fill:#262626;stroke:#262626;stroke-width:1.5;" x="285.886216" xlink:href="#mbbe45c4bd0" y="296.22"/>
      </g>
     </g>
     <g id="text_17">
      <!-- 17 -->
      <g style="fill:#262626;" transform="translate(280.386216 310.004062)scale(0.11 -0.11)">
       <use xlink:href="#TimesNewRomanPS-BoldMT-49"/>
       <use x="50" xlink:href="#TimesNewRomanPS-BoldMT-55"/>
      </g>
     </g>
    </g>
    <g id="xtick_18">
     <g id="line2d_18">
      <g>
       <use style="fill:#262626;stroke:#262626;stroke-width:1.5;" x="300.396398" xlink:href="#mbbe45c4bd0" y="296.22"/>
      </g>
     </g>
     <g id="text_18">
      <!-- 18 -->
      <g style="fill:#262626;" transform="translate(294.896398 310.004062)scale(0.11 -0.11)">
       <use xlink:href="#TimesNewRomanPS-BoldMT-49"/>
       <use x="50" xlink:href="#TimesNewRomanPS-BoldMT-56"/>
      </g>
     </g>
    </g>
    <g id="xtick_19">
     <g id="line2d_19">
      <g>
       <use style="fill:#262626;stroke:#262626;stroke-width:1.5;" x="314.90658" xlink:href="#mbbe45c4bd0" y="296.22"/>
      </g>
     </g>
     <g id="text_19">
      <!-- 19 -->
      <g style="fill:#262626;" transform="translate(309.40658 310.004062)scale(0.11 -0.11)">
       <use xlink:href="#TimesNewRomanPS-BoldMT-49"/>
       <use x="50" xlink:href="#TimesNewRomanPS-BoldMT-57"/>
      </g>
     </g>
    </g>
    <g id="xtick_20">
     <g id="line2d_20">
      <g>
       <use style="fill:#262626;stroke:#262626;stroke-width:1.5;" x="329.416761" xlink:href="#mbbe45c4bd0" y="296.22"/>
      </g>
     </g>
     <g id="text_20">
      <!-- 20 -->
      <g style="fill:#262626;" transform="translate(323.916761 310.004062)scale(0.11 -0.11)">
       <use xlink:href="#TimesNewRomanPS-BoldMT-50"/>
       <use x="50" xlink:href="#TimesNewRomanPS-BoldMT-48"/>
      </g>
     </g>
    </g>
    <g id="xtick_21">
     <g id="line2d_21">
      <g>
       <use style="fill:#262626;stroke:#262626;stroke-width:1.5;" x="343.926943" xlink:href="#mbbe45c4bd0" y="296.22"/>
      </g>
     </g>
     <g id="text_21">
      <!-- 21 -->
      <g style="fill:#262626;" transform="translate(338.426943 310.004062)scale(0.11 -0.11)">
       <use xlink:href="#TimesNewRomanPS-BoldMT-50"/>
       <use x="50" xlink:href="#TimesNewRomanPS-BoldMT-49"/>
      </g>
     </g>
    </g>
    <g id="text_22">
     <!-- Bus Stations -->
     <defs>
      <path d="M 44.484375 35.109375 
Q 53.90625 32.90625 57.71875 29.78125 
Q 63.1875 25.34375 63.1875 18.265625 
Q 63.1875 10.796875 57.171875 5.90625 
Q 49.8125 0 35.75 0 
L 2.09375 0 
L 2.09375 1.8125 
Q 6.6875 1.8125 8.328125 2.65625 
Q 9.96875 3.515625 10.625 4.875 
Q 11.28125 6.25 11.28125 11.625 
L 11.28125 54.59375 
Q 11.28125 59.96875 10.625 61.359375 
Q 9.96875 62.75 8.296875 63.578125 
Q 6.640625 64.40625 2.09375 64.40625 
L 2.09375 66.21875 
L 33.84375 66.21875 
Q 45.21875 66.21875 49.953125 64.1875 
Q 54.6875 62.15625 57.421875 58.125 
Q 60.15625 54.109375 60.15625 49.5625 
Q 60.15625 44.78125 56.6875 41.046875 
Q 53.21875 37.3125 44.484375 35.109375 
z
M 26.703125 36.421875 
Q 33.640625 36.421875 36.9375 37.984375 
Q 40.234375 39.546875 41.984375 42.375 
Q 43.75 45.21875 43.75 49.609375 
Q 43.75 54 42.015625 56.8125 
Q 40.28125 59.625 37.0625 61.078125 
Q 33.84375 62.546875 26.703125 62.5 
z
M 26.703125 32.625 
L 26.703125 11.375 
L 26.65625 8.9375 
Q 26.65625 6.296875 28 4.953125 
Q 29.34375 3.609375 31.984375 3.609375 
Q 35.890625 3.609375 39.1875 5.34375 
Q 42.484375 7.078125 44.234375 10.375 
Q 46 13.671875 46 17.71875 
Q 46 22.359375 43.84375 26.046875 
Q 41.703125 29.734375 37.9375 31.203125 
Q 34.1875 32.671875 26.703125 32.625 
z
" id="TimesNewRomanPS-BoldMT-66"/>
      <path d="M 47.46875 45.65625 
L 47.46875 9.90625 
Q 47.46875 4.6875 48.4375 3.390625 
Q 49.421875 2.09375 52.390625 1.765625 
L 52.390625 0 
L 33.796875 0 
L 33.796875 6.109375 
Q 30.515625 2.203125 27.234375 0.40625 
Q 23.96875 -1.375 19.921875 -1.375 
Q 16.0625 -1.375 13.0625 1 
Q 10.0625 3.375 9.03125 6.546875 
Q 8.015625 9.71875 8.015625 17.625 
L 8.015625 35.75 
Q 8.015625 40.921875 7.0625 42.1875 
Q 6.109375 43.453125 3.078125 43.84375 
L 3.078125 45.65625 
L 21.6875 45.65625 
L 21.6875 14.453125 
Q 21.6875 9.578125 22.140625 8.15625 
Q 22.609375 6.734375 23.609375 6 
Q 24.609375 5.28125 25.921875 5.28125 
Q 27.6875 5.28125 29.109375 6.203125 
Q 31.0625 7.46875 33.796875 11.328125 
L 33.796875 35.75 
Q 33.796875 40.921875 32.84375 42.1875 
Q 31.890625 43.453125 28.859375 43.84375 
L 28.859375 45.65625 
z
" id="TimesNewRomanPS-BoldMT-117"/>
      <path d="M 32.234375 46.921875 
L 32.953125 31.34375 
L 31.296875 31.34375 
Q 28.328125 38.28125 25.125 40.8125 
Q 21.921875 43.359375 18.75 43.359375 
Q 16.75 43.359375 15.328125 42.015625 
Q 13.921875 40.671875 13.921875 38.921875 
Q 13.921875 37.59375 14.890625 36.375 
Q 16.453125 34.375 23.625 29.515625 
Q 30.8125 24.65625 33.078125 21.265625 
Q 35.359375 17.875 35.359375 13.671875 
Q 35.359375 9.859375 33.453125 6.203125 
Q 31.546875 2.546875 28.078125 0.578125 
Q 24.609375 -1.375 20.40625 -1.375 
Q 17.140625 -1.375 11.671875 0.6875 
Q 10.203125 1.21875 9.671875 1.21875 
Q 8.0625 1.21875 6.984375 -1.21875 
L 5.375 -1.21875 
L 4.59375 15.1875 
L 6.25 15.1875 
Q 8.453125 8.734375 12.28125 5.515625 
Q 16.109375 2.296875 19.53125 2.296875 
Q 21.875 2.296875 23.359375 3.734375 
Q 24.859375 5.171875 24.859375 7.234375 
Q 24.859375 9.578125 23.390625 11.28125 
Q 21.921875 12.984375 16.84375 16.453125 
Q 9.375 21.625 7.171875 24.359375 
Q 3.953125 28.375 3.953125 33.203125 
Q 3.953125 38.484375 7.59375 42.75 
Q 11.234375 47.015625 18.109375 47.015625 
Q 21.828125 47.015625 25.296875 45.21875 
Q 26.609375 44.484375 27.4375 44.484375 
Q 28.328125 44.484375 28.859375 44.84375 
Q 29.390625 45.21875 30.5625 46.921875 
z
" id="TimesNewRomanPS-BoldMT-115"/>
      <path id="TimesNewRomanPS-BoldMT-32"/>
      <path d="M 46.96875 67.71875 
L 47.515625 45.65625 
L 45.515625 45.65625 
Q 44.09375 53.953125 38.546875 59 
Q 33.015625 64.0625 26.5625 64.0625 
Q 21.578125 64.0625 18.671875 61.390625 
Q 15.765625 58.734375 15.765625 55.28125 
Q 15.765625 53.078125 16.796875 51.375 
Q 18.21875 49.078125 21.34375 46.828125 
Q 23.640625 45.21875 31.9375 41.109375 
Q 43.5625 35.40625 47.609375 30.328125 
Q 51.609375 25.25 51.609375 18.703125 
Q 51.609375 10.40625 45.140625 4.421875 
Q 38.671875 -1.5625 28.71875 -1.5625 
Q 25.59375 -1.5625 22.796875 -0.921875 
Q 20.015625 -0.296875 15.828125 1.46875 
Q 13.484375 2.4375 11.96875 2.4375 
Q 10.6875 2.4375 9.265625 1.453125 
Q 7.859375 0.484375 6.984375 -1.515625 
L 5.171875 -1.515625 
L 5.171875 23.484375 
L 6.984375 23.484375 
Q 9.125 12.9375 15.25 7.390625 
Q 21.390625 1.859375 28.46875 1.859375 
Q 33.9375 1.859375 37.1875 4.828125 
Q 40.4375 7.8125 40.4375 11.765625 
Q 40.4375 14.109375 39.1875 16.296875 
Q 37.9375 18.5 35.390625 20.484375 
Q 32.859375 22.46875 26.421875 25.640625 
Q 17.390625 30.078125 13.421875 33.203125 
Q 9.46875 36.328125 7.34375 40.1875 
Q 5.21875 44.046875 5.21875 48.6875 
Q 5.21875 56.59375 11.03125 62.15625 
Q 16.84375 67.71875 25.6875 67.71875 
Q 28.90625 67.71875 31.9375 66.9375 
Q 34.234375 66.359375 37.53125 64.765625 
Q 40.828125 63.1875 42.140625 63.1875 
Q 43.40625 63.1875 44.140625 63.96875 
Q 44.875 64.75 45.515625 67.71875 
z
" id="TimesNewRomanPS-BoldMT-83"/>
      <path d="M 21.484375 62.359375 
L 21.484375 45.65625 
L 32.328125 45.65625 
L 32.328125 40.828125 
L 21.484375 40.828125 
L 21.484375 12.640625 
Q 21.484375 8.6875 21.84375 7.53125 
Q 22.21875 6.390625 23.140625 5.6875 
Q 24.078125 4.984375 24.859375 4.984375 
Q 28.03125 4.984375 30.859375 9.8125 
L 32.328125 8.734375 
Q 28.375 -0.640625 19.484375 -0.640625 
Q 15.140625 -0.640625 12.125 1.78125 
Q 9.125 4.203125 8.296875 7.171875 
Q 7.8125 8.84375 7.8125 16.15625 
L 7.8125 40.828125 
L 1.859375 40.828125 
L 1.859375 42.53125 
Q 8.015625 46.875 12.328125 51.65625 
Q 16.65625 56.453125 19.875 62.359375 
z
" id="TimesNewRomanPS-BoldMT-116"/>
      <path d="M 28.5625 6.734375 
Q 20.21875 -0.640625 13.578125 -0.640625 
Q 9.671875 -0.640625 7.078125 1.921875 
Q 4.5 4.5 4.5 8.34375 
Q 4.5 13.578125 8.984375 17.75 
Q 13.484375 21.921875 28.5625 28.859375 
L 28.5625 33.453125 
Q 28.5625 38.625 28 39.96875 
Q 27.4375 41.3125 25.875 42.3125 
Q 24.3125 43.3125 22.359375 43.3125 
Q 19.1875 43.3125 17.140625 41.890625 
Q 15.875 41.015625 15.875 39.84375 
Q 15.875 38.8125 17.234375 37.3125 
Q 19.09375 35.203125 19.09375 33.25 
Q 19.09375 30.859375 17.3125 29.171875 
Q 15.53125 27.484375 12.640625 27.484375 
Q 9.578125 27.484375 7.5 29.34375 
Q 5.421875 31.203125 5.421875 33.6875 
Q 5.421875 37.203125 8.203125 40.40625 
Q 10.984375 43.609375 15.96875 45.3125 
Q 20.953125 47.015625 26.3125 47.015625 
Q 32.8125 47.015625 36.59375 44.25 
Q 40.375 41.5 41.5 38.28125 
Q 42.1875 36.234375 42.1875 28.859375 
L 42.1875 11.140625 
Q 42.1875 8.015625 42.421875 7.203125 
Q 42.671875 6.390625 43.15625 6 
Q 43.65625 5.609375 44.28125 5.609375 
Q 45.5625 5.609375 46.875 7.421875 
L 48.34375 6.25 
Q 45.90625 2.640625 43.28125 1 
Q 40.671875 -0.640625 37.359375 -0.640625 
Q 33.453125 -0.640625 31.25 1.1875 
Q 29.046875 3.03125 28.5625 6.734375 
z
M 28.5625 10.296875 
L 28.5625 25.59375 
Q 22.65625 22.125 19.78125 18.171875 
Q 17.875 15.53125 17.875 12.84375 
Q 17.875 10.59375 19.484375 8.890625 
Q 20.703125 7.5625 22.90625 7.5625 
Q 25.34375 7.5625 28.5625 10.296875 
z
" id="TimesNewRomanPS-BoldMT-97"/>
      <path d="M 14.359375 67.78125 
Q 17.53125 67.78125 19.71875 65.546875 
Q 21.921875 63.328125 21.921875 60.203125 
Q 21.921875 57.078125 19.703125 54.875 
Q 17.484375 52.6875 14.359375 52.6875 
Q 11.234375 52.6875 9.03125 54.875 
Q 6.84375 57.078125 6.84375 60.203125 
Q 6.84375 63.328125 9.03125 65.546875 
Q 11.234375 67.78125 14.359375 67.78125 
z
M 21.1875 45.65625 
L 21.1875 9.46875 
Q 21.1875 4.640625 22.3125 3.296875 
Q 23.4375 1.953125 26.703125 1.765625 
L 26.703125 0 
L 2.046875 0 
L 2.046875 1.765625 
Q 5.078125 1.859375 6.546875 3.515625 
Q 7.515625 4.640625 7.515625 9.46875 
L 7.515625 36.140625 
Q 7.515625 40.96875 6.390625 42.3125 
Q 5.28125 43.65625 2.046875 43.84375 
L 2.046875 45.65625 
z
" id="TimesNewRomanPS-BoldMT-105"/>
      <path d="M 24.90625 47.015625 
Q 30.859375 47.015625 35.984375 43.9375 
Q 41.109375 40.875 43.765625 35.203125 
Q 46.4375 29.546875 46.4375 22.796875 
Q 46.4375 13.09375 41.5 6.546875 
Q 35.546875 -1.375 25.046875 -1.375 
Q 14.75 -1.375 9.171875 5.859375 
Q 3.609375 13.09375 3.609375 22.609375 
Q 3.609375 32.421875 9.296875 39.71875 
Q 14.984375 47.015625 24.90625 47.015625 
z
M 25.09375 43.5625 
Q 22.609375 43.5625 20.828125 41.671875 
Q 19.046875 39.796875 18.484375 34.25 
Q 17.921875 28.71875 17.921875 18.84375 
Q 17.921875 13.625 18.609375 9.078125 
Q 19.140625 5.609375 20.890625 3.796875 
Q 22.65625 2 24.90625 2 
Q 27.09375 2 28.5625 3.21875 
Q 30.46875 4.890625 31.109375 7.859375 
Q 32.078125 12.5 32.078125 26.609375 
Q 32.078125 34.90625 31.140625 38 
Q 30.21875 41.109375 28.421875 42.53125 
Q 27.15625 43.5625 25.09375 43.5625 
z
" id="TimesNewRomanPS-BoldMT-111"/>
      <path d="M 22.015625 45.65625 
L 22.015625 39.75 
Q 25.53125 43.5625 28.75 45.28125 
Q 31.984375 47.015625 35.6875 47.015625 
Q 40.140625 47.015625 43.0625 44.546875 
Q 46 42.09375 46.96875 38.421875 
Q 47.75 35.640625 47.75 27.734375 
L 47.75 9.96875 
Q 47.75 4.6875 48.703125 3.390625 
Q 49.65625 2.09375 52.6875 1.765625 
L 52.6875 0 
L 29.59375 0 
L 29.59375 1.765625 
Q 32.171875 2.09375 33.296875 3.90625 
Q 34.078125 5.125 34.078125 9.96875 
L 34.078125 30.28125 
Q 34.078125 35.890625 33.640625 37.34375 
Q 33.203125 38.8125 32.15625 39.625 
Q 31.109375 40.4375 29.828125 40.4375 
Q 25.640625 40.4375 22.015625 34.421875 
L 22.015625 9.96875 
Q 22.015625 4.828125 22.96875 3.453125 
Q 23.921875 2.09375 26.515625 1.765625 
L 26.515625 0 
L 3.421875 0 
L 3.421875 1.765625 
Q 6.296875 2.046875 7.515625 3.609375 
Q 8.34375 4.6875 8.34375 9.96875 
L 8.34375 35.75 
Q 8.34375 40.921875 7.390625 42.1875 
Q 6.453125 43.453125 3.421875 43.84375 
L 3.421875 45.65625 
z
" id="TimesNewRomanPS-BoldMT-110"/>
     </defs>
     <g style="fill:#262626;" transform="translate(166.980125 324.303281)scale(0.12 -0.12)">
      <use xlink:href="#TimesNewRomanPS-BoldMT-66"/>
      <use x="66.699219" xlink:href="#TimesNewRomanPS-BoldMT-117"/>
      <use x="122.314453" xlink:href="#TimesNewRomanPS-BoldMT-115"/>
      <use x="161.230469" xlink:href="#TimesNewRomanPS-BoldMT-32"/>
      <use x="186.230469" xlink:href="#TimesNewRomanPS-BoldMT-83"/>
      <use x="241.845703" xlink:href="#TimesNewRomanPS-BoldMT-116"/>
      <use x="275.146484" xlink:href="#TimesNewRomanPS-BoldMT-97"/>
      <use x="325.146484" xlink:href="#TimesNewRomanPS-BoldMT-116"/>
      <use x="358.447266" xlink:href="#TimesNewRomanPS-BoldMT-105"/>
      <use x="386.230469" xlink:href="#TimesNewRomanPS-BoldMT-111"/>
      <use x="436.230469" xlink:href="#TimesNewRomanPS-BoldMT-110"/>
      <use x="491.845703" xlink:href="#TimesNewRomanPS-BoldMT-115"/>
     </g>
    </g>
   </g>
   <g id="matplotlib.axis_2">
    <g id="ytick_1">
     <g id="line2d_22">
      <defs>
       <path d="M 3 0 
L -3 -0 
" id="m0f061d616f" style="stroke:#262626;stroke-width:1.5;"/>
      </defs>
      <g>
       <use style="fill:#262626;stroke:#262626;stroke-width:1.5;" x="39.213125" xlink:href="#m0f061d616f" y="283.082727"/>
      </g>
     </g>
     <g id="text_23">
      <!-- 0 -->
      <g style="fill:#262626;" transform="translate(27.213125 286.724759)scale(0.11 -0.11)">
       <use xlink:href="#TimesNewRomanPS-BoldMT-48"/>
      </g>
     </g>
    </g>
    <g id="ytick_2">
     <g id="line2d_23">
      <g>
       <use style="fill:#262626;stroke:#262626;stroke-width:1.5;" x="39.213125" xlink:href="#m0f061d616f" y="245.547662"/>
      </g>
     </g>
     <g id="text_24">
      <!-- 10 -->
      <g style="fill:#262626;" transform="translate(21.713125 249.189694)scale(0.11 -0.11)">
       <use xlink:href="#TimesNewRomanPS-BoldMT-49"/>
       <use x="50" xlink:href="#TimesNewRomanPS-BoldMT-48"/>
      </g>
     </g>
    </g>
    <g id="ytick_3">
     <g id="line2d_24">
      <g>
       <use style="fill:#262626;stroke:#262626;stroke-width:1.5;" x="39.213125" xlink:href="#m0f061d616f" y="208.012597"/>
      </g>
     </g>
     <g id="text_25">
      <!-- 20 -->
      <g style="fill:#262626;" transform="translate(21.713125 211.654629)scale(0.11 -0.11)">
       <use xlink:href="#TimesNewRomanPS-BoldMT-50"/>
       <use x="50" xlink:href="#TimesNewRomanPS-BoldMT-48"/>
      </g>
     </g>
    </g>
    <g id="ytick_4">
     <g id="line2d_25">
      <g>
       <use style="fill:#262626;stroke:#262626;stroke-width:1.5;" x="39.213125" xlink:href="#m0f061d616f" y="170.477532"/>
      </g>
     </g>
     <g id="text_26">
      <!-- 30 -->
      <g style="fill:#262626;" transform="translate(21.713125 174.119564)scale(0.11 -0.11)">
       <use xlink:href="#TimesNewRomanPS-BoldMT-51"/>
       <use x="50" xlink:href="#TimesNewRomanPS-BoldMT-48"/>
      </g>
     </g>
    </g>
    <g id="ytick_5">
     <g id="line2d_26">
      <g>
       <use style="fill:#262626;stroke:#262626;stroke-width:1.5;" x="39.213125" xlink:href="#m0f061d616f" y="132.942468"/>
      </g>
     </g>
     <g id="text_27">
      <!-- 40 -->
      <g style="fill:#262626;" transform="translate(21.713125 136.584499)scale(0.11 -0.11)">
       <use xlink:href="#TimesNewRomanPS-BoldMT-52"/>
       <use x="50" xlink:href="#TimesNewRomanPS-BoldMT-48"/>
      </g>
     </g>
    </g>
    <g id="ytick_6">
     <g id="line2d_27">
      <g>
       <use style="fill:#262626;stroke:#262626;stroke-width:1.5;" x="39.213125" xlink:href="#m0f061d616f" y="95.407403"/>
      </g>
     </g>
     <g id="text_28">
      <!-- 50 -->
      <g style="fill:#262626;" transform="translate(21.713125 99.049434)scale(0.11 -0.11)">
       <use xlink:href="#TimesNewRomanPS-BoldMT-53"/>
       <use x="50" xlink:href="#TimesNewRomanPS-BoldMT-48"/>
      </g>
     </g>
    </g>
    <g id="ytick_7">
     <g id="line2d_28">
      <g>
       <use style="fill:#262626;stroke:#262626;stroke-width:1.5;" x="39.213125" xlink:href="#m0f061d616f" y="57.872338"/>
      </g>
     </g>
     <g id="text_29">
      <!-- 60 -->
      <g style="fill:#262626;" transform="translate(21.713125 61.514369)scale(0.11 -0.11)">
       <use xlink:href="#TimesNewRomanPS-BoldMT-54"/>
       <use x="50" xlink:href="#TimesNewRomanPS-BoldMT-48"/>
      </g>
     </g>
    </g>
    <g id="ytick_8">
     <g id="line2d_29">
      <g>
       <use style="fill:#262626;stroke:#262626;stroke-width:1.5;" x="39.213125" xlink:href="#m0f061d616f" y="20.337273"/>
      </g>
     </g>
     <g id="text_30">
      <!-- 70 -->
      <g style="fill:#262626;" transform="translate(21.713125 23.979304)scale(0.11 -0.11)">
       <use xlink:href="#TimesNewRomanPS-BoldMT-55"/>
       <use x="50" xlink:href="#TimesNewRomanPS-BoldMT-48"/>
      </g>
     </g>
    </g>
    <g id="text_31">
     <!-- Load -->
     <defs>
      <path d="M 63.140625 23.25 
L 60.640625 0 
L 1.859375 0 
L 1.859375 1.8125 
L 4.046875 1.8125 
Q 6.9375 1.8125 8.6875 2.828125 
Q 9.96875 3.515625 10.640625 5.171875 
Q 11.1875 6.34375 11.1875 11.328125 
L 11.1875 54.890625 
Q 11.1875 59.96875 10.640625 61.234375 
Q 10.109375 62.5 8.46875 63.453125 
Q 6.84375 64.40625 4.046875 64.40625 
L 1.859375 64.40625 
L 1.859375 66.21875 
L 37.15625 66.21875 
L 37.15625 64.40625 
L 34.28125 64.40625 
Q 31.390625 64.40625 29.640625 63.375 
Q 28.375 62.703125 27.640625 61.03125 
Q 27.09375 59.859375 27.09375 54.890625 
L 27.09375 12.703125 
Q 27.09375 7.625 27.671875 6.21875 
Q 28.265625 4.828125 29.984375 4.15625 
Q 31.203125 3.71875 35.890625 3.71875 
L 41.40625 3.71875 
Q 46.6875 3.71875 50.203125 5.5625 
Q 53.71875 7.421875 56.28125 11.421875 
Q 58.84375 15.4375 61.140625 23.25 
z
" id="TimesNewRomanPS-BoldMT-76"/>
      <path d="M 47.75 66.21875 
L 47.75 13.671875 
Q 47.75 8.34375 48.046875 7.375 
Q 48.4375 5.765625 49.53125 4.984375 
Q 50.640625 4.203125 53.375 4 
L 53.375 2.390625 
L 34.078125 -1.375 
L 34.078125 5.859375 
Q 30.609375 1.65625 27.90625 0.140625 
Q 25.203125 -1.375 21.78125 -1.375 
Q 13.03125 -1.375 7.953125 6.453125 
Q 3.859375 12.796875 3.859375 22.015625 
Q 3.859375 29.390625 6.390625 35.21875 
Q 8.9375 41.0625 13.359375 44.03125 
Q 17.78125 47.015625 22.859375 47.015625 
Q 26.125 47.015625 28.65625 45.75 
Q 31.203125 44.484375 34.078125 41.3125 
L 34.078125 55.078125 
Q 34.078125 60.296875 33.640625 61.375 
Q 33.0625 62.796875 31.890625 63.46875 
Q 30.71875 64.15625 27.484375 64.15625 
L 27.484375 66.21875 
z
M 34.078125 35.25 
Q 30.46875 42.1875 25.25 42.1875 
Q 23.4375 42.1875 22.265625 41.21875 
Q 20.453125 39.703125 19.3125 35.890625 
Q 18.171875 32.078125 18.171875 24.21875 
Q 18.171875 15.578125 19.4375 11.421875 
Q 20.703125 7.28125 22.90625 5.421875 
Q 24.03125 4.5 25.984375 4.5 
Q 30.28125 4.5 34.078125 11.234375 
z
" id="TimesNewRomanPS-BoldMT-100"/>
     </defs>
     <g style="fill:#262626;" transform="translate(15.14625 165.04875)rotate(-90)scale(0.12 -0.12)">
      <use xlink:href="#TimesNewRomanPS-BoldMT-76"/>
      <use x="66.699219" xlink:href="#TimesNewRomanPS-BoldMT-111"/>
      <use x="116.699219" xlink:href="#TimesNewRomanPS-BoldMT-97"/>
      <use x="166.699219" xlink:href="#TimesNewRomanPS-BoldMT-100"/>
     </g>
    </g>
   </g>
   <g id="line2d_30">
    <path clip-path="url(#peae025db54)" d="M 53.723307 283.082727 
L 68.233489 276.514091 
L 82.74367 269.84119 
L 97.253852 261.213339 
L 111.764034 254.983561 
L 126.274216 251.985969 
L 140.784398 242.6804 
L 155.29458 231.185287 
L 169.804761 222.348907 
L 184.314943 211.375114 
L 198.825125 236.476688 
L 213.335307 223.626142 
L 227.845489 202.069545 
L 242.35567 198.772194 
L 256.865852 186.374079 
L 271.376034 177.156018 
L 285.886216 177.061064 
L 300.396398 181.501596 
L 314.90658 184.534563 
L 329.416761 191.112509 
L 343.926943 201.548225 
" style="fill:none;stroke:#7b113a;stroke-linecap:round;stroke-width:2.5;"/>
    <defs>
     <path d="M 0 1.5 
C 0.397805 1.5 0.77937 1.341951 1.06066 1.06066 
C 1.341951 0.77937 1.5 0.397805 1.5 0 
C 1.5 -0.397805 1.341951 -0.77937 1.06066 -1.06066 
C 0.77937 -1.341951 0.397805 -1.5 0 -1.5 
C -0.397805 -1.5 -0.77937 -1.341951 -1.06066 -1.06066 
C -1.341951 -0.77937 -1.5 -0.397805 -1.5 0 
C -1.5 0.397805 -1.341951 0.77937 -1.06066 1.06066 
C -0.77937 1.341951 -0.397805 1.5 0 1.5 
z
" id="m3050a062b3" style="stroke:#7b113a;"/>
    </defs>
    <g clip-path="url(#peae025db54)">
     <use style="fill:#7b113a;stroke:#7b113a;" x="53.723307" xlink:href="#m3050a062b3" y="283.082727"/>
     <use style="fill:#7b113a;stroke:#7b113a;" x="68.233489" xlink:href="#m3050a062b3" y="276.514091"/>
     <use style="fill:#7b113a;stroke:#7b113a;" x="82.74367" xlink:href="#m3050a062b3" y="269.84119"/>
     <use style="fill:#7b113a;stroke:#7b113a;" x="97.253852" xlink:href="#m3050a062b3" y="261.213339"/>
     <use style="fill:#7b113a;stroke:#7b113a;" x="111.764034" xlink:href="#m3050a062b3" y="254.983561"/>
     <use style="fill:#7b113a;stroke:#7b113a;" x="126.274216" xlink:href="#m3050a062b3" y="251.985969"/>
     <use style="fill:#7b113a;stroke:#7b113a;" x="140.784398" xlink:href="#m3050a062b3" y="242.6804"/>
     <use style="fill:#7b113a;stroke:#7b113a;" x="155.29458" xlink:href="#m3050a062b3" y="231.185287"/>
     <use style="fill:#7b113a;stroke:#7b113a;" x="169.804761" xlink:href="#m3050a062b3" y="222.348907"/>
     <use style="fill:#7b113a;stroke:#7b113a;" x="184.314943" xlink:href="#m3050a062b3" y="211.375114"/>
     <use style="fill:#7b113a;stroke:#7b113a;" x="198.825125" xlink:href="#m3050a062b3" y="236.476688"/>
     <use style="fill:#7b113a;stroke:#7b113a;" x="213.335307" xlink:href="#m3050a062b3" y="223.626142"/>
     <use style="fill:#7b113a;stroke:#7b113a;" x="227.845489" xlink:href="#m3050a062b3" y="202.069545"/>
     <use style="fill:#7b113a;stroke:#7b113a;" x="242.35567" xlink:href="#m3050a062b3" y="198.772194"/>
     <use style="fill:#7b113a;stroke:#7b113a;" x="256.865852" xlink:href="#m3050a062b3" y="186.374079"/>
     <use style="fill:#7b113a;stroke:#7b113a;" x="271.376034" xlink:href="#m3050a062b3" y="177.156018"/>
     <use style="fill:#7b113a;stroke:#7b113a;" x="285.886216" xlink:href="#m3050a062b3" y="177.061064"/>
     <use style="fill:#7b113a;stroke:#7b113a;" x="300.396398" xlink:href="#m3050a062b3" y="181.501596"/>
     <use style="fill:#7b113a;stroke:#7b113a;" x="314.90658" xlink:href="#m3050a062b3" y="184.534563"/>
     <use style="fill:#7b113a;stroke:#7b113a;" x="329.416761" xlink:href="#m3050a062b3" y="191.112509"/>
     <use style="fill:#7b113a;stroke:#7b113a;" x="343.926943" xlink:href="#m3050a062b3" y="201.548225"/>
    </g>
   </g>
   <g id="line2d_31">
    <path clip-path="url(#peae025db54)" d="M 53.723307 283.082727 
L 68.233489 269.945455 
L 82.74367 256.229238 
L 97.253852 237.794678 
L 111.764034 223.985799 
L 126.274216 217.067052 
L 140.784398 194.859346 
L 155.29458 165.433862 
L 169.804761 140.90154 
L 184.314943 107.826886 
L 198.825125 154.719894 
L 213.335307 101.217435 
L 227.845489 38.331164 
L 242.35567 42.583615 
L 256.865852 42.759617 
L 271.376034 43.699559 
L 285.886216 45.359885 
L 300.396398 46.816547 
L 314.90658 49.041059 
L 329.416761 53.87869 
L 343.926943 68.317029 
" style="fill:none;stroke:#150e56;stroke-dasharray:9.25,4;stroke-dashoffset:0;stroke-width:2.5;"/>
    <defs>
     <path d="M 0 -3 
L -3 3 
L 3 3 
z
" id="m41ac9f4b58" style="stroke:#150e56;stroke-linejoin:miter;"/>
    </defs>
    <g clip-path="url(#peae025db54)">
     <use style="fill:#150e56;stroke:#150e56;stroke-linejoin:miter;" x="53.723307" xlink:href="#m41ac9f4b58" y="283.082727"/>
     <use style="fill:#150e56;stroke:#150e56;stroke-linejoin:miter;" x="68.233489" xlink:href="#m41ac9f4b58" y="269.945455"/>
     <use style="fill:#150e56;stroke:#150e56;stroke-linejoin:miter;" x="82.74367" xlink:href="#m41ac9f4b58" y="256.229238"/>
     <use style="fill:#150e56;stroke:#150e56;stroke-linejoin:miter;" x="97.253852" xlink:href="#m41ac9f4b58" y="237.794678"/>
     <use style="fill:#150e56;stroke:#150e56;stroke-linejoin:miter;" x="111.764034" xlink:href="#m41ac9f4b58" y="223.985799"/>
     <use style="fill:#150e56;stroke:#150e56;stroke-linejoin:miter;" x="126.274216" xlink:href="#m41ac9f4b58" y="217.067052"/>
     <use style="fill:#150e56;stroke:#150e56;stroke-linejoin:miter;" x="140.784398" xlink:href="#m41ac9f4b58" y="194.859346"/>
     <use style="fill:#150e56;stroke:#150e56;stroke-linejoin:miter;" x="155.29458" xlink:href="#m41ac9f4b58" y="165.433862"/>
     <use style="fill:#150e56;stroke:#150e56;stroke-linejoin:miter;" x="169.804761" xlink:href="#m41ac9f4b58" y="140.90154"/>
     <use style="fill:#150e56;stroke:#150e56;stroke-linejoin:miter;" x="184.314943" xlink:href="#m41ac9f4b58" y="107.826886"/>
     <use style="fill:#150e56;stroke:#150e56;stroke-linejoin:miter;" x="198.825125" xlink:href="#m41ac9f4b58" y="154.719894"/>
     <use style="fill:#150e56;stroke:#150e56;stroke-linejoin:miter;" x="213.335307" xlink:href="#m41ac9f4b58" y="101.217435"/>
     <use style="fill:#150e56;stroke:#150e56;stroke-linejoin:miter;" x="227.845489" xlink:href="#m41ac9f4b58" y="38.331164"/>
     <use style="fill:#150e56;stroke:#150e56;stroke-linejoin:miter;" x="242.35567" xlink:href="#m41ac9f4b58" y="42.583615"/>
     <use style="fill:#150e56;stroke:#150e56;stroke-linejoin:miter;" x="256.865852" xlink:href="#m41ac9f4b58" y="42.759617"/>
     <use style="fill:#150e56;stroke:#150e56;stroke-linejoin:miter;" x="271.376034" xlink:href="#m41ac9f4b58" y="43.699559"/>
     <use style="fill:#150e56;stroke:#150e56;stroke-linejoin:miter;" x="285.886216" xlink:href="#m41ac9f4b58" y="45.359885"/>
     <use style="fill:#150e56;stroke:#150e56;stroke-linejoin:miter;" x="300.396398" xlink:href="#m41ac9f4b58" y="46.816547"/>
     <use style="fill:#150e56;stroke:#150e56;stroke-linejoin:miter;" x="314.90658" xlink:href="#m41ac9f4b58" y="49.041059"/>
     <use style="fill:#150e56;stroke:#150e56;stroke-linejoin:miter;" x="329.416761" xlink:href="#m41ac9f4b58" y="53.87869"/>
     <use style="fill:#150e56;stroke:#150e56;stroke-linejoin:miter;" x="343.926943" xlink:href="#m41ac9f4b58" y="68.317029"/>
    </g>
   </g>
   <g id="line2d_32">
    <path clip-path="url(#peae025db54)" d="M 53.723307 283.082727 
L 68.233489 269.945455 
L 82.74367 256.619153 
L 97.253852 239.475897 
L 111.764034 227.185823 
L 126.274216 221.325386 
L 140.784398 203.417556 
L 155.29458 182.137547 
L 169.804761 166.714466 
L 184.314943 149.272162 
L 198.825125 204.501866 
L 213.335307 193.432656 
L 227.845489 143.631605 
L 242.35567 116.704607 
L 256.865852 52.880505 
L 271.376034 42.293949 
L 285.886216 45.035394 
L 300.396398 52.218622 
L 314.90658 52.373606 
L 329.416761 68.731777 
L 343.926943 100.363042 
" style="fill:none;stroke:#1597bb;stroke-dasharray:16,4,2.5,4;stroke-dashoffset:0;stroke-width:2.5;"/>
    <defs>
     <path d="M 0 0 
L 0 3 
M 0 0 
L 2.4 -1.5 
M 0 0 
L -2.4 -1.5 
" id="m638ff5cd38" style="stroke:#1597bb;"/>
    </defs>
    <g clip-path="url(#peae025db54)">
     <use style="fill:#1597bb;stroke:#1597bb;" x="53.723307" xlink:href="#m638ff5cd38" y="283.082727"/>
     <use style="fill:#1597bb;stroke:#1597bb;" x="68.233489" xlink:href="#m638ff5cd38" y="269.945455"/>
     <use style="fill:#1597bb;stroke:#1597bb;" x="82.74367" xlink:href="#m638ff5cd38" y="256.619153"/>
     <use style="fill:#1597bb;stroke:#1597bb;" x="97.253852" xlink:href="#m638ff5cd38" y="239.475897"/>
     <use style="fill:#1597bb;stroke:#1597bb;" x="111.764034" xlink:href="#m638ff5cd38" y="227.185823"/>
     <use style="fill:#1597bb;stroke:#1597bb;" x="126.274216" xlink:href="#m638ff5cd38" y="221.325386"/>
     <use style="fill:#1597bb;stroke:#1597bb;" x="140.784398" xlink:href="#m638ff5cd38" y="203.417556"/>
     <use style="fill:#1597bb;stroke:#1597bb;" x="155.29458" xlink:href="#m638ff5cd38" y="182.137547"/>
     <use style="fill:#1597bb;stroke:#1597bb;" x="169.804761" xlink:href="#m638ff5cd38" y="166.714466"/>
     <use style="fill:#1597bb;stroke:#1597bb;" x="184.314943" xlink:href="#m638ff5cd38" y="149.272162"/>
     <use style="fill:#1597bb;stroke:#1597bb;" x="198.825125" xlink:href="#m638ff5cd38" y="204.501866"/>
     <use style="fill:#1597bb;stroke:#1597bb;" x="213.335307" xlink:href="#m638ff5cd38" y="193.432656"/>
     <use style="fill:#1597bb;stroke:#1597bb;" x="227.845489" xlink:href="#m638ff5cd38" y="143.631605"/>
     <use style="fill:#1597bb;stroke:#1597bb;" x="242.35567" xlink:href="#m638ff5cd38" y="116.704607"/>
     <use style="fill:#1597bb;stroke:#1597bb;" x="256.865852" xlink:href="#m638ff5cd38" y="52.880505"/>
     <use style="fill:#1597bb;stroke:#1597bb;" x="271.376034" xlink:href="#m638ff5cd38" y="42.293949"/>
     <use style="fill:#1597bb;stroke:#1597bb;" x="285.886216" xlink:href="#m638ff5cd38" y="45.035394"/>
     <use style="fill:#1597bb;stroke:#1597bb;" x="300.396398" xlink:href="#m638ff5cd38" y="52.218622"/>
     <use style="fill:#1597bb;stroke:#1597bb;" x="314.90658" xlink:href="#m638ff5cd38" y="52.373606"/>
     <use style="fill:#1597bb;stroke:#1597bb;" x="329.416761" xlink:href="#m638ff5cd38" y="68.731777"/>
     <use style="fill:#1597bb;stroke:#1597bb;" x="343.926943" xlink:href="#m638ff5cd38" y="100.363042"/>
    </g>
   </g>
   <g id="line2d_33">
    <path clip-path="url(#peae025db54)" d="M 53.723307 283.082727 
L 68.233489 269.945455 
L 82.74367 256.598627 
L 97.253852 239.333405 
L 111.764034 226.856382 
L 126.274216 220.845875 
L 140.784398 202.129757 
L 155.29458 178.801335 
L 169.804761 160.598241 
L 184.314943 137.366872 
L 198.825125 185.277012 
L 213.335307 155.372877 
L 227.845489 105.51523 
L 242.35567 98.392498 
L 256.865852 60.534369 
L 271.376034 41.767399 
L 285.886216 45.264848 
L 300.396398 56.239494 
L 314.90658 62.76501 
L 329.416761 79.49704 
L 343.926943 103.330371 
" style="fill:none;stroke:#8fd6e1;stroke-dasharray:2.5,4.125;stroke-dashoffset:0;stroke-width:2.5;"/>
    <defs>
     <path d="M -3 3 
L 3 3 
L 3 -3 
L -3 -3 
z
" id="me8815c54e5" style="stroke:#8fd6e1;stroke-linejoin:miter;"/>
    </defs>
    <g clip-path="url(#peae025db54)">
     <use style="fill:#8fd6e1;stroke:#8fd6e1;stroke-linejoin:miter;" x="53.723307" xlink:href="#me8815c54e5" y="283.082727"/>
     <use style="fill:#8fd6e1;stroke:#8fd6e1;stroke-linejoin:miter;" x="68.233489" xlink:href="#me8815c54e5" y="269.945455"/>
     <use style="fill:#8fd6e1;stroke:#8fd6e1;stroke-linejoin:miter;" x="82.74367" xlink:href="#me8815c54e5" y="256.598627"/>
     <use style="fill:#8fd6e1;stroke:#8fd6e1;stroke-linejoin:miter;" x="97.253852" xlink:href="#me8815c54e5" y="239.333405"/>
     <use style="fill:#8fd6e1;stroke:#8fd6e1;stroke-linejoin:miter;" x="111.764034" xlink:href="#me8815c54e5" y="226.856382"/>
     <use style="fill:#8fd6e1;stroke:#8fd6e1;stroke-linejoin:miter;" x="126.274216" xlink:href="#me8815c54e5" y="220.845875"/>
     <use style="fill:#8fd6e1;stroke:#8fd6e1;stroke-linejoin:miter;" x="140.784398" xlink:href="#me8815c54e5" y="202.129757"/>
     <use style="fill:#8fd6e1;stroke:#8fd6e1;stroke-linejoin:miter;" x="155.29458" xlink:href="#me8815c54e5" y="178.801335"/>
     <use style="fill:#8fd6e1;stroke:#8fd6e1;stroke-linejoin:miter;" x="169.804761" xlink:href="#me8815c54e5" y="160.598241"/>
     <use style="fill:#8fd6e1;stroke:#8fd6e1;stroke-linejoin:miter;" x="184.314943" xlink:href="#me8815c54e5" y="137.366872"/>
     <use style="fill:#8fd6e1;stroke:#8fd6e1;stroke-linejoin:miter;" x="198.825125" xlink:href="#me8815c54e5" y="185.277012"/>
     <use style="fill:#8fd6e1;stroke:#8fd6e1;stroke-linejoin:miter;" x="213.335307" xlink:href="#me8815c54e5" y="155.372877"/>
     <use style="fill:#8fd6e1;stroke:#8fd6e1;stroke-linejoin:miter;" x="227.845489" xlink:href="#me8815c54e5" y="105.51523"/>
     <use style="fill:#8fd6e1;stroke:#8fd6e1;stroke-linejoin:miter;" x="242.35567" xlink:href="#me8815c54e5" y="98.392498"/>
     <use style="fill:#8fd6e1;stroke:#8fd6e1;stroke-linejoin:miter;" x="256.865852" xlink:href="#me8815c54e5" y="60.534369"/>
     <use style="fill:#8fd6e1;stroke:#8fd6e1;stroke-linejoin:miter;" x="271.376034" xlink:href="#me8815c54e5" y="41.767399"/>
     <use style="fill:#8fd6e1;stroke:#8fd6e1;stroke-linejoin:miter;" x="285.886216" xlink:href="#me8815c54e5" y="45.264848"/>
     <use style="fill:#8fd6e1;stroke:#8fd6e1;stroke-linejoin:miter;" x="300.396398" xlink:href="#me8815c54e5" y="56.239494"/>
     <use style="fill:#8fd6e1;stroke:#8fd6e1;stroke-linejoin:miter;" x="314.90658" xlink:href="#me8815c54e5" y="62.76501"/>
     <use style="fill:#8fd6e1;stroke:#8fd6e1;stroke-linejoin:miter;" x="329.416761" xlink:href="#me8815c54e5" y="79.49704"/>
     <use style="fill:#8fd6e1;stroke:#8fd6e1;stroke-linejoin:miter;" x="343.926943" xlink:href="#me8815c54e5" y="103.330371"/>
    </g>
   </g>
   <g id="line2d_34">
    <path clip-path="url(#peae025db54)" d="M 53.723307 283.082727 
L 68.233489 269.945455 
L 82.74367 256.599708 
L 97.253852 239.344762 
L 111.764034 226.886821 
L 126.274216 220.893157 
L 140.784398 202.295462 
L 155.29458 179.361755 
L 169.804761 161.792342 
L 184.314943 140.143049 
L 198.825125 191.082853 
L 213.335307 161.189385 
L 227.845489 112.346377 
L 242.35567 103.846596 
L 256.865852 80.592844 
L 271.376034 45.513058 
L 285.886216 45.009748 
L 300.396398 54.69672 
L 314.90658 61.39468 
L 329.416761 76.108778 
L 343.926943 99.71677 
" style="fill:none;stroke:#e02401;stroke-linecap:round;stroke-width:2.5;"/>
    <defs>
     <path d="M 0 -3 
L -0.673542 -0.927051 
L -2.85317 -0.927051 
L -1.089814 0.354102 
L -1.763356 2.427051 
L -0 1.145898 
L 1.763356 2.427051 
L 1.089814 0.354102 
L 2.85317 -0.927051 
L 0.673542 -0.927051 
z
" id="m7b306de648" style="stroke:#e02401;stroke-linejoin:bevel;"/>
    </defs>
    <g clip-path="url(#peae025db54)">
     <use style="fill:#e02401;stroke:#e02401;stroke-linejoin:bevel;" x="53.723307" xlink:href="#m7b306de648" y="283.082727"/>
     <use style="fill:#e02401;stroke:#e02401;stroke-linejoin:bevel;" x="68.233489" xlink:href="#m7b306de648" y="269.945455"/>
     <use style="fill:#e02401;stroke:#e02401;stroke-linejoin:bevel;" x="82.74367" xlink:href="#m7b306de648" y="256.599708"/>
     <use style="fill:#e02401;stroke:#e02401;stroke-linejoin:bevel;" x="97.253852" xlink:href="#m7b306de648" y="239.344762"/>
     <use style="fill:#e02401;stroke:#e02401;stroke-linejoin:bevel;" x="111.764034" xlink:href="#m7b306de648" y="226.886821"/>
     <use style="fill:#e02401;stroke:#e02401;stroke-linejoin:bevel;" x="126.274216" xlink:href="#m7b306de648" y="220.893157"/>
     <use style="fill:#e02401;stroke:#e02401;stroke-linejoin:bevel;" x="140.784398" xlink:href="#m7b306de648" y="202.295462"/>
     <use style="fill:#e02401;stroke:#e02401;stroke-linejoin:bevel;" x="155.29458" xlink:href="#m7b306de648" y="179.361755"/>
     <use style="fill:#e02401;stroke:#e02401;stroke-linejoin:bevel;" x="169.804761" xlink:href="#m7b306de648" y="161.792342"/>
     <use style="fill:#e02401;stroke:#e02401;stroke-linejoin:bevel;" x="184.314943" xlink:href="#m7b306de648" y="140.143049"/>
     <use style="fill:#e02401;stroke:#e02401;stroke-linejoin:bevel;" x="198.825125" xlink:href="#m7b306de648" y="191.082853"/>
     <use style="fill:#e02401;stroke:#e02401;stroke-linejoin:bevel;" x="213.335307" xlink:href="#m7b306de648" y="161.189385"/>
     <use style="fill:#e02401;stroke:#e02401;stroke-linejoin:bevel;" x="227.845489" xlink:href="#m7b306de648" y="112.346377"/>
     <use style="fill:#e02401;stroke:#e02401;stroke-linejoin:bevel;" x="242.35567" xlink:href="#m7b306de648" y="103.846596"/>
     <use style="fill:#e02401;stroke:#e02401;stroke-linejoin:bevel;" x="256.865852" xlink:href="#m7b306de648" y="80.592844"/>
     <use style="fill:#e02401;stroke:#e02401;stroke-linejoin:bevel;" x="271.376034" xlink:href="#m7b306de648" y="45.513058"/>
     <use style="fill:#e02401;stroke:#e02401;stroke-linejoin:bevel;" x="285.886216" xlink:href="#m7b306de648" y="45.009748"/>
     <use style="fill:#e02401;stroke:#e02401;stroke-linejoin:bevel;" x="300.396398" xlink:href="#m7b306de648" y="54.69672"/>
     <use style="fill:#e02401;stroke:#e02401;stroke-linejoin:bevel;" x="314.90658" xlink:href="#m7b306de648" y="61.39468"/>
     <use style="fill:#e02401;stroke:#e02401;stroke-linejoin:bevel;" x="329.416761" xlink:href="#m7b306de648" y="76.108778"/>
     <use style="fill:#e02401;stroke:#e02401;stroke-linejoin:bevel;" x="343.926943" xlink:href="#m7b306de648" y="99.71677"/>
    </g>
   </g>
   <g id="line2d_35">
    <path clip-path="url(#peae025db54)" d="M 53.723307 283.082727 
L 68.233489 269.945455 
L 82.74367 256.559491 
L 97.253852 239.248134 
L 111.764034 226.744961 
L 126.274216 220.726143 
L 140.784398 202.040344 
L 155.29458 178.940864 
L 169.804761 161.161861 
L 184.314943 139.030038 
L 198.825125 189.137697 
L 213.335307 163.12854 
L 227.845489 120.867431 
L 242.35567 114.852503 
L 256.865852 87.460327 
L 271.376034 49.915716 
L 285.886216 44.806111 
L 300.396398 56.630999 
L 314.90658 65.789793 
L 329.416761 82.116126 
L 343.926943 106.135871 
" style="fill:none;stroke:#f78812;stroke-dasharray:9.25,4;stroke-dashoffset:0;stroke-width:2.5;"/>
    <defs>
     <path d="M -3 0 
L 3 0 
M 0 3 
L 0 -3 
" id="m5d1291551f" style="stroke:#f78812;"/>
    </defs>
    <g clip-path="url(#peae025db54)">
     <use style="fill:#f78812;stroke:#f78812;" x="53.723307" xlink:href="#m5d1291551f" y="283.082727"/>
     <use style="fill:#f78812;stroke:#f78812;" x="68.233489" xlink:href="#m5d1291551f" y="269.945455"/>
     <use style="fill:#f78812;stroke:#f78812;" x="82.74367" xlink:href="#m5d1291551f" y="256.559491"/>
     <use style="fill:#f78812;stroke:#f78812;" x="97.253852" xlink:href="#m5d1291551f" y="239.248134"/>
     <use style="fill:#f78812;stroke:#f78812;" x="111.764034" xlink:href="#m5d1291551f" y="226.744961"/>
     <use style="fill:#f78812;stroke:#f78812;" x="126.274216" xlink:href="#m5d1291551f" y="220.726143"/>
     <use style="fill:#f78812;stroke:#f78812;" x="140.784398" xlink:href="#m5d1291551f" y="202.040344"/>
     <use style="fill:#f78812;stroke:#f78812;" x="155.29458" xlink:href="#m5d1291551f" y="178.940864"/>
     <use style="fill:#f78812;stroke:#f78812;" x="169.804761" xlink:href="#m5d1291551f" y="161.161861"/>
     <use style="fill:#f78812;stroke:#f78812;" x="184.314943" xlink:href="#m5d1291551f" y="139.030038"/>
     <use style="fill:#f78812;stroke:#f78812;" x="198.825125" xlink:href="#m5d1291551f" y="189.137697"/>
     <use style="fill:#f78812;stroke:#f78812;" x="213.335307" xlink:href="#m5d1291551f" y="163.12854"/>
     <use style="fill:#f78812;stroke:#f78812;" x="227.845489" xlink:href="#m5d1291551f" y="120.867431"/>
     <use style="fill:#f78812;stroke:#f78812;" x="242.35567" xlink:href="#m5d1291551f" y="114.852503"/>
     <use style="fill:#f78812;stroke:#f78812;" x="256.865852" xlink:href="#m5d1291551f" y="87.460327"/>
     <use style="fill:#f78812;stroke:#f78812;" x="271.376034" xlink:href="#m5d1291551f" y="49.915716"/>
     <use style="fill:#f78812;stroke:#f78812;" x="285.886216" xlink:href="#m5d1291551f" y="44.806111"/>
     <use style="fill:#f78812;stroke:#f78812;" x="300.396398" xlink:href="#m5d1291551f" y="56.630999"/>
     <use style="fill:#f78812;stroke:#f78812;" x="314.90658" xlink:href="#m5d1291551f" y="65.789793"/>
     <use style="fill:#f78812;stroke:#f78812;" x="329.416761" xlink:href="#m5d1291551f" y="82.116126"/>
     <use style="fill:#f78812;stroke:#f78812;" x="343.926943" xlink:href="#m5d1291551f" y="106.135871"/>
    </g>
   </g>
   <g id="line2d_36">
    <path clip-path="url(#peae025db54)" d="M 53.723307 283.082727 
L 68.233489 269.945455 
L 82.74367 256.4548 
L 97.253852 239.00476 
L 111.764034 226.39412 
L 126.274216 220.318662 
L 140.784398 201.465707 
L 155.29458 178.155216 
L 169.804761 160.213824 
L 184.314943 137.913679 
L 198.825125 188.578467 
L 213.335307 158.394343 
L 227.845489 106.816283 
L 242.35567 97.266941 
L 256.865852 69.938868 
L 271.376034 42.711505 
L 285.886216 45.223421 
L 300.396398 54.718603 
L 314.90658 61.045803 
L 329.416761 75.464133 
L 343.926943 98.81812 
" style="fill:none;stroke:#ab6d23;stroke-dasharray:16,4,2.5,4;stroke-dashoffset:0;stroke-width:2.5;"/>
    <defs>
     <path d="M -3 3 
L 3 -3 
M -3 -3 
L 3 3 
" id="m69e367fbbc" style="stroke:#ab6d23;"/>
    </defs>
    <g clip-path="url(#peae025db54)">
     <use style="fill:#ab6d23;stroke:#ab6d23;" x="53.723307" xlink:href="#m69e367fbbc" y="283.082727"/>
     <use style="fill:#ab6d23;stroke:#ab6d23;" x="68.233489" xlink:href="#m69e367fbbc" y="269.945455"/>
     <use style="fill:#ab6d23;stroke:#ab6d23;" x="82.74367" xlink:href="#m69e367fbbc" y="256.4548"/>
     <use style="fill:#ab6d23;stroke:#ab6d23;" x="97.253852" xlink:href="#m69e367fbbc" y="239.00476"/>
     <use style="fill:#ab6d23;stroke:#ab6d23;" x="111.764034" xlink:href="#m69e367fbbc" y="226.39412"/>
     <use style="fill:#ab6d23;stroke:#ab6d23;" x="126.274216" xlink:href="#m69e367fbbc" y="220.318662"/>
     <use style="fill:#ab6d23;stroke:#ab6d23;" x="140.784398" xlink:href="#m69e367fbbc" y="201.465707"/>
     <use style="fill:#ab6d23;stroke:#ab6d23;" x="155.29458" xlink:href="#m69e367fbbc" y="178.155216"/>
     <use style="fill:#ab6d23;stroke:#ab6d23;" x="169.804761" xlink:href="#m69e367fbbc" y="160.213824"/>
     <use style="fill:#ab6d23;stroke:#ab6d23;" x="184.314943" xlink:href="#m69e367fbbc" y="137.913679"/>
     <use style="fill:#ab6d23;stroke:#ab6d23;" x="198.825125" xlink:href="#m69e367fbbc" y="188.578467"/>
     <use style="fill:#ab6d23;stroke:#ab6d23;" x="213.335307" xlink:href="#m69e367fbbc" y="158.394343"/>
     <use style="fill:#ab6d23;stroke:#ab6d23;" x="227.845489" xlink:href="#m69e367fbbc" y="106.816283"/>
     <use style="fill:#ab6d23;stroke:#ab6d23;" x="242.35567" xlink:href="#m69e367fbbc" y="97.266941"/>
     <use style="fill:#ab6d23;stroke:#ab6d23;" x="256.865852" xlink:href="#m69e367fbbc" y="69.938868"/>
     <use style="fill:#ab6d23;stroke:#ab6d23;" x="271.376034" xlink:href="#m69e367fbbc" y="42.711505"/>
     <use style="fill:#ab6d23;stroke:#ab6d23;" x="285.886216" xlink:href="#m69e367fbbc" y="45.223421"/>
     <use style="fill:#ab6d23;stroke:#ab6d23;" x="300.396398" xlink:href="#m69e367fbbc" y="54.718603"/>
     <use style="fill:#ab6d23;stroke:#ab6d23;" x="314.90658" xlink:href="#m69e367fbbc" y="61.045803"/>
     <use style="fill:#ab6d23;stroke:#ab6d23;" x="329.416761" xlink:href="#m69e367fbbc" y="75.464133"/>
     <use style="fill:#ab6d23;stroke:#ab6d23;" x="343.926943" xlink:href="#m69e367fbbc" y="98.81812"/>
    </g>
   </g>
   <g id="line2d_37">
    <path clip-path="url(#peae025db54)" d="M 53.723307 283.082727 
L 68.233489 269.945455 
L 82.74367 256.31754 
L 97.253852 238.688792 
L 111.764034 225.949771 
L 126.274216 219.808426 
L 140.784398 200.762965 
L 155.29458 177.212786 
L 169.804761 159.082007 
L 184.314943 136.539706 
L 198.825125 187.581871 
L 213.335307 161.142156 
L 227.845489 118.688316 
L 242.35567 112.862259 
L 256.865852 85.791526 
L 271.376034 55.005708 
L 285.886216 44.346616 
L 300.396398 56.087301 
L 314.90658 65.104833 
L 329.416761 81.395425 
L 343.926943 105.500635 
" style="fill:none;stroke:#51050f;stroke-dasharray:2.5,4.125;stroke-dashoffset:0;stroke-width:2.5;"/>
    <defs>
     <path d="M 0 4.242641 
L 4.242641 0 
L 0 -4.242641 
L -4.242641 0 
z
" id="m90d788ee2d" style="stroke:#51050f;stroke-linejoin:miter;"/>
    </defs>
    <g clip-path="url(#peae025db54)">
     <use style="fill:#51050f;stroke:#51050f;stroke-linejoin:miter;" x="53.723307" xlink:href="#m90d788ee2d" y="283.082727"/>
     <use style="fill:#51050f;stroke:#51050f;stroke-linejoin:miter;" x="68.233489" xlink:href="#m90d788ee2d" y="269.945455"/>
     <use style="fill:#51050f;stroke:#51050f;stroke-linejoin:miter;" x="82.74367" xlink:href="#m90d788ee2d" y="256.31754"/>
     <use style="fill:#51050f;stroke:#51050f;stroke-linejoin:miter;" x="97.253852" xlink:href="#m90d788ee2d" y="238.688792"/>
     <use style="fill:#51050f;stroke:#51050f;stroke-linejoin:miter;" x="111.764034" xlink:href="#m90d788ee2d" y="225.949771"/>
     <use style="fill:#51050f;stroke:#51050f;stroke-linejoin:miter;" x="126.274216" xlink:href="#m90d788ee2d" y="219.808426"/>
     <use style="fill:#51050f;stroke:#51050f;stroke-linejoin:miter;" x="140.784398" xlink:href="#m90d788ee2d" y="200.762965"/>
     <use style="fill:#51050f;stroke:#51050f;stroke-linejoin:miter;" x="155.29458" xlink:href="#m90d788ee2d" y="177.212786"/>
     <use style="fill:#51050f;stroke:#51050f;stroke-linejoin:miter;" x="169.804761" xlink:href="#m90d788ee2d" y="159.082007"/>
     <use style="fill:#51050f;stroke:#51050f;stroke-linejoin:miter;" x="184.314943" xlink:href="#m90d788ee2d" y="136.539706"/>
     <use style="fill:#51050f;stroke:#51050f;stroke-linejoin:miter;" x="198.825125" xlink:href="#m90d788ee2d" y="187.581871"/>
     <use style="fill:#51050f;stroke:#51050f;stroke-linejoin:miter;" x="213.335307" xlink:href="#m90d788ee2d" y="161.142156"/>
     <use style="fill:#51050f;stroke:#51050f;stroke-linejoin:miter;" x="227.845489" xlink:href="#m90d788ee2d" y="118.688316"/>
     <use style="fill:#51050f;stroke:#51050f;stroke-linejoin:miter;" x="242.35567" xlink:href="#m90d788ee2d" y="112.862259"/>
     <use style="fill:#51050f;stroke:#51050f;stroke-linejoin:miter;" x="256.865852" xlink:href="#m90d788ee2d" y="85.791526"/>
     <use style="fill:#51050f;stroke:#51050f;stroke-linejoin:miter;" x="271.376034" xlink:href="#m90d788ee2d" y="55.005708"/>
     <use style="fill:#51050f;stroke:#51050f;stroke-linejoin:miter;" x="285.886216" xlink:href="#m90d788ee2d" y="44.346616"/>
     <use style="fill:#51050f;stroke:#51050f;stroke-linejoin:miter;" x="300.396398" xlink:href="#m90d788ee2d" y="56.087301"/>
     <use style="fill:#51050f;stroke:#51050f;stroke-linejoin:miter;" x="314.90658" xlink:href="#m90d788ee2d" y="65.104833"/>
     <use style="fill:#51050f;stroke:#51050f;stroke-linejoin:miter;" x="329.416761" xlink:href="#m90d788ee2d" y="81.395425"/>
     <use style="fill:#51050f;stroke:#51050f;stroke-linejoin:miter;" x="343.926943" xlink:href="#m90d788ee2d" y="105.500635"/>
    </g>
   </g>
   <g id="line2d_38">
    <path clip-path="url(#peae025db54)" d="M 39.213125 20.337273 
L 358.437125 20.337273 
" style="fill:none;stroke:#1a1a1a;stroke-linecap:round;stroke-width:1.5;"/>
   </g>
   <g id="patch_3">
    <path d="M 39.213125 296.22 
L 39.213125 7.2 
" style="fill:none;stroke:#1a1a1a;stroke-linecap:square;stroke-linejoin:miter;stroke-width:0.5;"/>
   </g>
   <g id="patch_4">
    <path d="M 358.437125 296.22 
L 358.437125 7.2 
" style="fill:none;stroke:#ffffff;stroke-linecap:square;stroke-linejoin:miter;stroke-width:1.25;"/>
   </g>
   <g id="patch_5">
    <path d="M 39.213125 296.22 
L 358.437125 296.22 
" style="fill:none;stroke:#1a1a1a;stroke-linecap:square;stroke-linejoin:miter;stroke-width:0.5;"/>
   </g>
   <g id="patch_6">
    <path d="M 39.213125 7.2 
L 358.437125 7.2 
" style="fill:none;stroke:#ffffff;stroke-linecap:square;stroke-linejoin:miter;stroke-width:1.25;"/>
   </g>
   <g id="legend_1">
    <g id="patch_7">
     <path d="M 376.598325 149.37475 
L 437.784106 149.37475 
Q 439.984106 149.37475 439.984106 147.17475 
L 439.984106 23.851 
Q 439.984106 21.651 437.784106 21.651 
L 376.598325 21.651 
Q 374.398325 21.651 374.398325 23.851 
L 374.398325 147.17475 
Q 374.398325 149.37475 376.598325 149.37475 
z
" style="fill:#ffffff;opacity:0.5;stroke:#000000;stroke-linejoin:miter;"/>
    </g>
    <g id="line2d_39">
     <path d="M 378.798325 29.901 
L 400.798325 29.901 
" style="fill:none;stroke:#7b113a;stroke-linecap:round;stroke-width:2.5;"/>
    </g>
    <g id="line2d_40">
     <defs>
      <path d="M 0 2.25 
C 0.596707 2.25 1.169055 2.012926 1.59099 1.59099 
C 2.012926 1.169055 2.25 0.596707 2.25 0 
C 2.25 -0.596707 2.012926 -1.169055 1.59099 -1.59099 
C 1.169055 -2.012926 0.596707 -2.25 0 -2.25 
C -0.596707 -2.25 -1.169055 -2.012926 -1.59099 -1.59099 
C -2.012926 -1.169055 -2.25 -0.596707 -2.25 0 
C -2.25 0.596707 -2.012926 1.169055 -1.59099 1.59099 
C -1.169055 2.012926 -0.596707 2.25 0 2.25 
z
" id="mb4b10ec087" style="stroke:#7b113a;"/>
     </defs>
     <g>
      <use style="fill:#7b113a;stroke:#7b113a;" x="389.798325" xlink:href="#mb4b10ec087" y="29.901"/>
     </g>
    </g>
    <g id="text_32">
     <!-- Bus 1 -->
     <g style="fill:#262626;" transform="translate(409.598325 33.751)scale(0.11 -0.11)">
      <use xlink:href="#TimesNewRomanPS-BoldMT-66"/>
      <use x="66.699219" xlink:href="#TimesNewRomanPS-BoldMT-117"/>
      <use x="122.314453" xlink:href="#TimesNewRomanPS-BoldMT-115"/>
      <use x="161.230469" xlink:href="#TimesNewRomanPS-BoldMT-32"/>
      <use x="186.230469" xlink:href="#TimesNewRomanPS-BoldMT-49"/>
     </g>
    </g>
    <g id="line2d_41">
     <path d="M 378.798325 45.453969 
L 400.798325 45.453969 
" style="fill:none;stroke:#150e56;stroke-dasharray:9.25,4;stroke-dashoffset:0;stroke-width:2.5;"/>
    </g>
    <g id="line2d_42">
     <defs>
      <path d="M 0 -4.5 
L -4.5 4.5 
L 4.5 4.5 
z
" id="m8f9e77164c" style="stroke:#150e56;stroke-linejoin:miter;"/>
     </defs>
     <g>
      <use style="fill:#150e56;stroke:#150e56;stroke-linejoin:miter;" x="389.798325" xlink:href="#m8f9e77164c" y="45.453969"/>
     </g>
    </g>
    <g id="text_33">
     <!-- Bus 2 -->
     <g style="fill:#262626;" transform="translate(409.598325 49.303969)scale(0.11 -0.11)">
      <use xlink:href="#TimesNewRomanPS-BoldMT-66"/>
      <use x="66.699219" xlink:href="#TimesNewRomanPS-BoldMT-117"/>
      <use x="122.314453" xlink:href="#TimesNewRomanPS-BoldMT-115"/>
      <use x="161.230469" xlink:href="#TimesNewRomanPS-BoldMT-32"/>
      <use x="186.230469" xlink:href="#TimesNewRomanPS-BoldMT-50"/>
     </g>
    </g>
    <g id="line2d_43">
     <path d="M 378.798325 61.006937 
L 400.798325 61.006937 
" style="fill:none;stroke:#1597bb;stroke-dasharray:16,4,2.5,4;stroke-dashoffset:0;stroke-width:2.5;"/>
    </g>
    <g id="line2d_44">
     <defs>
      <path d="M 0 0 
L 0 4.5 
M 0 0 
L 3.6 -2.25 
M 0 0 
L -3.6 -2.25 
" id="m1a35ce5fb6" style="stroke:#1597bb;"/>
     </defs>
     <g>
      <use style="fill:#1597bb;stroke:#1597bb;" x="389.798325" xlink:href="#m1a35ce5fb6" y="61.006937"/>
     </g>
    </g>
    <g id="text_34">
     <!-- Bus 3 -->
     <g style="fill:#262626;" transform="translate(409.598325 64.856937)scale(0.11 -0.11)">
      <use xlink:href="#TimesNewRomanPS-BoldMT-66"/>
      <use x="66.699219" xlink:href="#TimesNewRomanPS-BoldMT-117"/>
      <use x="122.314453" xlink:href="#TimesNewRomanPS-BoldMT-115"/>
      <use x="161.230469" xlink:href="#TimesNewRomanPS-BoldMT-32"/>
      <use x="186.230469" xlink:href="#TimesNewRomanPS-BoldMT-51"/>
     </g>
    </g>
    <g id="line2d_45">
     <path d="M 378.798325 76.559906 
L 400.798325 76.559906 
" style="fill:none;stroke:#8fd6e1;stroke-dasharray:2.5,4.125;stroke-dashoffset:0;stroke-width:2.5;"/>
    </g>
    <g id="line2d_46">
     <defs>
      <path d="M -4.5 4.5 
L 4.5 4.5 
L 4.5 -4.5 
L -4.5 -4.5 
z
" id="mba76f3ffb7" style="stroke:#8fd6e1;stroke-linejoin:miter;"/>
     </defs>
     <g>
      <use style="fill:#8fd6e1;stroke:#8fd6e1;stroke-linejoin:miter;" x="389.798325" xlink:href="#mba76f3ffb7" y="76.559906"/>
     </g>
    </g>
    <g id="text_35">
     <!-- Bus 4 -->
     <g style="fill:#262626;" transform="translate(409.598325 80.409906)scale(0.11 -0.11)">
      <use xlink:href="#TimesNewRomanPS-BoldMT-66"/>
      <use x="66.699219" xlink:href="#TimesNewRomanPS-BoldMT-117"/>
      <use x="122.314453" xlink:href="#TimesNewRomanPS-BoldMT-115"/>
      <use x="161.230469" xlink:href="#TimesNewRomanPS-BoldMT-32"/>
      <use x="186.230469" xlink:href="#TimesNewRomanPS-BoldMT-52"/>
     </g>
    </g>
    <g id="line2d_47">
     <path d="M 378.798325 92.112875 
L 400.798325 92.112875 
" style="fill:none;stroke:#e02401;stroke-linecap:round;stroke-width:2.5;"/>
    </g>
    <g id="line2d_48">
     <defs>
      <path d="M 0 -4.5 
L -1.010313 -1.390576 
L -4.279754 -1.390576 
L -1.634721 0.531153 
L -2.645034 3.640576 
L -0 1.718847 
L 2.645034 3.640576 
L 1.634721 0.531153 
L 4.279754 -1.390576 
L 1.010313 -1.390576 
z
" id="mf19e892d6e" style="stroke:#e02401;stroke-linejoin:bevel;"/>
     </defs>
     <g>
      <use style="fill:#e02401;stroke:#e02401;stroke-linejoin:bevel;" x="389.798325" xlink:href="#mf19e892d6e" y="92.112875"/>
     </g>
    </g>
    <g id="text_36">
     <!-- Bus 5 -->
     <g style="fill:#262626;" transform="translate(409.598325 95.962875)scale(0.11 -0.11)">
      <use xlink:href="#TimesNewRomanPS-BoldMT-66"/>
      <use x="66.699219" xlink:href="#TimesNewRomanPS-BoldMT-117"/>
      <use x="122.314453" xlink:href="#TimesNewRomanPS-BoldMT-115"/>
      <use x="161.230469" xlink:href="#TimesNewRomanPS-BoldMT-32"/>
      <use x="186.230469" xlink:href="#TimesNewRomanPS-BoldMT-53"/>
     </g>
    </g>
    <g id="line2d_49">
     <path d="M 378.798325 107.665844 
L 400.798325 107.665844 
" style="fill:none;stroke:#f78812;stroke-dasharray:9.25,4;stroke-dashoffset:0;stroke-width:2.5;"/>
    </g>
    <g id="line2d_50">
     <defs>
      <path d="M -4.5 0 
L 4.5 0 
M 0 4.5 
L 0 -4.5 
" id="mc59c619d0a" style="stroke:#f78812;"/>
     </defs>
     <g>
      <use style="fill:#f78812;stroke:#f78812;" x="389.798325" xlink:href="#mc59c619d0a" y="107.665844"/>
     </g>
    </g>
    <g id="text_37">
     <!-- Bus 6 -->
     <g style="fill:#262626;" transform="translate(409.598325 111.515844)scale(0.11 -0.11)">
      <use xlink:href="#TimesNewRomanPS-BoldMT-66"/>
      <use x="66.699219" xlink:href="#TimesNewRomanPS-BoldMT-117"/>
      <use x="122.314453" xlink:href="#TimesNewRomanPS-BoldMT-115"/>
      <use x="161.230469" xlink:href="#TimesNewRomanPS-BoldMT-32"/>
      <use x="186.230469" xlink:href="#TimesNewRomanPS-BoldMT-54"/>
     </g>
    </g>
    <g id="line2d_51">
     <path d="M 378.798325 123.218812 
L 400.798325 123.218812 
" style="fill:none;stroke:#ab6d23;stroke-dasharray:16,4,2.5,4;stroke-dashoffset:0;stroke-width:2.5;"/>
    </g>
    <g id="line2d_52">
     <defs>
      <path d="M -4.5 4.5 
L 4.5 -4.5 
M -4.5 -4.5 
L 4.5 4.5 
" id="mb7cf85624f" style="stroke:#ab6d23;"/>
     </defs>
     <g>
      <use style="fill:#ab6d23;stroke:#ab6d23;" x="389.798325" xlink:href="#mb7cf85624f" y="123.218812"/>
     </g>
    </g>
    <g id="text_38">
     <!-- Bus 7 -->
     <g style="fill:#262626;" transform="translate(409.598325 127.068812)scale(0.11 -0.11)">
      <use xlink:href="#TimesNewRomanPS-BoldMT-66"/>
      <use x="66.699219" xlink:href="#TimesNewRomanPS-BoldMT-117"/>
      <use x="122.314453" xlink:href="#TimesNewRomanPS-BoldMT-115"/>
      <use x="161.230469" xlink:href="#TimesNewRomanPS-BoldMT-32"/>
      <use x="186.230469" xlink:href="#TimesNewRomanPS-BoldMT-55"/>
     </g>
    </g>
    <g id="line2d_53">
     <path d="M 378.798325 138.771781 
L 400.798325 138.771781 
" style="fill:none;stroke:#51050f;stroke-dasharray:2.5,4.125;stroke-dashoffset:0;stroke-width:2.5;"/>
    </g>
    <g id="line2d_54">
     <defs>
      <path d="M 0 6.363961 
L 6.363961 0 
L 0 -6.363961 
L -6.363961 0 
z
" id="m712cb9ec7a" style="stroke:#51050f;stroke-linejoin:miter;"/>
     </defs>
     <g>
      <use style="fill:#51050f;stroke:#51050f;stroke-linejoin:miter;" x="389.798325" xlink:href="#m712cb9ec7a" y="138.771781"/>
     </g>
    </g>
    <g id="text_39">
     <!-- Bus 8 -->
     <g style="fill:#262626;" transform="translate(409.598325 142.621781)scale(0.11 -0.11)">
      <use xlink:href="#TimesNewRomanPS-BoldMT-66"/>
      <use x="66.699219" xlink:href="#TimesNewRomanPS-BoldMT-117"/>
      <use x="122.314453" xlink:href="#TimesNewRomanPS-BoldMT-115"/>
      <use x="161.230469" xlink:href="#TimesNewRomanPS-BoldMT-32"/>
      <use x="186.230469" xlink:href="#TimesNewRomanPS-BoldMT-56"/>
     </g>
    </g>
   </g>
  </g>
 </g>
 <defs>
  <clipPath id="peae025db54">
   <rect height="289.02" width="319.224" x="39.213125" y="7.2"/>
  </clipPath>
 </defs>
</svg>
