<?xml version="1.0" encoding="utf-8" standalone="no"?>
<!DOCTYPE svg PUBLIC "-//W3C//DTD SVG 1.1//EN"
  "http://www.w3.org/Graphics/SVG/1.1/DTD/svg11.dtd">
<svg xmlns:xlink="http://www.w3.org/1999/xlink" width="447.134075pt" height="333.350156pt" viewBox="0 0 447.134075 333.350156" xmlns="http://www.w3.org/2000/svg" version="1.1">
 <metadata>
  <rdf:RDF xmlns:dc="http://purl.org/dc/elements/1.1/" xmlns:cc="http://creativecommons.org/ns#" xmlns:rdf="http://www.w3.org/1999/02/22-rdf-syntax-ns#">
   <cc:Work>
    <dc:type rdf:resource="http://purl.org/dc/dcmitype/StillImage"/>
    <dc:date>2022-02-28T16:33:23.569476</dc:date>
    <dc:format>image/svg+xml</dc:format>
    <dc:creator>
     <cc:Agent>
      <dc:title>Matplotlib v3.5.1, https://matplotlib.org/</dc:title>
     </cc:Agent>
    </dc:creator>
   </cc:Work>
  </rdf:RDF>
 </metadata>
 <defs>
  <style type="text/css">*{stroke-linejoin: round; stroke-linecap: butt}</style>
 </defs>
 <g id="figure_1">
  <g id="patch_1">
   <path d="M 0 333.350156 
L 447.134075 333.350156 
L 447.134075 0 
L 0 0 
z
" style="fill: #ffffff"/>
  </g>
  <g id="axes_1">
   <g id="patch_2">
    <path d="M 39.213125 295.5 
L 358.977125 295.5 
L 358.977125 7.2 
L 39.213125 7.2 
z
" style="fill: #ffffff"/>
   </g>
   <g id="matplotlib.axis_1">
    <g id="xtick_1">
     <g id="line2d_1">
      <defs>
       <path id="m4c6b13bd28" d="M 0 3 
L 0 -3 
" style="stroke: #262626; stroke-width: 1.5"/>
      </defs>
      <g>
       <use xlink:href="#m4c6b13bd28" x="53.747852" y="295.5" style="fill: #262626; stroke: #262626; stroke-width: 1.5"/>
      </g>
     </g>
     <g id="text_1">
      <!-- 1 -->
      <g style="fill: #262626" transform="translate(50.997852 309.284062)scale(0.11 -0.11)">
       <defs>
        <path id="TimesNewRomanPS-BoldMT-31" d="M 2084 4325 
L 2084 859 
Q 2084 469 2118 361 
Q 2153 253 2262 184 
Q 2372 116 2613 116 
L 2709 116 
L 2709 0 
L 478 0 
L 478 116 
L 591 116 
Q 863 116 978 178 
Q 1094 241 1134 350 
Q 1175 459 1175 859 
L 1175 3056 
Q 1175 3350 1147 3423 
Q 1119 3497 1042 3548 
Q 966 3600 866 3600 
Q 706 3600 478 3500 
L 422 3613 
L 1981 4325 
L 2084 4325 
z
" transform="scale(0.015625)"/>
       </defs>
       <use xlink:href="#TimesNewRomanPS-BoldMT-31"/>
      </g>
     </g>
    </g>
    <g id="xtick_2">
     <g id="line2d_2">
      <g>
       <use xlink:href="#m4c6b13bd28" x="68.28258" y="295.5" style="fill: #262626; stroke: #262626; stroke-width: 1.5"/>
      </g>
     </g>
     <g id="text_2">
      <!-- 2 -->
      <g style="fill: #262626" transform="translate(65.53258 309.284062)scale(0.11 -0.11)">
       <defs>
        <path id="TimesNewRomanPS-BoldMT-32" d="M 2650 0 
L 156 0 
L 156 69 
Q 1303 1434 1548 1906 
Q 1794 2378 1794 2828 
Q 1794 3156 1591 3373 
Q 1388 3591 1094 3591 
Q 613 3591 347 3109 
L 231 3150 
Q 400 3750 744 4037 
Q 1088 4325 1538 4325 
Q 1859 4325 2125 4175 
Q 2391 4025 2541 3764 
Q 2691 3503 2691 3275 
Q 2691 2859 2459 2431 
Q 2144 1853 1081 819 
L 1997 819 
Q 2334 819 2436 847 
Q 2538 875 2603 942 
Q 2669 1009 2775 1225 
L 2888 1225 
L 2650 0 
z
" transform="scale(0.015625)"/>
       </defs>
       <use xlink:href="#TimesNewRomanPS-BoldMT-32"/>
      </g>
     </g>
    </g>
    <g id="xtick_3">
     <g id="line2d_3">
      <g>
       <use xlink:href="#m4c6b13bd28" x="82.817307" y="295.5" style="fill: #262626; stroke: #262626; stroke-width: 1.5"/>
      </g>
     </g>
     <g id="text_3">
      <!-- 3 -->
      <g style="fill: #262626" transform="translate(80.067307 309.284062)scale(0.11 -0.11)">
       <defs>
        <path id="TimesNewRomanPS-BoldMT-33" d="M 947 2125 
L 947 2234 
Q 1303 2338 1440 2427 
Q 1578 2516 1678 2698 
Q 1778 2881 1778 3069 
Q 1778 3328 1589 3514 
Q 1400 3700 1119 3700 
Q 681 3700 375 3238 
L 259 3278 
Q 484 3800 836 4062 
Q 1188 4325 1619 4325 
Q 2059 4325 2345 4056 
Q 2631 3788 2631 3428 
Q 2631 3194 2498 2976 
Q 2366 2759 2081 2594 
Q 2447 2416 2639 2155 
Q 2831 1894 2831 1500 
Q 2831 838 2351 373 
Q 1872 -91 1066 -91 
Q 528 -91 281 88 
Q 103 213 103 409 
Q 103 553 206 654 
Q 309 756 444 756 
Q 547 756 638 713 
Q 688 688 992 439 
Q 1297 191 1563 191 
Q 1794 191 1959 373 
Q 2125 556 2125 838 
Q 2125 1266 1825 1627 
Q 1525 1988 947 2125 
z
" transform="scale(0.015625)"/>
       </defs>
       <use xlink:href="#TimesNewRomanPS-BoldMT-33"/>
      </g>
     </g>
    </g>
    <g id="xtick_4">
     <g id="line2d_4">
      <g>
       <use xlink:href="#m4c6b13bd28" x="97.352034" y="295.5" style="fill: #262626; stroke: #262626; stroke-width: 1.5"/>
      </g>
     </g>
     <g id="text_4">
      <!-- 4 -->
      <g style="fill: #262626" transform="translate(94.602034 309.284062)scale(0.11 -0.11)">
       <defs>
        <path id="TimesNewRomanPS-BoldMT-34" d="M 159 1597 
L 2172 4325 
L 2553 4325 
L 2553 1597 
L 2941 1597 
L 2941 950 
L 2553 950 
L 2553 0 
L 1694 0 
L 1694 950 
L 159 950 
L 159 1597 
z
M 463 1597 
L 1694 1597 
L 1694 3269 
L 463 1597 
z
" transform="scale(0.015625)"/>
       </defs>
       <use xlink:href="#TimesNewRomanPS-BoldMT-34"/>
      </g>
     </g>
    </g>
    <g id="xtick_5">
     <g id="line2d_5">
      <g>
       <use xlink:href="#m4c6b13bd28" x="111.886761" y="295.5" style="fill: #262626; stroke: #262626; stroke-width: 1.5"/>
      </g>
     </g>
     <g id="text_5">
      <!-- 5 -->
      <g style="fill: #262626" transform="translate(109.136761 309.284062)scale(0.11 -0.11)">
       <defs>
        <path id="TimesNewRomanPS-BoldMT-35" d="M 975 4238 
L 2959 4238 
L 2644 3431 
L 975 3431 
L 816 3009 
Q 1894 2969 2475 2472 
Q 2953 2063 2953 1453 
Q 2953 1063 2731 689 
Q 2509 316 2106 114 
Q 1703 -88 1222 -88 
Q 703 -88 425 106 
Q 231 244 231 419 
Q 231 553 332 656 
Q 434 759 569 759 
Q 691 759 816 709 
Q 941 659 1244 447 
Q 1434 316 1572 266 
Q 1669 228 1791 228 
Q 2047 228 2226 415 
Q 2406 603 2406 866 
Q 2406 1416 1856 1759 
Q 1306 2103 469 2103 
Q 384 2103 216 2100 
L 975 4238 
z
" transform="scale(0.015625)"/>
       </defs>
       <use xlink:href="#TimesNewRomanPS-BoldMT-35"/>
      </g>
     </g>
    </g>
    <g id="xtick_6">
     <g id="line2d_6">
      <g>
       <use xlink:href="#m4c6b13bd28" x="126.421489" y="295.5" style="fill: #262626; stroke: #262626; stroke-width: 1.5"/>
      </g>
     </g>
     <g id="text_6">
      <!-- 6 -->
      <g style="fill: #262626" transform="translate(123.671489 309.284062)scale(0.11 -0.11)">
       <defs>
        <path id="TimesNewRomanPS-BoldMT-36" d="M 3006 4325 
L 3006 4238 
Q 2441 4094 2098 3867 
Q 1756 3641 1557 3317 
Q 1359 2994 1250 2516 
Q 1388 2609 1478 2638 
Q 1681 2700 1888 2700 
Q 2363 2700 2680 2354 
Q 2997 2009 2997 1413 
Q 2997 994 2825 644 
Q 2653 294 2337 103 
Q 2022 -88 1663 -88 
Q 1272 -88 940 126 
Q 609 341 423 753 
Q 238 1166 238 1650 
Q 238 2363 580 2977 
Q 922 3591 1551 3955 
Q 2181 4319 3006 4325 
z
M 1209 2263 
Q 1184 1831 1184 1631 
Q 1184 1200 1267 797 
Q 1350 394 1494 231 
Q 1597 116 1738 116 
Q 1881 116 1993 283 
Q 2106 450 2106 963 
Q 2106 1825 1897 2153 
Q 1763 2366 1534 2366 
Q 1409 2366 1209 2263 
z
" transform="scale(0.015625)"/>
       </defs>
       <use xlink:href="#TimesNewRomanPS-BoldMT-36"/>
      </g>
     </g>
    </g>
    <g id="xtick_7">
     <g id="line2d_7">
      <g>
       <use xlink:href="#m4c6b13bd28" x="140.956216" y="295.5" style="fill: #262626; stroke: #262626; stroke-width: 1.5"/>
      </g>
     </g>
     <g id="text_7">
      <!-- 7 -->
      <g style="fill: #262626" transform="translate(138.206216 309.284062)scale(0.11 -0.11)">
       <defs>
        <path id="TimesNewRomanPS-BoldMT-37" d="M 1134 -88 
L 2288 3409 
L 1409 3409 
Q 894 3409 634 3275 
Q 453 3181 334 2922 
L 216 2922 
L 522 4238 
L 3047 4238 
L 1625 -88 
L 1134 -88 
z
" transform="scale(0.015625)"/>
       </defs>
       <use xlink:href="#TimesNewRomanPS-BoldMT-37"/>
      </g>
     </g>
    </g>
    <g id="xtick_8">
     <g id="line2d_8">
      <g>
       <use xlink:href="#m4c6b13bd28" x="155.490943" y="295.5" style="fill: #262626; stroke: #262626; stroke-width: 1.5"/>
      </g>
     </g>
     <g id="text_8">
      <!-- 8 -->
      <g style="fill: #262626" transform="translate(152.740943 309.284062)scale(0.11 -0.11)">
       <defs>
        <path id="TimesNewRomanPS-BoldMT-38" d="M 2181 2394 
Q 2628 2066 2801 1783 
Q 2975 1500 2975 1134 
Q 2975 622 2589 267 
Q 2203 -88 1541 -88 
Q 913 -88 569 221 
Q 225 531 225 978 
Q 225 1319 423 1575 
Q 622 1831 1084 2044 
Q 581 2428 439 2672 
Q 297 2916 297 3238 
Q 297 3663 658 3986 
Q 1019 4309 1647 4309 
Q 2253 4309 2579 4023 
Q 2906 3738 2906 3338 
Q 2906 3038 2729 2808 
Q 2553 2578 2181 2394 
z
M 1944 2553 
Q 2059 2709 2115 2903 
Q 2172 3097 2172 3328 
Q 2172 3734 1997 3950 
Q 1866 4116 1634 4116 
Q 1425 4116 1278 3964 
Q 1131 3813 1131 3588 
Q 1131 3359 1295 3114 
Q 1459 2869 1944 2553 
z
M 1319 1894 
Q 1222 1806 1181 1734 
Q 1119 1625 1069 1415 
Q 1019 1206 1019 978 
Q 1019 684 1094 486 
Q 1169 288 1308 200 
Q 1447 113 1594 113 
Q 1822 113 1978 280 
Q 2134 447 2134 738 
Q 2134 1344 1319 1894 
z
" transform="scale(0.015625)"/>
       </defs>
       <use xlink:href="#TimesNewRomanPS-BoldMT-38"/>
      </g>
     </g>
    </g>
    <g id="xtick_9">
     <g id="line2d_9">
      <g>
       <use xlink:href="#m4c6b13bd28" x="170.02567" y="295.5" style="fill: #262626; stroke: #262626; stroke-width: 1.5"/>
      </g>
     </g>
     <g id="text_9">
      <!-- 9 -->
      <g style="fill: #262626" transform="translate(167.27567 309.284062)scale(0.11 -0.11)">
       <defs>
        <path id="TimesNewRomanPS-BoldMT-39" d="M 197 -88 
L 197 0 
Q 716 119 1077 350 
Q 1438 581 1648 922 
Q 1859 1263 1944 1706 
Q 1750 1606 1614 1567 
Q 1478 1528 1328 1528 
Q 847 1528 526 1875 
Q 206 2222 206 2825 
Q 206 3244 379 3592 
Q 553 3941 875 4133 
Q 1197 4325 1544 4325 
Q 1916 4325 2247 4112 
Q 2578 3900 2775 3497 
Q 2972 3094 2972 2578 
Q 2972 1909 2651 1296 
Q 2331 684 1697 314 
Q 1063 -56 197 -88 
z
M 1991 1969 
Q 2022 2319 2022 2584 
Q 2022 3153 1891 3644 
Q 1816 3916 1669 4044 
Q 1591 4113 1466 4113 
Q 1309 4113 1222 3978 
Q 1100 3794 1100 3275 
Q 1100 2409 1306 2081 
Q 1441 1869 1669 1869 
Q 1791 1869 1991 1969 
z
" transform="scale(0.015625)"/>
       </defs>
       <use xlink:href="#TimesNewRomanPS-BoldMT-39"/>
      </g>
     </g>
    </g>
    <g id="xtick_10">
     <g id="line2d_10">
      <g>
       <use xlink:href="#m4c6b13bd28" x="184.560398" y="295.5" style="fill: #262626; stroke: #262626; stroke-width: 1.5"/>
      </g>
     </g>
     <g id="text_10">
      <!-- 10 -->
      <g style="fill: #262626" transform="translate(179.060398 309.284062)scale(0.11 -0.11)">
       <defs>
        <path id="TimesNewRomanPS-BoldMT-30" d="M 2966 2119 
Q 2966 1484 2788 934 
Q 2681 597 2501 381 
Q 2322 166 2094 39 
Q 1866 -88 1597 -88 
Q 1291 -88 1044 68 
Q 797 225 606 516 
Q 469 728 366 1081 
Q 231 1559 231 2069 
Q 231 2759 425 3338 
Q 584 3816 909 4070 
Q 1234 4325 1597 4325 
Q 1966 4325 2286 4073 
Q 2606 3822 2756 3397 
Q 2966 2813 2966 2119 
z
M 2003 2125 
Q 2003 3238 1991 3422 
Q 1959 3856 1841 4009 
Q 1763 4109 1588 4109 
Q 1453 4109 1375 4034 
Q 1259 3925 1218 3648 
Q 1178 3372 1178 1719 
Q 1178 819 1241 513 
Q 1288 291 1375 216 
Q 1463 141 1606 141 
Q 1763 141 1841 241 
Q 1972 416 1991 781 
L 2003 2125 
z
" transform="scale(0.015625)"/>
       </defs>
       <use xlink:href="#TimesNewRomanPS-BoldMT-31"/>
       <use xlink:href="#TimesNewRomanPS-BoldMT-30" x="50"/>
      </g>
     </g>
    </g>
    <g id="xtick_11">
     <g id="line2d_11">
      <g>
       <use xlink:href="#m4c6b13bd28" x="199.095125" y="295.5" style="fill: #262626; stroke: #262626; stroke-width: 1.5"/>
      </g>
     </g>
     <g id="text_11">
      <!-- 11 -->
      <g style="fill: #262626" transform="translate(193.897625 309.284062)scale(0.11 -0.11)">
       <use xlink:href="#TimesNewRomanPS-BoldMT-31"/>
       <use xlink:href="#TimesNewRomanPS-BoldMT-31" x="44.5"/>
      </g>
     </g>
    </g>
    <g id="xtick_12">
     <g id="line2d_12">
      <g>
       <use xlink:href="#m4c6b13bd28" x="213.629852" y="295.5" style="fill: #262626; stroke: #262626; stroke-width: 1.5"/>
      </g>
     </g>
     <g id="text_12">
      <!-- 12 -->
      <g style="fill: #262626" transform="translate(208.129852 309.284062)scale(0.11 -0.11)">
       <use xlink:href="#TimesNewRomanPS-BoldMT-31"/>
       <use xlink:href="#TimesNewRomanPS-BoldMT-32" x="50"/>
      </g>
     </g>
    </g>
    <g id="xtick_13">
     <g id="line2d_13">
      <g>
       <use xlink:href="#m4c6b13bd28" x="228.16458" y="295.5" style="fill: #262626; stroke: #262626; stroke-width: 1.5"/>
      </g>
     </g>
     <g id="text_13">
      <!-- 13 -->
      <g style="fill: #262626" transform="translate(222.66458 309.284062)scale(0.11 -0.11)">
       <use xlink:href="#TimesNewRomanPS-BoldMT-31"/>
       <use xlink:href="#TimesNewRomanPS-BoldMT-33" x="50"/>
      </g>
     </g>
    </g>
    <g id="xtick_14">
     <g id="line2d_14">
      <g>
       <use xlink:href="#m4c6b13bd28" x="242.699307" y="295.5" style="fill: #262626; stroke: #262626; stroke-width: 1.5"/>
      </g>
     </g>
     <g id="text_14">
      <!-- 14 -->
      <g style="fill: #262626" transform="translate(237.199307 309.284062)scale(0.11 -0.11)">
       <use xlink:href="#TimesNewRomanPS-BoldMT-31"/>
       <use xlink:href="#TimesNewRomanPS-BoldMT-34" x="50"/>
      </g>
     </g>
    </g>
    <g id="xtick_15">
     <g id="line2d_15">
      <g>
       <use xlink:href="#m4c6b13bd28" x="257.234034" y="295.5" style="fill: #262626; stroke: #262626; stroke-width: 1.5"/>
      </g>
     </g>
     <g id="text_15">
      <!-- 15 -->
      <g style="fill: #262626" transform="translate(251.734034 309.284062)scale(0.11 -0.11)">
       <use xlink:href="#TimesNewRomanPS-BoldMT-31"/>
       <use xlink:href="#TimesNewRomanPS-BoldMT-35" x="50"/>
      </g>
     </g>
    </g>
    <g id="xtick_16">
     <g id="line2d_16">
      <g>
       <use xlink:href="#m4c6b13bd28" x="271.768761" y="295.5" style="fill: #262626; stroke: #262626; stroke-width: 1.5"/>
      </g>
     </g>
     <g id="text_16">
      <!-- 16 -->
      <g style="fill: #262626" transform="translate(266.268761 309.284062)scale(0.11 -0.11)">
       <use xlink:href="#TimesNewRomanPS-BoldMT-31"/>
       <use xlink:href="#TimesNewRomanPS-BoldMT-36" x="50"/>
      </g>
     </g>
    </g>
    <g id="xtick_17">
     <g id="line2d_17">
      <g>
       <use xlink:href="#m4c6b13bd28" x="286.303489" y="295.5" style="fill: #262626; stroke: #262626; stroke-width: 1.5"/>
      </g>
     </g>
     <g id="text_17">
      <!-- 17 -->
      <g style="fill: #262626" transform="translate(280.803489 309.284062)scale(0.11 -0.11)">
       <use xlink:href="#TimesNewRomanPS-BoldMT-31"/>
       <use xlink:href="#TimesNewRomanPS-BoldMT-37" x="50"/>
      </g>
     </g>
    </g>
    <g id="xtick_18">
     <g id="line2d_18">
      <g>
       <use xlink:href="#m4c6b13bd28" x="300.838216" y="295.5" style="fill: #262626; stroke: #262626; stroke-width: 1.5"/>
      </g>
     </g>
     <g id="text_18">
      <!-- 18 -->
      <g style="fill: #262626" transform="translate(295.338216 309.284062)scale(0.11 -0.11)">
       <use xlink:href="#TimesNewRomanPS-BoldMT-31"/>
       <use xlink:href="#TimesNewRomanPS-BoldMT-38" x="50"/>
      </g>
     </g>
    </g>
    <g id="xtick_19">
     <g id="line2d_19">
      <g>
       <use xlink:href="#m4c6b13bd28" x="315.372943" y="295.5" style="fill: #262626; stroke: #262626; stroke-width: 1.5"/>
      </g>
     </g>
     <g id="text_19">
      <!-- 19 -->
      <g style="fill: #262626" transform="translate(309.872943 309.284062)scale(0.11 -0.11)">
       <use xlink:href="#TimesNewRomanPS-BoldMT-31"/>
       <use xlink:href="#TimesNewRomanPS-BoldMT-39" x="50"/>
      </g>
     </g>
    </g>
    <g id="xtick_20">
     <g id="line2d_20">
      <g>
       <use xlink:href="#m4c6b13bd28" x="329.90767" y="295.5" style="fill: #262626; stroke: #262626; stroke-width: 1.5"/>
      </g>
     </g>
     <g id="text_20">
      <!-- 20 -->
      <g style="fill: #262626" transform="translate(324.40767 309.284062)scale(0.11 -0.11)">
       <use xlink:href="#TimesNewRomanPS-BoldMT-32"/>
       <use xlink:href="#TimesNewRomanPS-BoldMT-30" x="50"/>
      </g>
     </g>
    </g>
    <g id="xtick_21">
     <g id="line2d_21">
      <g>
       <use xlink:href="#m4c6b13bd28" x="344.442398" y="295.5" style="fill: #262626; stroke: #262626; stroke-width: 1.5"/>
      </g>
     </g>
     <g id="text_21">
      <!-- 21 -->
      <g style="fill: #262626" transform="translate(338.942398 309.284062)scale(0.11 -0.11)">
       <use xlink:href="#TimesNewRomanPS-BoldMT-32"/>
       <use xlink:href="#TimesNewRomanPS-BoldMT-31" x="50"/>
      </g>
     </g>
    </g>
    <g id="text_22">
     <!-- Bus Stations -->
     <g style="fill: #262626" transform="translate(167.250125 323.583281)scale(0.12 -0.12)">
      <defs>
       <path id="TimesNewRomanPS-BoldMT-42" d="M 2847 2247 
Q 3450 2106 3694 1906 
Q 4044 1622 4044 1169 
Q 4044 691 3659 378 
Q 3188 0 2288 0 
L 134 0 
L 134 116 
Q 428 116 533 170 
Q 638 225 680 312 
Q 722 400 722 744 
L 722 3494 
Q 722 3838 680 3927 
Q 638 4016 531 4069 
Q 425 4122 134 4122 
L 134 4238 
L 2166 4238 
Q 2894 4238 3197 4108 
Q 3500 3978 3675 3720 
Q 3850 3463 3850 3172 
Q 3850 2866 3628 2627 
Q 3406 2388 2847 2247 
z
M 1709 2331 
Q 2153 2331 2364 2431 
Q 2575 2531 2687 2712 
Q 2800 2894 2800 3175 
Q 2800 3456 2689 3636 
Q 2578 3816 2372 3909 
Q 2166 4003 1709 4000 
L 1709 2331 
z
M 1709 2088 
L 1709 728 
L 1706 572 
Q 1706 403 1792 317 
Q 1878 231 2047 231 
Q 2297 231 2508 342 
Q 2719 453 2831 664 
Q 2944 875 2944 1134 
Q 2944 1431 2806 1667 
Q 2669 1903 2428 1997 
Q 2188 2091 1709 2088 
z
" transform="scale(0.015625)"/>
       <path id="TimesNewRomanPS-BoldMT-75" d="M 3038 2922 
L 3038 634 
Q 3038 300 3100 217 
Q 3163 134 3353 113 
L 3353 0 
L 2163 0 
L 2163 391 
Q 1953 141 1743 26 
Q 1534 -88 1275 -88 
Q 1028 -88 836 64 
Q 644 216 578 419 
Q 513 622 513 1128 
L 513 2288 
Q 513 2619 452 2700 
Q 391 2781 197 2806 
L 197 2922 
L 1388 2922 
L 1388 925 
Q 1388 613 1417 522 
Q 1447 431 1511 384 
Q 1575 338 1659 338 
Q 1772 338 1863 397 
Q 1988 478 2163 725 
L 2163 2288 
Q 2163 2619 2102 2700 
Q 2041 2781 1847 2806 
L 1847 2922 
L 3038 2922 
z
" transform="scale(0.015625)"/>
       <path id="TimesNewRomanPS-BoldMT-73" d="M 2063 3003 
L 2109 2006 
L 2003 2006 
Q 1813 2450 1608 2612 
Q 1403 2775 1200 2775 
Q 1072 2775 981 2689 
Q 891 2603 891 2491 
Q 891 2406 953 2328 
Q 1053 2200 1512 1889 
Q 1972 1578 2117 1361 
Q 2263 1144 2263 875 
Q 2263 631 2141 397 
Q 2019 163 1797 37 
Q 1575 -88 1306 -88 
Q 1097 -88 747 44 
Q 653 78 619 78 
Q 516 78 447 -78 
L 344 -78 
L 294 972 
L 400 972 
Q 541 559 786 353 
Q 1031 147 1250 147 
Q 1400 147 1495 239 
Q 1591 331 1591 463 
Q 1591 613 1497 722 
Q 1403 831 1078 1053 
Q 600 1384 459 1559 
Q 253 1816 253 2125 
Q 253 2463 486 2736 
Q 719 3009 1159 3009 
Q 1397 3009 1619 2894 
Q 1703 2847 1756 2847 
Q 1813 2847 1847 2870 
Q 1881 2894 1956 3003 
L 2063 3003 
z
" transform="scale(0.015625)"/>
       <path id="TimesNewRomanPS-BoldMT-20" transform="scale(0.015625)"/>
       <path id="TimesNewRomanPS-BoldMT-53" d="M 3006 4334 
L 3041 2922 
L 2913 2922 
Q 2822 3453 2467 3776 
Q 2113 4100 1700 4100 
Q 1381 4100 1195 3929 
Q 1009 3759 1009 3538 
Q 1009 3397 1075 3288 
Q 1166 3141 1366 2997 
Q 1513 2894 2044 2631 
Q 2788 2266 3047 1941 
Q 3303 1616 3303 1197 
Q 3303 666 2889 283 
Q 2475 -100 1838 -100 
Q 1638 -100 1459 -59 
Q 1281 -19 1013 94 
Q 863 156 766 156 
Q 684 156 593 93 
Q 503 31 447 -97 
L 331 -97 
L 331 1503 
L 447 1503 
Q 584 828 976 473 
Q 1369 119 1822 119 
Q 2172 119 2380 309 
Q 2588 500 2588 753 
Q 2588 903 2508 1043 
Q 2428 1184 2265 1311 
Q 2103 1438 1691 1641 
Q 1113 1925 859 2125 
Q 606 2325 470 2572 
Q 334 2819 334 3116 
Q 334 3622 706 3978 
Q 1078 4334 1644 4334 
Q 1850 4334 2044 4284 
Q 2191 4247 2402 4145 
Q 2613 4044 2697 4044 
Q 2778 4044 2825 4094 
Q 2872 4144 2913 4334 
L 3006 4334 
z
" transform="scale(0.015625)"/>
       <path id="TimesNewRomanPS-BoldMT-74" d="M 1375 3991 
L 1375 2922 
L 2069 2922 
L 2069 2613 
L 1375 2613 
L 1375 809 
Q 1375 556 1398 482 
Q 1422 409 1481 364 
Q 1541 319 1591 319 
Q 1794 319 1975 628 
L 2069 559 
Q 1816 -41 1247 -41 
Q 969 -41 776 114 
Q 584 269 531 459 
Q 500 566 500 1034 
L 500 2613 
L 119 2613 
L 119 2722 
Q 513 3000 789 3306 
Q 1066 3613 1272 3991 
L 1375 3991 
z
" transform="scale(0.015625)"/>
       <path id="TimesNewRomanPS-BoldMT-61" d="M 1828 431 
Q 1294 -41 869 -41 
Q 619 -41 453 123 
Q 288 288 288 534 
Q 288 869 575 1136 
Q 863 1403 1828 1847 
L 1828 2141 
Q 1828 2472 1792 2558 
Q 1756 2644 1656 2708 
Q 1556 2772 1431 2772 
Q 1228 2772 1097 2681 
Q 1016 2625 1016 2550 
Q 1016 2484 1103 2388 
Q 1222 2253 1222 2128 
Q 1222 1975 1108 1867 
Q 994 1759 809 1759 
Q 613 1759 480 1878 
Q 347 1997 347 2156 
Q 347 2381 525 2586 
Q 703 2791 1022 2900 
Q 1341 3009 1684 3009 
Q 2100 3009 2342 2832 
Q 2584 2656 2656 2450 
Q 2700 2319 2700 1847 
L 2700 713 
Q 2700 513 2715 461 
Q 2731 409 2762 384 
Q 2794 359 2834 359 
Q 2916 359 3000 475 
L 3094 400 
Q 2938 169 2770 64 
Q 2603 -41 2391 -41 
Q 2141 -41 2000 76 
Q 1859 194 1828 431 
z
M 1828 659 
L 1828 1638 
Q 1450 1416 1266 1163 
Q 1144 994 1144 822 
Q 1144 678 1247 569 
Q 1325 484 1466 484 
Q 1622 484 1828 659 
z
" transform="scale(0.015625)"/>
       <path id="TimesNewRomanPS-BoldMT-69" d="M 919 4338 
Q 1122 4338 1262 4195 
Q 1403 4053 1403 3853 
Q 1403 3653 1261 3512 
Q 1119 3372 919 3372 
Q 719 3372 578 3512 
Q 438 3653 438 3853 
Q 438 4053 578 4195 
Q 719 4338 919 4338 
z
M 1356 2922 
L 1356 606 
Q 1356 297 1428 211 
Q 1500 125 1709 113 
L 1709 0 
L 131 0 
L 131 113 
Q 325 119 419 225 
Q 481 297 481 606 
L 481 2313 
Q 481 2622 409 2708 
Q 338 2794 131 2806 
L 131 2922 
L 1356 2922 
z
" transform="scale(0.015625)"/>
       <path id="TimesNewRomanPS-BoldMT-6f" d="M 1594 3009 
Q 1975 3009 2303 2812 
Q 2631 2616 2801 2253 
Q 2972 1891 2972 1459 
Q 2972 838 2656 419 
Q 2275 -88 1603 -88 
Q 944 -88 587 375 
Q 231 838 231 1447 
Q 231 2075 595 2542 
Q 959 3009 1594 3009 
z
M 1606 2788 
Q 1447 2788 1333 2667 
Q 1219 2547 1183 2192 
Q 1147 1838 1147 1206 
Q 1147 872 1191 581 
Q 1225 359 1337 243 
Q 1450 128 1594 128 
Q 1734 128 1828 206 
Q 1950 313 1991 503 
Q 2053 800 2053 1703 
Q 2053 2234 1993 2432 
Q 1934 2631 1819 2722 
Q 1738 2788 1606 2788 
z
" transform="scale(0.015625)"/>
       <path id="TimesNewRomanPS-BoldMT-6e" d="M 1409 2922 
L 1409 2544 
Q 1634 2788 1840 2898 
Q 2047 3009 2284 3009 
Q 2569 3009 2756 2851 
Q 2944 2694 3006 2459 
Q 3056 2281 3056 1775 
L 3056 638 
Q 3056 300 3117 217 
Q 3178 134 3372 113 
L 3372 0 
L 1894 0 
L 1894 113 
Q 2059 134 2131 250 
Q 2181 328 2181 638 
L 2181 1938 
Q 2181 2297 2153 2390 
Q 2125 2484 2058 2536 
Q 1991 2588 1909 2588 
Q 1641 2588 1409 2203 
L 1409 638 
Q 1409 309 1470 221 
Q 1531 134 1697 113 
L 1697 0 
L 219 0 
L 219 113 
Q 403 131 481 231 
Q 534 300 534 638 
L 534 2288 
Q 534 2619 473 2700 
Q 413 2781 219 2806 
L 219 2922 
L 1409 2922 
z
" transform="scale(0.015625)"/>
      </defs>
      <use xlink:href="#TimesNewRomanPS-BoldMT-42"/>
      <use xlink:href="#TimesNewRomanPS-BoldMT-75" x="66.699219"/>
      <use xlink:href="#TimesNewRomanPS-BoldMT-73" x="122.314453"/>
      <use xlink:href="#TimesNewRomanPS-BoldMT-20" x="161.230469"/>
      <use xlink:href="#TimesNewRomanPS-BoldMT-53" x="186.230469"/>
      <use xlink:href="#TimesNewRomanPS-BoldMT-74" x="241.845703"/>
      <use xlink:href="#TimesNewRomanPS-BoldMT-61" x="275.146484"/>
      <use xlink:href="#TimesNewRomanPS-BoldMT-74" x="325.146484"/>
      <use xlink:href="#TimesNewRomanPS-BoldMT-69" x="358.447266"/>
      <use xlink:href="#TimesNewRomanPS-BoldMT-6f" x="386.230469"/>
      <use xlink:href="#TimesNewRomanPS-BoldMT-6e" x="436.230469"/>
      <use xlink:href="#TimesNewRomanPS-BoldMT-73" x="491.845703"/>
     </g>
    </g>
   </g>
   <g id="matplotlib.axis_2">
    <g id="ytick_1">
     <g id="line2d_22">
      <defs>
       <path id="mbe10677561" d="M 3 0 
L -3 -0 
" style="stroke: #262626; stroke-width: 1.5"/>
      </defs>
      <g>
       <use xlink:href="#mbe10677561" x="39.213125" y="282.395455" style="fill: #262626; stroke: #262626; stroke-width: 1.5"/>
      </g>
     </g>
     <g id="text_23">
      <!-- 0 -->
      <g style="fill: #262626" transform="translate(27.213125 286.037486)scale(0.11 -0.11)">
       <use xlink:href="#TimesNewRomanPS-BoldMT-30"/>
      </g>
     </g>
    </g>
    <g id="ytick_2">
     <g id="line2d_23">
      <g>
       <use xlink:href="#mbe10677561" x="39.213125" y="244.953896" style="fill: #262626; stroke: #262626; stroke-width: 1.5"/>
      </g>
     </g>
     <g id="text_24">
      <!-- 10 -->
      <g style="fill: #262626" transform="translate(21.713125 248.595927)scale(0.11 -0.11)">
       <use xlink:href="#TimesNewRomanPS-BoldMT-31"/>
       <use xlink:href="#TimesNewRomanPS-BoldMT-30" x="50"/>
      </g>
     </g>
    </g>
    <g id="ytick_3">
     <g id="line2d_24">
      <g>
       <use xlink:href="#mbe10677561" x="39.213125" y="207.512338" style="fill: #262626; stroke: #262626; stroke-width: 1.5"/>
      </g>
     </g>
     <g id="text_25">
      <!-- 20 -->
      <g style="fill: #262626" transform="translate(21.713125 211.154369)scale(0.11 -0.11)">
       <use xlink:href="#TimesNewRomanPS-BoldMT-32"/>
       <use xlink:href="#TimesNewRomanPS-BoldMT-30" x="50"/>
      </g>
     </g>
    </g>
    <g id="ytick_4">
     <g id="line2d_25">
      <g>
       <use xlink:href="#mbe10677561" x="39.213125" y="170.070779" style="fill: #262626; stroke: #262626; stroke-width: 1.5"/>
      </g>
     </g>
     <g id="text_26">
      <!-- 30 -->
      <g style="fill: #262626" transform="translate(21.713125 173.71281)scale(0.11 -0.11)">
       <use xlink:href="#TimesNewRomanPS-BoldMT-33"/>
       <use xlink:href="#TimesNewRomanPS-BoldMT-30" x="50"/>
      </g>
     </g>
    </g>
    <g id="ytick_5">
     <g id="line2d_26">
      <g>
       <use xlink:href="#mbe10677561" x="39.213125" y="132.629221" style="fill: #262626; stroke: #262626; stroke-width: 1.5"/>
      </g>
     </g>
     <g id="text_27">
      <!-- 40 -->
      <g style="fill: #262626" transform="translate(21.713125 136.271252)scale(0.11 -0.11)">
       <use xlink:href="#TimesNewRomanPS-BoldMT-34"/>
       <use xlink:href="#TimesNewRomanPS-BoldMT-30" x="50"/>
      </g>
     </g>
    </g>
    <g id="ytick_6">
     <g id="line2d_27">
      <g>
       <use xlink:href="#mbe10677561" x="39.213125" y="95.187662" style="fill: #262626; stroke: #262626; stroke-width: 1.5"/>
      </g>
     </g>
     <g id="text_28">
      <!-- 50 -->
      <g style="fill: #262626" transform="translate(21.713125 98.829694)scale(0.11 -0.11)">
       <use xlink:href="#TimesNewRomanPS-BoldMT-35"/>
       <use xlink:href="#TimesNewRomanPS-BoldMT-30" x="50"/>
      </g>
     </g>
    </g>
    <g id="ytick_7">
     <g id="line2d_28">
      <g>
       <use xlink:href="#mbe10677561" x="39.213125" y="57.746104" style="fill: #262626; stroke: #262626; stroke-width: 1.5"/>
      </g>
     </g>
     <g id="text_29">
      <!-- 60 -->
      <g style="fill: #262626" transform="translate(21.713125 61.388135)scale(0.11 -0.11)">
       <use xlink:href="#TimesNewRomanPS-BoldMT-36"/>
       <use xlink:href="#TimesNewRomanPS-BoldMT-30" x="50"/>
      </g>
     </g>
    </g>
    <g id="ytick_8">
     <g id="line2d_29">
      <g>
       <use xlink:href="#mbe10677561" x="39.213125" y="20.304545" style="fill: #262626; stroke: #262626; stroke-width: 1.5"/>
      </g>
     </g>
     <g id="text_30">
      <!-- 70 -->
      <g style="fill: #262626" transform="translate(21.713125 23.946577)scale(0.11 -0.11)">
       <use xlink:href="#TimesNewRomanPS-BoldMT-37"/>
       <use xlink:href="#TimesNewRomanPS-BoldMT-30" x="50"/>
      </g>
     </g>
    </g>
    <g id="text_31">
     <!-- Load -->
     <g style="fill: #262626" transform="translate(15.14625 164.68875)rotate(-90)scale(0.12 -0.12)">
      <defs>
       <path id="TimesNewRomanPS-BoldMT-4c" d="M 4041 1488 
L 3881 0 
L 119 0 
L 119 116 
L 259 116 
Q 444 116 556 181 
Q 638 225 681 331 
Q 716 406 716 725 
L 716 3513 
Q 716 3838 681 3919 
Q 647 4000 542 4061 
Q 438 4122 259 4122 
L 119 4122 
L 119 4238 
L 2378 4238 
L 2378 4122 
L 2194 4122 
Q 2009 4122 1897 4056 
Q 1816 4013 1769 3906 
Q 1734 3831 1734 3513 
L 1734 813 
Q 1734 488 1771 398 
Q 1809 309 1919 266 
Q 1997 238 2297 238 
L 2650 238 
Q 2988 238 3213 356 
Q 3438 475 3602 731 
Q 3766 988 3913 1488 
L 4041 1488 
z
" transform="scale(0.015625)"/>
       <path id="TimesNewRomanPS-BoldMT-64" d="M 3056 4238 
L 3056 875 
Q 3056 534 3075 472 
Q 3100 369 3170 319 
Q 3241 269 3416 256 
L 3416 153 
L 2181 -88 
L 2181 375 
Q 1959 106 1786 9 
Q 1613 -88 1394 -88 
Q 834 -88 509 413 
Q 247 819 247 1409 
Q 247 1881 409 2254 
Q 572 2628 855 2818 
Q 1138 3009 1463 3009 
Q 1672 3009 1834 2928 
Q 1997 2847 2181 2644 
L 2181 3525 
Q 2181 3859 2153 3928 
Q 2116 4019 2041 4062 
Q 1966 4106 1759 4106 
L 1759 4238 
L 3056 4238 
z
M 2181 2256 
Q 1950 2700 1616 2700 
Q 1500 2700 1425 2638 
Q 1309 2541 1236 2297 
Q 1163 2053 1163 1550 
Q 1163 997 1244 731 
Q 1325 466 1466 347 
Q 1538 288 1663 288 
Q 1938 288 2181 719 
L 2181 2256 
z
" transform="scale(0.015625)"/>
      </defs>
      <use xlink:href="#TimesNewRomanPS-BoldMT-4c"/>
      <use xlink:href="#TimesNewRomanPS-BoldMT-6f" x="66.699219"/>
      <use xlink:href="#TimesNewRomanPS-BoldMT-61" x="116.699219"/>
      <use xlink:href="#TimesNewRomanPS-BoldMT-64" x="166.699219"/>
     </g>
    </g>
   </g>
   <g id="line2d_30">
    <path d="M 53.747852 282.395455 
L 68.28258 275.843182 
L 82.817307 269.186905 
L 97.352034 260.580547 
L 111.886761 254.366288 
L 126.421489 251.376163 
L 140.956216 242.093777 
L 155.490943 230.6273 
L 170.02567 221.812933 
L 184.560398 210.866477 
L 199.095125 235.905519 
L 213.629852 223.086986 
L 228.16458 201.584091 
L 242.699307 198.294954 
L 257.234034 185.927725 
L 271.768761 176.732628 
L 286.303489 176.63791 
L 300.838216 181.06738 
L 315.372943 184.092791 
L 329.90767 190.65435 
L 344.442398 201.064069 
" clip-path="url(#p94290ac909)" style="fill: none; stroke: #7b113a; stroke-width: 2.5; stroke-linecap: round"/>
    <defs>
     <path id="ma386d7d792" d="M 0 1.5 
C 0.397805 1.5 0.77937 1.341951 1.06066 1.06066 
C 1.341951 0.77937 1.5 0.397805 1.5 0 
C 1.5 -0.397805 1.341951 -0.77937 1.06066 -1.06066 
C 0.77937 -1.341951 0.397805 -1.5 0 -1.5 
C -0.397805 -1.5 -0.77937 -1.341951 -1.06066 -1.06066 
C -1.341951 -0.77937 -1.5 -0.397805 -1.5 0 
C -1.5 0.397805 -1.341951 0.77937 -1.06066 1.06066 
C -0.77937 1.341951 -0.397805 1.5 0 1.5 
z
" style="stroke: #7b113a"/>
    </defs>
    <g clip-path="url(#p94290ac909)">
     <use xlink:href="#ma386d7d792" x="53.747852" y="282.395455" style="fill: #7b113a; stroke: #7b113a"/>
     <use xlink:href="#ma386d7d792" x="68.28258" y="275.843182" style="fill: #7b113a; stroke: #7b113a"/>
     <use xlink:href="#ma386d7d792" x="82.817307" y="269.186905" style="fill: #7b113a; stroke: #7b113a"/>
     <use xlink:href="#ma386d7d792" x="97.352034" y="260.580547" style="fill: #7b113a; stroke: #7b113a"/>
     <use xlink:href="#ma386d7d792" x="111.886761" y="254.366288" style="fill: #7b113a; stroke: #7b113a"/>
     <use xlink:href="#ma386d7d792" x="126.421489" y="251.376163" style="fill: #7b113a; stroke: #7b113a"/>
     <use xlink:href="#ma386d7d792" x="140.956216" y="242.093777" style="fill: #7b113a; stroke: #7b113a"/>
     <use xlink:href="#ma386d7d792" x="155.490943" y="230.6273" style="fill: #7b113a; stroke: #7b113a"/>
     <use xlink:href="#ma386d7d792" x="170.02567" y="221.812933" style="fill: #7b113a; stroke: #7b113a"/>
     <use xlink:href="#ma386d7d792" x="184.560398" y="210.866477" style="fill: #7b113a; stroke: #7b113a"/>
     <use xlink:href="#ma386d7d792" x="199.095125" y="235.905519" style="fill: #7b113a; stroke: #7b113a"/>
     <use xlink:href="#ma386d7d792" x="213.629852" y="223.086986" style="fill: #7b113a; stroke: #7b113a"/>
     <use xlink:href="#ma386d7d792" x="228.16458" y="201.584091" style="fill: #7b113a; stroke: #7b113a"/>
     <use xlink:href="#ma386d7d792" x="242.699307" y="198.294954" style="fill: #7b113a; stroke: #7b113a"/>
     <use xlink:href="#ma386d7d792" x="257.234034" y="185.927725" style="fill: #7b113a; stroke: #7b113a"/>
     <use xlink:href="#ma386d7d792" x="271.768761" y="176.732628" style="fill: #7b113a; stroke: #7b113a"/>
     <use xlink:href="#ma386d7d792" x="286.303489" y="176.63791" style="fill: #7b113a; stroke: #7b113a"/>
     <use xlink:href="#ma386d7d792" x="300.838216" y="181.06738" style="fill: #7b113a; stroke: #7b113a"/>
     <use xlink:href="#ma386d7d792" x="315.372943" y="184.092791" style="fill: #7b113a; stroke: #7b113a"/>
     <use xlink:href="#ma386d7d792" x="329.90767" y="190.65435" style="fill: #7b113a; stroke: #7b113a"/>
     <use xlink:href="#ma386d7d792" x="344.442398" y="201.064069" style="fill: #7b113a; stroke: #7b113a"/>
    </g>
   </g>
   <g id="line2d_31">
    <path d="M 53.747852 282.395455 
L 68.28258 269.290909 
L 82.817307 259.439679 
L 97.352034 246.176225 
L 111.886761 236.650093 
L 126.421489 232.051001 
L 140.956216 216.978678 
L 155.490943 197.381441 
L 170.02567 181.476522 
L 184.560398 160.648655 
L 199.095125 198.093465 
L 213.629852 168.901341 
L 228.16458 113.658105 
L 242.699307 100.851979 
L 257.234034 60.430696 
L 271.768761 24.177183 
L 286.303489 20.304545 
L 300.838216 24.27213 
L 315.372943 23.328943 
L 329.90767 34.722403 
L 344.442398 60.58318 
" clip-path="url(#p94290ac909)" style="fill: none; stroke-dasharray: 9.25,4; stroke-dashoffset: 0; stroke: #150e56; stroke-width: 2.5"/>
    <defs>
     <path id="mdbdc8034c1" d="M 0 -3 
L -3 3 
L 3 3 
z
" style="stroke: #150e56; stroke-linejoin: miter"/>
    </defs>
    <g clip-path="url(#p94290ac909)">
     <use xlink:href="#mdbdc8034c1" x="53.747852" y="282.395455" style="fill: #150e56; stroke: #150e56; stroke-linejoin: miter"/>
     <use xlink:href="#mdbdc8034c1" x="68.28258" y="269.290909" style="fill: #150e56; stroke: #150e56; stroke-linejoin: miter"/>
     <use xlink:href="#mdbdc8034c1" x="82.817307" y="259.439679" style="fill: #150e56; stroke: #150e56; stroke-linejoin: miter"/>
     <use xlink:href="#mdbdc8034c1" x="97.352034" y="246.176225" style="fill: #150e56; stroke: #150e56; stroke-linejoin: miter"/>
     <use xlink:href="#mdbdc8034c1" x="111.886761" y="236.650093" style="fill: #150e56; stroke: #150e56; stroke-linejoin: miter"/>
     <use xlink:href="#mdbdc8034c1" x="126.421489" y="232.051001" style="fill: #150e56; stroke: #150e56; stroke-linejoin: miter"/>
     <use xlink:href="#mdbdc8034c1" x="140.956216" y="216.978678" style="fill: #150e56; stroke: #150e56; stroke-linejoin: miter"/>
     <use xlink:href="#mdbdc8034c1" x="155.490943" y="197.381441" style="fill: #150e56; stroke: #150e56; stroke-linejoin: miter"/>
     <use xlink:href="#mdbdc8034c1" x="170.02567" y="181.476522" style="fill: #150e56; stroke: #150e56; stroke-linejoin: miter"/>
     <use xlink:href="#mdbdc8034c1" x="184.560398" y="160.648655" style="fill: #150e56; stroke: #150e56; stroke-linejoin: miter"/>
     <use xlink:href="#mdbdc8034c1" x="199.095125" y="198.093465" style="fill: #150e56; stroke: #150e56; stroke-linejoin: miter"/>
     <use xlink:href="#mdbdc8034c1" x="213.629852" y="168.901341" style="fill: #150e56; stroke: #150e56; stroke-linejoin: miter"/>
     <use xlink:href="#mdbdc8034c1" x="228.16458" y="113.658105" style="fill: #150e56; stroke: #150e56; stroke-linejoin: miter"/>
     <use xlink:href="#mdbdc8034c1" x="242.699307" y="100.851979" style="fill: #150e56; stroke: #150e56; stroke-linejoin: miter"/>
     <use xlink:href="#mdbdc8034c1" x="257.234034" y="60.430696" style="fill: #150e56; stroke: #150e56; stroke-linejoin: miter"/>
     <use xlink:href="#mdbdc8034c1" x="271.768761" y="24.177183" style="fill: #150e56; stroke: #150e56; stroke-linejoin: miter"/>
     <use xlink:href="#mdbdc8034c1" x="286.303489" y="20.304545" style="fill: #150e56; stroke: #150e56; stroke-linejoin: miter"/>
     <use xlink:href="#mdbdc8034c1" x="300.838216" y="24.27213" style="fill: #150e56; stroke: #150e56; stroke-linejoin: miter"/>
     <use xlink:href="#mdbdc8034c1" x="315.372943" y="23.328943" style="fill: #150e56; stroke: #150e56; stroke-linejoin: miter"/>
     <use xlink:href="#mdbdc8034c1" x="329.90767" y="34.722403" style="fill: #150e56; stroke: #150e56; stroke-linejoin: miter"/>
     <use xlink:href="#mdbdc8034c1" x="344.442398" y="60.58318" style="fill: #150e56; stroke: #150e56; stroke-linejoin: miter"/>
    </g>
   </g>
   <g id="line2d_32">
    <path d="M 53.747852 282.395455 
L 68.28258 269.290909 
L 82.817307 255.490488 
L 97.352034 237.446689 
L 111.886761 224.180414 
L 126.421489 217.667078 
L 140.956216 197.180291 
L 155.490943 171.154277 
L 170.02567 150.515537 
L 184.560398 124.204494 
L 199.095125 175.315777 
L 213.629852 142.772207 
L 228.16458 88.797642 
L 242.699307 79.739364 
L 257.234034 49.76511 
L 271.768761 29.156655 
L 286.303489 23.586996 
L 300.838216 35.573094 
L 315.372943 45.193055 
L 329.90767 63.055561 
L 344.442398 89.331386 
" clip-path="url(#p94290ac909)" style="fill: none; stroke-dasharray: 16,4,2.5,4; stroke-dashoffset: 0; stroke: #1597bb; stroke-width: 2.5"/>
    <defs>
     <path id="mb96fb5c827" d="M 0 0 
L 0 3 
M 0 0 
L 2.4 -1.5 
M 0 0 
L -2.4 -1.5 
" style="stroke: #1597bb"/>
    </defs>
    <g clip-path="url(#p94290ac909)">
     <use xlink:href="#mb96fb5c827" x="53.747852" y="282.395455" style="fill: #1597bb; stroke: #1597bb"/>
     <use xlink:href="#mb96fb5c827" x="68.28258" y="269.290909" style="fill: #1597bb; stroke: #1597bb"/>
     <use xlink:href="#mb96fb5c827" x="82.817307" y="255.490488" style="fill: #1597bb; stroke: #1597bb"/>
     <use xlink:href="#mb96fb5c827" x="97.352034" y="237.446689" style="fill: #1597bb; stroke: #1597bb"/>
     <use xlink:href="#mb96fb5c827" x="111.886761" y="224.180414" style="fill: #1597bb; stroke: #1597bb"/>
     <use xlink:href="#mb96fb5c827" x="126.421489" y="217.667078" style="fill: #1597bb; stroke: #1597bb"/>
     <use xlink:href="#mb96fb5c827" x="140.956216" y="197.180291" style="fill: #1597bb; stroke: #1597bb"/>
     <use xlink:href="#mb96fb5c827" x="155.490943" y="171.154277" style="fill: #1597bb; stroke: #1597bb"/>
     <use xlink:href="#mb96fb5c827" x="170.02567" y="150.515537" style="fill: #1597bb; stroke: #1597bb"/>
     <use xlink:href="#mb96fb5c827" x="184.560398" y="124.204494" style="fill: #1597bb; stroke: #1597bb"/>
     <use xlink:href="#mb96fb5c827" x="199.095125" y="175.315777" style="fill: #1597bb; stroke: #1597bb"/>
     <use xlink:href="#mb96fb5c827" x="213.629852" y="142.772207" style="fill: #1597bb; stroke: #1597bb"/>
     <use xlink:href="#mb96fb5c827" x="228.16458" y="88.797642" style="fill: #1597bb; stroke: #1597bb"/>
     <use xlink:href="#mb96fb5c827" x="242.699307" y="79.739364" style="fill: #1597bb; stroke: #1597bb"/>
     <use xlink:href="#mb96fb5c827" x="257.234034" y="49.76511" style="fill: #1597bb; stroke: #1597bb"/>
     <use xlink:href="#mb96fb5c827" x="271.768761" y="29.156655" style="fill: #1597bb; stroke: #1597bb"/>
     <use xlink:href="#mb96fb5c827" x="286.303489" y="23.586996" style="fill: #1597bb; stroke: #1597bb"/>
     <use xlink:href="#mb96fb5c827" x="300.838216" y="35.573094" style="fill: #1597bb; stroke: #1597bb"/>
     <use xlink:href="#mb96fb5c827" x="315.372943" y="45.193055" style="fill: #1597bb; stroke: #1597bb"/>
     <use xlink:href="#mb96fb5c827" x="329.90767" y="63.055561" style="fill: #1597bb; stroke: #1597bb"/>
     <use xlink:href="#mb96fb5c827" x="344.442398" y="89.331386" style="fill: #1597bb; stroke: #1597bb"/>
    </g>
   </g>
   <g id="line2d_33">
    <path d="M 53.747852 282.395455 
L 68.28258 269.290909 
L 82.817307 254.414819 
L 97.352034 235.005631 
L 111.886761 220.774968 
L 126.421489 213.839778 
L 140.956216 192.512261 
L 155.490943 166.048857 
L 170.02567 145.575317 
L 184.560398 120.269371 
L 199.095125 175.180326 
L 213.629852 145.032125 
L 228.16458 95.676981 
L 242.699307 88.301782 
L 257.234034 60.598529 
L 271.768761 40.422202 
L 286.303489 41.257653 
L 300.838216 51.996089 
L 315.372943 59.574582 
L 329.90767 74.7884 
L 344.442398 98.313075 
" clip-path="url(#p94290ac909)" style="fill: none; stroke-dasharray: 2.5,4.125; stroke-dashoffset: 0; stroke: #8fd6e1; stroke-width: 2.5"/>
    <defs>
     <path id="mfd61826f00" d="M -3 3 
L 3 3 
L 3 -3 
L -3 -3 
z
" style="stroke: #8fd6e1; stroke-linejoin: miter"/>
    </defs>
    <g clip-path="url(#p94290ac909)">
     <use xlink:href="#mfd61826f00" x="53.747852" y="282.395455" style="fill: #8fd6e1; stroke: #8fd6e1; stroke-linejoin: miter"/>
     <use xlink:href="#mfd61826f00" x="68.28258" y="269.290909" style="fill: #8fd6e1; stroke: #8fd6e1; stroke-linejoin: miter"/>
     <use xlink:href="#mfd61826f00" x="82.817307" y="254.414819" style="fill: #8fd6e1; stroke: #8fd6e1; stroke-linejoin: miter"/>
     <use xlink:href="#mfd61826f00" x="97.352034" y="235.005631" style="fill: #8fd6e1; stroke: #8fd6e1; stroke-linejoin: miter"/>
     <use xlink:href="#mfd61826f00" x="111.886761" y="220.774968" style="fill: #8fd6e1; stroke: #8fd6e1; stroke-linejoin: miter"/>
     <use xlink:href="#mfd61826f00" x="126.421489" y="213.839778" style="fill: #8fd6e1; stroke: #8fd6e1; stroke-linejoin: miter"/>
     <use xlink:href="#mfd61826f00" x="140.956216" y="192.512261" style="fill: #8fd6e1; stroke: #8fd6e1; stroke-linejoin: miter"/>
     <use xlink:href="#mfd61826f00" x="155.490943" y="166.048857" style="fill: #8fd6e1; stroke: #8fd6e1; stroke-linejoin: miter"/>
     <use xlink:href="#mfd61826f00" x="170.02567" y="145.575317" style="fill: #8fd6e1; stroke: #8fd6e1; stroke-linejoin: miter"/>
     <use xlink:href="#mfd61826f00" x="184.560398" y="120.269371" style="fill: #8fd6e1; stroke: #8fd6e1; stroke-linejoin: miter"/>
     <use xlink:href="#mfd61826f00" x="199.095125" y="175.180326" style="fill: #8fd6e1; stroke: #8fd6e1; stroke-linejoin: miter"/>
     <use xlink:href="#mfd61826f00" x="213.629852" y="145.032125" style="fill: #8fd6e1; stroke: #8fd6e1; stroke-linejoin: miter"/>
     <use xlink:href="#mfd61826f00" x="228.16458" y="95.676981" style="fill: #8fd6e1; stroke: #8fd6e1; stroke-linejoin: miter"/>
     <use xlink:href="#mfd61826f00" x="242.699307" y="88.301782" style="fill: #8fd6e1; stroke: #8fd6e1; stroke-linejoin: miter"/>
     <use xlink:href="#mfd61826f00" x="257.234034" y="60.598529" style="fill: #8fd6e1; stroke: #8fd6e1; stroke-linejoin: miter"/>
     <use xlink:href="#mfd61826f00" x="271.768761" y="40.422202" style="fill: #8fd6e1; stroke: #8fd6e1; stroke-linejoin: miter"/>
     <use xlink:href="#mfd61826f00" x="286.303489" y="41.257653" style="fill: #8fd6e1; stroke: #8fd6e1; stroke-linejoin: miter"/>
     <use xlink:href="#mfd61826f00" x="300.838216" y="51.996089" style="fill: #8fd6e1; stroke: #8fd6e1; stroke-linejoin: miter"/>
     <use xlink:href="#mfd61826f00" x="315.372943" y="59.574582" style="fill: #8fd6e1; stroke: #8fd6e1; stroke-linejoin: miter"/>
     <use xlink:href="#mfd61826f00" x="329.90767" y="74.7884" style="fill: #8fd6e1; stroke: #8fd6e1; stroke-linejoin: miter"/>
     <use xlink:href="#mfd61826f00" x="344.442398" y="98.313075" style="fill: #8fd6e1; stroke: #8fd6e1; stroke-linejoin: miter"/>
    </g>
   </g>
   <g id="line2d_34">
    <path d="M 53.747852 282.395455 
L 68.28258 269.290909 
L 82.817307 254.002743 
L 97.352034 234.351585 
L 111.886761 220.272246 
L 126.421489 213.46332 
L 140.956216 192.5031 
L 155.490943 166.655678 
L 170.02567 146.87564 
L 184.560398 122.401172 
L 199.095125 178.704268 
L 213.629852 150.792547 
L 228.16458 102.948314 
L 242.699307 95.716916 
L 257.234034 68.46307 
L 271.768761 48.307102 
L 286.303489 48.22476 
L 300.838216 58.106434 
L 315.372943 64.840536 
L 329.90767 79.372298 
L 344.442398 102.389673 
" clip-path="url(#p94290ac909)" style="fill: none; stroke: #e02401; stroke-width: 2.5; stroke-linecap: round"/>
    <defs>
     <path id="m1577e36afe" d="M 0 -3 
L -0.673542 -0.927051 
L -2.85317 -0.927051 
L -1.089814 0.354102 
L -1.763356 2.427051 
L -0 1.145898 
L 1.763356 2.427051 
L 1.089814 0.354102 
L 2.85317 -0.927051 
L 0.673542 -0.927051 
z
" style="stroke: #e02401; stroke-linejoin: bevel"/>
    </defs>
    <g clip-path="url(#p94290ac909)">
     <use xlink:href="#m1577e36afe" x="53.747852" y="282.395455" style="fill: #e02401; stroke: #e02401; stroke-linejoin: bevel"/>
     <use xlink:href="#m1577e36afe" x="68.28258" y="269.290909" style="fill: #e02401; stroke: #e02401; stroke-linejoin: bevel"/>
     <use xlink:href="#m1577e36afe" x="82.817307" y="254.002743" style="fill: #e02401; stroke: #e02401; stroke-linejoin: bevel"/>
     <use xlink:href="#m1577e36afe" x="97.352034" y="234.351585" style="fill: #e02401; stroke: #e02401; stroke-linejoin: bevel"/>
     <use xlink:href="#m1577e36afe" x="111.886761" y="220.272246" style="fill: #e02401; stroke: #e02401; stroke-linejoin: bevel"/>
     <use xlink:href="#m1577e36afe" x="126.421489" y="213.46332" style="fill: #e02401; stroke: #e02401; stroke-linejoin: bevel"/>
     <use xlink:href="#m1577e36afe" x="140.956216" y="192.5031" style="fill: #e02401; stroke: #e02401; stroke-linejoin: bevel"/>
     <use xlink:href="#m1577e36afe" x="155.490943" y="166.655678" style="fill: #e02401; stroke: #e02401; stroke-linejoin: bevel"/>
     <use xlink:href="#m1577e36afe" x="170.02567" y="146.87564" style="fill: #e02401; stroke: #e02401; stroke-linejoin: bevel"/>
     <use xlink:href="#m1577e36afe" x="184.560398" y="122.401172" style="fill: #e02401; stroke: #e02401; stroke-linejoin: bevel"/>
     <use xlink:href="#m1577e36afe" x="199.095125" y="178.704268" style="fill: #e02401; stroke: #e02401; stroke-linejoin: bevel"/>
     <use xlink:href="#m1577e36afe" x="213.629852" y="150.792547" style="fill: #e02401; stroke: #e02401; stroke-linejoin: bevel"/>
     <use xlink:href="#m1577e36afe" x="228.16458" y="102.948314" style="fill: #e02401; stroke: #e02401; stroke-linejoin: bevel"/>
     <use xlink:href="#m1577e36afe" x="242.699307" y="95.716916" style="fill: #e02401; stroke: #e02401; stroke-linejoin: bevel"/>
     <use xlink:href="#m1577e36afe" x="257.234034" y="68.46307" style="fill: #e02401; stroke: #e02401; stroke-linejoin: bevel"/>
     <use xlink:href="#m1577e36afe" x="271.768761" y="48.307102" style="fill: #e02401; stroke: #e02401; stroke-linejoin: bevel"/>
     <use xlink:href="#m1577e36afe" x="286.303489" y="48.22476" style="fill: #e02401; stroke: #e02401; stroke-linejoin: bevel"/>
     <use xlink:href="#m1577e36afe" x="300.838216" y="58.106434" style="fill: #e02401; stroke: #e02401; stroke-linejoin: bevel"/>
     <use xlink:href="#m1577e36afe" x="315.372943" y="64.840536" style="fill: #e02401; stroke: #e02401; stroke-linejoin: bevel"/>
     <use xlink:href="#m1577e36afe" x="329.90767" y="79.372298" style="fill: #e02401; stroke: #e02401; stroke-linejoin: bevel"/>
     <use xlink:href="#m1577e36afe" x="344.442398" y="102.389673" style="fill: #e02401; stroke: #e02401; stroke-linejoin: bevel"/>
    </g>
   </g>
   <g id="line2d_35">
    <path d="M 53.747852 282.395455 
L 68.28258 269.290909 
L 82.817307 254.578699 
L 97.352034 235.456607 
L 111.886761 220.891823 
L 126.421489 213.756861 
L 140.956216 191.991776 
L 155.490943 165.171429 
L 170.02567 144.448358 
L 184.560398 118.626142 
L 199.095125 175.152707 
L 213.629852 145.193305 
L 228.16458 96.249764 
L 242.699307 88.847479 
L 257.234034 60.406602 
L 271.768761 38.92637 
L 286.303489 38.461728 
L 300.838216 48.367699 
L 315.372943 54.899735 
L 329.90767 69.758443 
L 344.442398 93.74452 
" clip-path="url(#p94290ac909)" style="fill: none; stroke-dasharray: 9.25,4; stroke-dashoffset: 0; stroke: #f78812; stroke-width: 2.5"/>
    <defs>
     <path id="m93c960a33d" d="M -3 0 
L 3 0 
M 0 3 
L 0 -3 
" style="stroke: #f78812"/>
    </defs>
    <g clip-path="url(#p94290ac909)">
     <use xlink:href="#m93c960a33d" x="53.747852" y="282.395455" style="fill: #f78812; stroke: #f78812"/>
     <use xlink:href="#m93c960a33d" x="68.28258" y="269.290909" style="fill: #f78812; stroke: #f78812"/>
     <use xlink:href="#m93c960a33d" x="82.817307" y="254.578699" style="fill: #f78812; stroke: #f78812"/>
     <use xlink:href="#m93c960a33d" x="97.352034" y="235.456607" style="fill: #f78812; stroke: #f78812"/>
     <use xlink:href="#m93c960a33d" x="111.886761" y="220.891823" style="fill: #f78812; stroke: #f78812"/>
     <use xlink:href="#m93c960a33d" x="126.421489" y="213.756861" style="fill: #f78812; stroke: #f78812"/>
     <use xlink:href="#m93c960a33d" x="140.956216" y="191.991776" style="fill: #f78812; stroke: #f78812"/>
     <use xlink:href="#m93c960a33d" x="155.490943" y="165.171429" style="fill: #f78812; stroke: #f78812"/>
     <use xlink:href="#m93c960a33d" x="170.02567" y="144.448358" style="fill: #f78812; stroke: #f78812"/>
     <use xlink:href="#m93c960a33d" x="184.560398" y="118.626142" style="fill: #f78812; stroke: #f78812"/>
     <use xlink:href="#m93c960a33d" x="199.095125" y="175.152707" style="fill: #f78812; stroke: #f78812"/>
     <use xlink:href="#m93c960a33d" x="213.629852" y="145.193305" style="fill: #f78812; stroke: #f78812"/>
     <use xlink:href="#m93c960a33d" x="228.16458" y="96.249764" style="fill: #f78812; stroke: #f78812"/>
     <use xlink:href="#m93c960a33d" x="242.699307" y="88.847479" style="fill: #f78812; stroke: #f78812"/>
     <use xlink:href="#m93c960a33d" x="257.234034" y="60.406602" style="fill: #f78812; stroke: #f78812"/>
     <use xlink:href="#m93c960a33d" x="271.768761" y="38.92637" style="fill: #f78812; stroke: #f78812"/>
     <use xlink:href="#m93c960a33d" x="286.303489" y="38.461728" style="fill: #f78812; stroke: #f78812"/>
     <use xlink:href="#m93c960a33d" x="300.838216" y="48.367699" style="fill: #f78812; stroke: #f78812"/>
     <use xlink:href="#m93c960a33d" x="315.372943" y="54.899735" style="fill: #f78812; stroke: #f78812"/>
     <use xlink:href="#m93c960a33d" x="329.90767" y="69.758443" style="fill: #f78812; stroke: #f78812"/>
     <use xlink:href="#m93c960a33d" x="344.442398" y="93.74452" style="fill: #f78812; stroke: #f78812"/>
    </g>
   </g>
   <g id="line2d_36">
    <path d="M 53.747852 282.395455 
L 68.28258 269.290909 
L 82.817307 256.399259 
L 97.352034 239.793752 
L 111.886761 226.903696 
L 126.421489 220.675292 
L 140.956216 201.850323 
L 155.490943 179.077011 
L 170.02567 161.963823 
L 184.560398 141.355804 
L 199.095125 189.642251 
L 213.629852 163.726804 
L 228.16458 116.092287 
L 242.699307 107.873886 
L 257.234034 78.524012 
L 271.768761 55.978435 
L 286.303489 53.615181 
L 300.838216 61.989251 
L 315.372943 63.521029 
L 329.90767 74.947906 
L 344.442398 97.404478 
" clip-path="url(#p94290ac909)" style="fill: none; stroke-dasharray: 16,4,2.5,4; stroke-dashoffset: 0; stroke: #ab6d23; stroke-width: 2.5"/>
    <defs>
     <path id="mc847d9571d" d="M -3 3 
L 3 -3 
M -3 -3 
L 3 3 
" style="stroke: #ab6d23"/>
    </defs>
    <g clip-path="url(#p94290ac909)">
     <use xlink:href="#mc847d9571d" x="53.747852" y="282.395455" style="fill: #ab6d23; stroke: #ab6d23"/>
     <use xlink:href="#mc847d9571d" x="68.28258" y="269.290909" style="fill: #ab6d23; stroke: #ab6d23"/>
     <use xlink:href="#mc847d9571d" x="82.817307" y="256.399259" style="fill: #ab6d23; stroke: #ab6d23"/>
     <use xlink:href="#mc847d9571d" x="97.352034" y="239.793752" style="fill: #ab6d23; stroke: #ab6d23"/>
     <use xlink:href="#mc847d9571d" x="111.886761" y="226.903696" style="fill: #ab6d23; stroke: #ab6d23"/>
     <use xlink:href="#mc847d9571d" x="126.421489" y="220.675292" style="fill: #ab6d23; stroke: #ab6d23"/>
     <use xlink:href="#mc847d9571d" x="140.956216" y="201.850323" style="fill: #ab6d23; stroke: #ab6d23"/>
     <use xlink:href="#mc847d9571d" x="155.490943" y="179.077011" style="fill: #ab6d23; stroke: #ab6d23"/>
     <use xlink:href="#mc847d9571d" x="170.02567" y="161.963823" style="fill: #ab6d23; stroke: #ab6d23"/>
     <use xlink:href="#mc847d9571d" x="184.560398" y="141.355804" style="fill: #ab6d23; stroke: #ab6d23"/>
     <use xlink:href="#mc847d9571d" x="199.095125" y="189.642251" style="fill: #ab6d23; stroke: #ab6d23"/>
     <use xlink:href="#mc847d9571d" x="213.629852" y="163.726804" style="fill: #ab6d23; stroke: #ab6d23"/>
     <use xlink:href="#mc847d9571d" x="228.16458" y="116.092287" style="fill: #ab6d23; stroke: #ab6d23"/>
     <use xlink:href="#mc847d9571d" x="242.699307" y="107.873886" style="fill: #ab6d23; stroke: #ab6d23"/>
     <use xlink:href="#mc847d9571d" x="257.234034" y="78.524012" style="fill: #ab6d23; stroke: #ab6d23"/>
     <use xlink:href="#mc847d9571d" x="271.768761" y="55.978435" style="fill: #ab6d23; stroke: #ab6d23"/>
     <use xlink:href="#mc847d9571d" x="286.303489" y="53.615181" style="fill: #ab6d23; stroke: #ab6d23"/>
     <use xlink:href="#mc847d9571d" x="300.838216" y="61.989251" style="fill: #ab6d23; stroke: #ab6d23"/>
     <use xlink:href="#mc847d9571d" x="315.372943" y="63.521029" style="fill: #ab6d23; stroke: #ab6d23"/>
     <use xlink:href="#mc847d9571d" x="329.90767" y="74.947906" style="fill: #ab6d23; stroke: #ab6d23"/>
     <use xlink:href="#mc847d9571d" x="344.442398" y="97.404478" style="fill: #ab6d23; stroke: #ab6d23"/>
    </g>
   </g>
   <g id="line2d_37">
    <path d="M 53.747852 282.395455 
L 68.28258 269.290909 
L 82.817307 256.713471 
L 97.352034 237.704882 
L 111.886761 224.964513 
L 126.421489 218.842734 
L 140.956216 199.81635 
L 155.490943 175.754803 
L 170.02567 157.079752 
L 184.560398 133.583021 
L 199.095125 184.106867 
L 213.629852 155.333136 
L 228.16458 110.769507 
L 242.699307 103.953256 
L 257.234034 80.512878 
L 271.768761 64.828445 
L 286.303489 67.208449 
L 300.838216 77.944901 
L 315.372943 90.41945 
L 329.90767 107.651754 
L 344.442398 129.410055 
" clip-path="url(#p94290ac909)" style="fill: none; stroke-dasharray: 2.5,4.125; stroke-dashoffset: 0; stroke: #51050f; stroke-width: 2.5"/>
    <defs>
     <path id="m1de88aa688" d="M -0 4.242641 
L 4.242641 0 
L 0 -4.242641 
L -4.242641 -0 
z
" style="stroke: #51050f; stroke-linejoin: miter"/>
    </defs>
    <g clip-path="url(#p94290ac909)">
     <use xlink:href="#m1de88aa688" x="53.747852" y="282.395455" style="fill: #51050f; stroke: #51050f; stroke-linejoin: miter"/>
     <use xlink:href="#m1de88aa688" x="68.28258" y="269.290909" style="fill: #51050f; stroke: #51050f; stroke-linejoin: miter"/>
     <use xlink:href="#m1de88aa688" x="82.817307" y="256.713471" style="fill: #51050f; stroke: #51050f; stroke-linejoin: miter"/>
     <use xlink:href="#m1de88aa688" x="97.352034" y="237.704882" style="fill: #51050f; stroke: #51050f; stroke-linejoin: miter"/>
     <use xlink:href="#m1de88aa688" x="111.886761" y="224.964513" style="fill: #51050f; stroke: #51050f; stroke-linejoin: miter"/>
     <use xlink:href="#m1de88aa688" x="126.421489" y="218.842734" style="fill: #51050f; stroke: #51050f; stroke-linejoin: miter"/>
     <use xlink:href="#m1de88aa688" x="140.956216" y="199.81635" style="fill: #51050f; stroke: #51050f; stroke-linejoin: miter"/>
     <use xlink:href="#m1de88aa688" x="155.490943" y="175.754803" style="fill: #51050f; stroke: #51050f; stroke-linejoin: miter"/>
     <use xlink:href="#m1de88aa688" x="170.02567" y="157.079752" style="fill: #51050f; stroke: #51050f; stroke-linejoin: miter"/>
     <use xlink:href="#m1de88aa688" x="184.560398" y="133.583021" style="fill: #51050f; stroke: #51050f; stroke-linejoin: miter"/>
     <use xlink:href="#m1de88aa688" x="199.095125" y="184.106867" style="fill: #51050f; stroke: #51050f; stroke-linejoin: miter"/>
     <use xlink:href="#m1de88aa688" x="213.629852" y="155.333136" style="fill: #51050f; stroke: #51050f; stroke-linejoin: miter"/>
     <use xlink:href="#m1de88aa688" x="228.16458" y="110.769507" style="fill: #51050f; stroke: #51050f; stroke-linejoin: miter"/>
     <use xlink:href="#m1de88aa688" x="242.699307" y="103.953256" style="fill: #51050f; stroke: #51050f; stroke-linejoin: miter"/>
     <use xlink:href="#m1de88aa688" x="257.234034" y="80.512878" style="fill: #51050f; stroke: #51050f; stroke-linejoin: miter"/>
     <use xlink:href="#m1de88aa688" x="271.768761" y="64.828445" style="fill: #51050f; stroke: #51050f; stroke-linejoin: miter"/>
     <use xlink:href="#m1de88aa688" x="286.303489" y="67.208449" style="fill: #51050f; stroke: #51050f; stroke-linejoin: miter"/>
     <use xlink:href="#m1de88aa688" x="300.838216" y="77.944901" style="fill: #51050f; stroke: #51050f; stroke-linejoin: miter"/>
     <use xlink:href="#m1de88aa688" x="315.372943" y="90.41945" style="fill: #51050f; stroke: #51050f; stroke-linejoin: miter"/>
     <use xlink:href="#m1de88aa688" x="329.90767" y="107.651754" style="fill: #51050f; stroke: #51050f; stroke-linejoin: miter"/>
     <use xlink:href="#m1de88aa688" x="344.442398" y="129.410055" style="fill: #51050f; stroke: #51050f; stroke-linejoin: miter"/>
    </g>
   </g>
   <g id="line2d_38">
    <path d="M 39.213125 20.304545 
L 358.977125 20.304545 
" clip-path="url(#p94290ac909)" style="fill: none; stroke: #1a1a1a; stroke-width: 1.5; stroke-linecap: round"/>
   </g>
   <g id="patch_3">
    <path d="M 39.213125 295.5 
L 39.213125 7.2 
" style="fill: none; stroke: #1a1a1a; stroke-width: 0.5; stroke-linejoin: miter; stroke-linecap: square"/>
   </g>
   <g id="patch_4">
    <path d="M 358.977125 295.5 
L 358.977125 7.2 
" style="fill: none; stroke: #ffffff; stroke-width: 1.25; stroke-linejoin: miter; stroke-linecap: square"/>
   </g>
   <g id="patch_5">
    <path d="M 39.213125 295.5 
L 358.977125 295.5 
" style="fill: none; stroke: #1a1a1a; stroke-width: 0.5; stroke-linejoin: miter; stroke-linecap: square"/>
   </g>
   <g id="patch_6">
    <path d="M 39.213125 7.2 
L 358.977125 7.2 
" style="fill: none; stroke: #ffffff; stroke-width: 1.25; stroke-linejoin: miter; stroke-linecap: square"/>
   </g>
   <g id="legend_1">
    <g id="patch_7">
     <path d="M 377.165325 149.33875 
L 437.734075 149.33875 
Q 439.934075 149.33875 439.934075 147.13875 
L 439.934075 23.815 
Q 439.934075 21.615 437.734075 21.615 
L 377.165325 21.615 
Q 374.965325 21.615 374.965325 23.815 
L 374.965325 147.13875 
Q 374.965325 149.33875 377.165325 149.33875 
z
" style="fill: #ffffff; opacity: 0.5; stroke: #000000; stroke-linejoin: miter"/>
    </g>
    <g id="line2d_39">
     <path d="M 379.365325 29.865 
L 390.365325 29.865 
L 401.365325 29.865 
" style="fill: none; stroke: #7b113a; stroke-width: 2.5; stroke-linecap: round"/>
     <defs>
      <path id="m44b6ff371d" d="M 0 2.25 
C 0.596707 2.25 1.169055 2.012926 1.59099 1.59099 
C 2.012926 1.169055 2.25 0.596707 2.25 0 
C 2.25 -0.596707 2.012926 -1.169055 1.59099 -1.59099 
C 1.169055 -2.012926 0.596707 -2.25 0 -2.25 
C -0.596707 -2.25 -1.169055 -2.012926 -1.59099 -1.59099 
C -2.012926 -1.169055 -2.25 -0.596707 -2.25 0 
C -2.25 0.596707 -2.012926 1.169055 -1.59099 1.59099 
C -1.169055 2.012926 -0.596707 2.25 0 2.25 
z
" style="stroke: #7b113a"/>
     </defs>
     <g>
      <use xlink:href="#m44b6ff371d" x="390.365325" y="29.865" style="fill: #7b113a; stroke: #7b113a"/>
     </g>
    </g>
    <g id="text_32">
     <!-- Bus 1 -->
     <g style="fill: #262626" transform="translate(410.165325 33.715)scale(0.11 -0.11)">
      <defs>
       <path id="TimesNewRomanPSMT-42" d="M 2956 2163 
Q 3397 2069 3616 1863 
Q 3919 1575 3919 1159 
Q 3919 844 3719 555 
Q 3519 266 3170 133 
Q 2822 0 2106 0 
L 106 0 
L 106 116 
L 266 116 
Q 531 116 647 284 
Q 719 394 719 750 
L 719 3488 
Q 719 3881 628 3984 
Q 506 4122 266 4122 
L 106 4122 
L 106 4238 
L 1938 4238 
Q 2450 4238 2759 4163 
Q 3228 4050 3475 3764 
Q 3722 3478 3722 3106 
Q 3722 2788 3528 2536 
Q 3334 2284 2956 2163 
z
M 1319 2331 
Q 1434 2309 1582 2298 
Q 1731 2288 1909 2288 
Q 2366 2288 2595 2386 
Q 2825 2484 2947 2687 
Q 3069 2891 3069 3131 
Q 3069 3503 2766 3765 
Q 2463 4028 1881 4028 
Q 1569 4028 1319 3959 
L 1319 2331 
z
M 1319 306 
Q 1681 222 2034 222 
Q 2600 222 2897 476 
Q 3194 731 3194 1106 
Q 3194 1353 3059 1581 
Q 2925 1809 2622 1940 
Q 2319 2072 1872 2072 
Q 1678 2072 1540 2065 
Q 1403 2059 1319 2044 
L 1319 306 
z
" transform="scale(0.015625)"/>
       <path id="TimesNewRomanPSMT-75" d="M 2709 2863 
L 2709 1128 
Q 2709 631 2732 520 
Q 2756 409 2807 365 
Q 2859 322 2928 322 
Q 3025 322 3147 375 
L 3191 266 
L 2334 -88 
L 2194 -88 
L 2194 519 
Q 1825 119 1631 15 
Q 1438 -88 1222 -88 
Q 981 -88 804 51 
Q 628 191 559 409 
Q 491 628 491 1028 
L 491 2306 
Q 491 2509 447 2587 
Q 403 2666 317 2708 
Q 231 2750 6 2747 
L 6 2863 
L 1009 2863 
L 1009 947 
Q 1009 547 1148 422 
Q 1288 297 1484 297 
Q 1619 297 1789 381 
Q 1959 466 2194 703 
L 2194 2325 
Q 2194 2569 2105 2655 
Q 2016 2741 1734 2747 
L 1734 2863 
L 2709 2863 
z
" transform="scale(0.015625)"/>
       <path id="TimesNewRomanPSMT-73" d="M 2050 2947 
L 2050 1972 
L 1947 1972 
Q 1828 2431 1642 2597 
Q 1456 2763 1169 2763 
Q 950 2763 815 2647 
Q 681 2531 681 2391 
Q 681 2216 781 2091 
Q 878 1963 1175 1819 
L 1631 1597 
Q 2266 1288 2266 781 
Q 2266 391 1970 151 
Q 1675 -88 1309 -88 
Q 1047 -88 709 6 
Q 606 38 541 38 
Q 469 38 428 -44 
L 325 -44 
L 325 978 
L 428 978 
Q 516 541 762 319 
Q 1009 97 1316 97 
Q 1531 97 1667 223 
Q 1803 350 1803 528 
Q 1803 744 1651 891 
Q 1500 1038 1047 1263 
Q 594 1488 453 1669 
Q 313 1847 313 2119 
Q 313 2472 555 2709 
Q 797 2947 1181 2947 
Q 1350 2947 1591 2875 
Q 1750 2828 1803 2828 
Q 1853 2828 1881 2850 
Q 1909 2872 1947 2947 
L 2050 2947 
z
" transform="scale(0.015625)"/>
       <path id="TimesNewRomanPSMT-20" transform="scale(0.015625)"/>
       <path id="TimesNewRomanPSMT-31" d="M 750 3822 
L 1781 4325 
L 1884 4325 
L 1884 747 
Q 1884 391 1914 303 
Q 1944 216 2037 169 
Q 2131 122 2419 116 
L 2419 0 
L 825 0 
L 825 116 
Q 1125 122 1212 167 
Q 1300 213 1334 289 
Q 1369 366 1369 747 
L 1369 3034 
Q 1369 3497 1338 3628 
Q 1316 3728 1258 3775 
Q 1200 3822 1119 3822 
Q 1003 3822 797 3725 
L 750 3822 
z
" transform="scale(0.015625)"/>
      </defs>
      <use xlink:href="#TimesNewRomanPSMT-42"/>
      <use xlink:href="#TimesNewRomanPSMT-75" x="66.699219"/>
      <use xlink:href="#TimesNewRomanPSMT-73" x="116.699219"/>
      <use xlink:href="#TimesNewRomanPSMT-20" x="155.615234"/>
      <use xlink:href="#TimesNewRomanPSMT-31" x="180.615234"/>
     </g>
    </g>
    <g id="line2d_40">
     <path d="M 379.365325 45.417969 
L 390.365325 45.417969 
L 401.365325 45.417969 
" style="fill: none; stroke-dasharray: 9.25,4; stroke-dashoffset: 0; stroke: #150e56; stroke-width: 2.5"/>
     <defs>
      <path id="m0fcaac918e" d="M 0 -4.5 
L -4.5 4.5 
L 4.5 4.5 
z
" style="stroke: #150e56; stroke-linejoin: miter"/>
     </defs>
     <g>
      <use xlink:href="#m0fcaac918e" x="390.365325" y="45.417969" style="fill: #150e56; stroke: #150e56; stroke-linejoin: miter"/>
     </g>
    </g>
    <g id="text_33">
     <!-- Bus 2 -->
     <g style="fill: #262626" transform="translate(410.165325 49.267969)scale(0.11 -0.11)">
      <defs>
       <path id="TimesNewRomanPSMT-32" d="M 2934 816 
L 2638 0 
L 138 0 
L 138 116 
Q 1241 1122 1691 1759 
Q 2141 2397 2141 2925 
Q 2141 3328 1894 3587 
Q 1647 3847 1303 3847 
Q 991 3847 742 3664 
Q 494 3481 375 3128 
L 259 3128 
Q 338 3706 661 4015 
Q 984 4325 1469 4325 
Q 1984 4325 2329 3994 
Q 2675 3663 2675 3213 
Q 2675 2891 2525 2569 
Q 2294 2063 1775 1497 
Q 997 647 803 472 
L 1909 472 
Q 2247 472 2383 497 
Q 2519 522 2628 598 
Q 2738 675 2819 816 
L 2934 816 
z
" transform="scale(0.015625)"/>
      </defs>
      <use xlink:href="#TimesNewRomanPSMT-42"/>
      <use xlink:href="#TimesNewRomanPSMT-75" x="66.699219"/>
      <use xlink:href="#TimesNewRomanPSMT-73" x="116.699219"/>
      <use xlink:href="#TimesNewRomanPSMT-20" x="155.615234"/>
      <use xlink:href="#TimesNewRomanPSMT-32" x="180.615234"/>
     </g>
    </g>
    <g id="line2d_41">
     <path d="M 379.365325 60.970937 
L 390.365325 60.970937 
L 401.365325 60.970937 
" style="fill: none; stroke-dasharray: 16,4,2.5,4; stroke-dashoffset: 0; stroke: #1597bb; stroke-width: 2.5"/>
     <defs>
      <path id="md5843645b2" d="M 0 0 
L 0 4.5 
M 0 0 
L 3.6 -2.25 
M 0 0 
L -3.6 -2.25 
" style="stroke: #1597bb"/>
     </defs>
     <g>
      <use xlink:href="#md5843645b2" x="390.365325" y="60.970937" style="fill: #1597bb; stroke: #1597bb"/>
     </g>
    </g>
    <g id="text_34">
     <!-- Bus 3 -->
     <g style="fill: #262626" transform="translate(410.165325 64.820937)scale(0.11 -0.11)">
      <defs>
       <path id="TimesNewRomanPSMT-33" d="M 325 3431 
Q 506 3859 782 4092 
Q 1059 4325 1472 4325 
Q 1981 4325 2253 3994 
Q 2459 3747 2459 3466 
Q 2459 3003 1878 2509 
Q 2269 2356 2469 2072 
Q 2669 1788 2669 1403 
Q 2669 853 2319 450 
Q 1863 -75 997 -75 
Q 569 -75 414 31 
Q 259 138 259 259 
Q 259 350 332 419 
Q 406 488 509 488 
Q 588 488 669 463 
Q 722 447 909 348 
Q 1097 250 1169 231 
Q 1284 197 1416 197 
Q 1734 197 1970 444 
Q 2206 691 2206 1028 
Q 2206 1275 2097 1509 
Q 2016 1684 1919 1775 
Q 1784 1900 1550 2001 
Q 1316 2103 1072 2103 
L 972 2103 
L 972 2197 
Q 1219 2228 1467 2375 
Q 1716 2522 1828 2728 
Q 1941 2934 1941 3181 
Q 1941 3503 1739 3701 
Q 1538 3900 1238 3900 
Q 753 3900 428 3381 
L 325 3431 
z
" transform="scale(0.015625)"/>
      </defs>
      <use xlink:href="#TimesNewRomanPSMT-42"/>
      <use xlink:href="#TimesNewRomanPSMT-75" x="66.699219"/>
      <use xlink:href="#TimesNewRomanPSMT-73" x="116.699219"/>
      <use xlink:href="#TimesNewRomanPSMT-20" x="155.615234"/>
      <use xlink:href="#TimesNewRomanPSMT-33" x="180.615234"/>
     </g>
    </g>
    <g id="line2d_42">
     <path d="M 379.365325 76.523906 
L 390.365325 76.523906 
L 401.365325 76.523906 
" style="fill: none; stroke-dasharray: 2.5,4.125; stroke-dashoffset: 0; stroke: #8fd6e1; stroke-width: 2.5"/>
     <defs>
      <path id="m0fd64e9c41" d="M -4.5 4.5 
L 4.5 4.5 
L 4.5 -4.5 
L -4.5 -4.5 
z
" style="stroke: #8fd6e1; stroke-linejoin: miter"/>
     </defs>
     <g>
      <use xlink:href="#m0fd64e9c41" x="390.365325" y="76.523906" style="fill: #8fd6e1; stroke: #8fd6e1; stroke-linejoin: miter"/>
     </g>
    </g>
    <g id="text_35">
     <!-- Bus 4 -->
     <g style="fill: #262626" transform="translate(410.165325 80.373906)scale(0.11 -0.11)">
      <defs>
       <path id="TimesNewRomanPSMT-34" d="M 2978 1563 
L 2978 1119 
L 2409 1119 
L 2409 0 
L 1894 0 
L 1894 1119 
L 100 1119 
L 100 1519 
L 2066 4325 
L 2409 4325 
L 2409 1563 
L 2978 1563 
z
M 1894 1563 
L 1894 3666 
L 406 1563 
L 1894 1563 
z
" transform="scale(0.015625)"/>
      </defs>
      <use xlink:href="#TimesNewRomanPSMT-42"/>
      <use xlink:href="#TimesNewRomanPSMT-75" x="66.699219"/>
      <use xlink:href="#TimesNewRomanPSMT-73" x="116.699219"/>
      <use xlink:href="#TimesNewRomanPSMT-20" x="155.615234"/>
      <use xlink:href="#TimesNewRomanPSMT-34" x="180.615234"/>
     </g>
    </g>
    <g id="line2d_43">
     <path d="M 379.365325 92.076875 
L 390.365325 92.076875 
L 401.365325 92.076875 
" style="fill: none; stroke: #e02401; stroke-width: 2.5; stroke-linecap: round"/>
     <defs>
      <path id="mc0ebe4d63b" d="M 0 -4.5 
L -1.010313 -1.390576 
L -4.279754 -1.390576 
L -1.634721 0.531153 
L -2.645034 3.640576 
L -0 1.718847 
L 2.645034 3.640576 
L 1.634721 0.531153 
L 4.279754 -1.390576 
L 1.010313 -1.390576 
z
" style="stroke: #e02401; stroke-linejoin: bevel"/>
     </defs>
     <g>
      <use xlink:href="#mc0ebe4d63b" x="390.365325" y="92.076875" style="fill: #e02401; stroke: #e02401; stroke-linejoin: bevel"/>
     </g>
    </g>
    <g id="text_36">
     <!-- Bus 5 -->
     <g style="fill: #262626" transform="translate(410.165325 95.926875)scale(0.11 -0.11)">
      <defs>
       <path id="TimesNewRomanPSMT-35" d="M 2778 4238 
L 2534 3706 
L 1259 3706 
L 981 3138 
Q 1809 3016 2294 2522 
Q 2709 2097 2709 1522 
Q 2709 1188 2573 903 
Q 2438 619 2231 419 
Q 2025 219 1772 97 
Q 1413 -75 1034 -75 
Q 653 -75 479 54 
Q 306 184 306 341 
Q 306 428 378 495 
Q 450 563 559 563 
Q 641 563 702 538 
Q 763 513 909 409 
Q 1144 247 1384 247 
Q 1750 247 2026 523 
Q 2303 800 2303 1197 
Q 2303 1581 2056 1914 
Q 1809 2247 1375 2428 
Q 1034 2569 447 2591 
L 1259 4238 
L 2778 4238 
z
" transform="scale(0.015625)"/>
      </defs>
      <use xlink:href="#TimesNewRomanPSMT-42"/>
      <use xlink:href="#TimesNewRomanPSMT-75" x="66.699219"/>
      <use xlink:href="#TimesNewRomanPSMT-73" x="116.699219"/>
      <use xlink:href="#TimesNewRomanPSMT-20" x="155.615234"/>
      <use xlink:href="#TimesNewRomanPSMT-35" x="180.615234"/>
     </g>
    </g>
    <g id="line2d_44">
     <path d="M 379.365325 107.629844 
L 390.365325 107.629844 
L 401.365325 107.629844 
" style="fill: none; stroke-dasharray: 9.25,4; stroke-dashoffset: 0; stroke: #f78812; stroke-width: 2.5"/>
     <defs>
      <path id="mddf0a420f9" d="M -4.5 0 
L 4.5 0 
M 0 4.5 
L 0 -4.5 
" style="stroke: #f78812"/>
     </defs>
     <g>
      <use xlink:href="#mddf0a420f9" x="390.365325" y="107.629844" style="fill: #f78812; stroke: #f78812"/>
     </g>
    </g>
    <g id="text_37">
     <!-- Bus 6 -->
     <g style="fill: #262626" transform="translate(410.165325 111.479844)scale(0.11 -0.11)">
      <defs>
       <path id="TimesNewRomanPSMT-36" d="M 2869 4325 
L 2869 4209 
Q 2456 4169 2195 4045 
Q 1934 3922 1679 3669 
Q 1425 3416 1258 3105 
Q 1091 2794 978 2366 
Q 1428 2675 1881 2675 
Q 2316 2675 2634 2325 
Q 2953 1975 2953 1425 
Q 2953 894 2631 456 
Q 2244 -75 1606 -75 
Q 1172 -75 869 213 
Q 275 772 275 1663 
Q 275 2231 503 2743 
Q 731 3256 1154 3653 
Q 1578 4050 1965 4187 
Q 2353 4325 2688 4325 
L 2869 4325 
z
M 925 2138 
Q 869 1716 869 1456 
Q 869 1156 980 804 
Q 1091 453 1309 247 
Q 1469 100 1697 100 
Q 1969 100 2183 356 
Q 2397 613 2397 1088 
Q 2397 1622 2184 2012 
Q 1972 2403 1581 2403 
Q 1463 2403 1327 2353 
Q 1191 2303 925 2138 
z
" transform="scale(0.015625)"/>
      </defs>
      <use xlink:href="#TimesNewRomanPSMT-42"/>
      <use xlink:href="#TimesNewRomanPSMT-75" x="66.699219"/>
      <use xlink:href="#TimesNewRomanPSMT-73" x="116.699219"/>
      <use xlink:href="#TimesNewRomanPSMT-20" x="155.615234"/>
      <use xlink:href="#TimesNewRomanPSMT-36" x="180.615234"/>
     </g>
    </g>
    <g id="line2d_45">
     <path d="M 379.365325 123.182812 
L 390.365325 123.182812 
L 401.365325 123.182812 
" style="fill: none; stroke-dasharray: 16,4,2.5,4; stroke-dashoffset: 0; stroke: #ab6d23; stroke-width: 2.5"/>
     <defs>
      <path id="m8d6f044b22" d="M -4.5 4.5 
L 4.5 -4.5 
M -4.5 -4.5 
L 4.5 4.5 
" style="stroke: #ab6d23"/>
     </defs>
     <g>
      <use xlink:href="#m8d6f044b22" x="390.365325" y="123.182812" style="fill: #ab6d23; stroke: #ab6d23"/>
     </g>
    </g>
    <g id="text_38">
     <!-- Bus 7 -->
     <g style="fill: #262626" transform="translate(410.165325 127.032812)scale(0.11 -0.11)">
      <defs>
       <path id="TimesNewRomanPSMT-37" d="M 644 4238 
L 2916 4238 
L 2916 4119 
L 1503 -88 
L 1153 -88 
L 2419 3728 
L 1253 3728 
Q 900 3728 750 3644 
Q 488 3500 328 3200 
L 238 3234 
L 644 4238 
z
" transform="scale(0.015625)"/>
      </defs>
      <use xlink:href="#TimesNewRomanPSMT-42"/>
      <use xlink:href="#TimesNewRomanPSMT-75" x="66.699219"/>
      <use xlink:href="#TimesNewRomanPSMT-73" x="116.699219"/>
      <use xlink:href="#TimesNewRomanPSMT-20" x="155.615234"/>
      <use xlink:href="#TimesNewRomanPSMT-37" x="180.615234"/>
     </g>
    </g>
    <g id="line2d_46">
     <path d="M 379.365325 138.735781 
L 390.365325 138.735781 
L 401.365325 138.735781 
" style="fill: none; stroke-dasharray: 2.5,4.125; stroke-dashoffset: 0; stroke: #51050f; stroke-width: 2.5"/>
     <defs>
      <path id="m62223ec8b8" d="M -0 6.363961 
L 6.363961 0 
L 0 -6.363961 
L -6.363961 -0 
z
" style="stroke: #51050f; stroke-linejoin: miter"/>
     </defs>
     <g>
      <use xlink:href="#m62223ec8b8" x="390.365325" y="138.735781" style="fill: #51050f; stroke: #51050f; stroke-linejoin: miter"/>
     </g>
    </g>
    <g id="text_39">
     <!-- Bus 8 -->
     <g style="fill: #262626" transform="translate(410.165325 142.585781)scale(0.11 -0.11)">
      <defs>
       <path id="TimesNewRomanPSMT-38" d="M 1228 2134 
Q 725 2547 579 2797 
Q 434 3047 434 3316 
Q 434 3728 753 4026 
Q 1072 4325 1600 4325 
Q 2113 4325 2425 4047 
Q 2738 3769 2738 3413 
Q 2738 3175 2569 2928 
Q 2400 2681 1866 2347 
Q 2416 1922 2594 1678 
Q 2831 1359 2831 1006 
Q 2831 559 2490 242 
Q 2150 -75 1597 -75 
Q 994 -75 656 303 
Q 388 606 388 966 
Q 388 1247 577 1523 
Q 766 1800 1228 2134 
z
M 1719 2469 
Q 2094 2806 2194 3001 
Q 2294 3197 2294 3444 
Q 2294 3772 2109 3958 
Q 1925 4144 1606 4144 
Q 1288 4144 1088 3959 
Q 888 3775 888 3528 
Q 888 3366 970 3203 
Q 1053 3041 1206 2894 
L 1719 2469 
z
M 1375 2016 
Q 1116 1797 991 1539 
Q 866 1281 866 981 
Q 866 578 1086 336 
Q 1306 94 1647 94 
Q 1984 94 2187 284 
Q 2391 475 2391 747 
Q 2391 972 2272 1150 
Q 2050 1481 1375 2016 
z
" transform="scale(0.015625)"/>
      </defs>
      <use xlink:href="#TimesNewRomanPSMT-42"/>
      <use xlink:href="#TimesNewRomanPSMT-75" x="66.699219"/>
      <use xlink:href="#TimesNewRomanPSMT-73" x="116.699219"/>
      <use xlink:href="#TimesNewRomanPSMT-20" x="155.615234"/>
      <use xlink:href="#TimesNewRomanPSMT-38" x="180.615234"/>
     </g>
    </g>
   </g>
  </g>
 </g>
 <defs>
  <clipPath id="p94290ac909">
   <rect x="39.213125" y="7.2" width="319.764" height="288.3"/>
  </clipPath>
 </defs>
</svg>
